<svg xmlns="http://www.w3.org/2000/svg" width="16" height="17" fill="none"><path fill="#000" d="M14.896 9.318H2.128V3.333a1.7 1.7 0 0 1 .503-1.213l.013-.014a1.72 1.72 0 0 1 1.948-.338 2.63 2.63 0 0 0 .392 3.213l.364.364-.67.67.752.753.67-.67 3.714-3.714.67-.67-.752-.752-.67.67-.364-.364A2.63 2.63 0 0 0 5.342.969a2.78 2.78 0 0 0-3.45.385l-.014.013a2.76 2.76 0 0 0-.814 1.966v5.985H0v1.064h1.064v1.02q0 .13.041.253l.99 2.97a.8.8 0 0 0 .757.545h.429l-.388 1.33H4l.388-1.33h6.92l.399 1.33h1.11l-.399-1.33h.69a.8.8 0 0 0 .757-.546l.99-2.969a.8.8 0 0 0 .04-.252v-1.021h1.064V9.318zM5.736 2.02a1.564 1.564 0 0 1 2.21 0l.363.364-2.208 2.209-.365-.364a1.564 1.564 0 0 1 0-2.209m8.096 9.34-.915 2.746H3.044l-.916-2.747v-.977h11.704z"/></svg>