<svg xmlns="http://www.w3.org/2000/svg" width="16" height="14" fill="none"><path fill="#000" d="M11.406.257a2.297 2.297 0 0 1 2.292 2.146l.005.151v2.343a2.3 2.3 0 0 1 1.832 2.095l.006.157v5.513a.46.46 0 0 1-.912.083l-.007-.083v-2.297H1.757v2.297a.46.46 0 0 1-.912.083l-.007-.083V7.15a2.3 2.3 0 0 1 1.838-2.252V2.554A2.297 2.297 0 0 1 4.822.261l.151-.004zm1.837 5.513H3.135a1.38 1.38 0 0 0-1.372 1.245l-.006.134v2.297h12.865V7.149a1.38 1.38 0 0 0-1.245-1.372zm-1.838-4.594H4.974a1.38 1.38 0 0 0-1.372 1.246l-.006.132v2.297h.919v-.459a.46.46 0 0 1 .459-.46H7.27a.46.46 0 0 1 .46.46v.46h.919v-.46a.46.46 0 0 1 .46-.46h2.297a.46.46 0 0 1 .459.46v.46h.919V2.553a1.38 1.38 0 0 0-1.245-1.372z"/></svg>