<svg xmlns="http://www.w3.org/2000/svg" width="150" height="151" fill="none"><circle cx="75" cy="75.5" r="75" fill="#fff" fill-opacity=".3"/><circle cx="75.007" cy="75.5" r="54.167" fill="#fff" fill-opacity=".3"/><path fill="#fff" fill-rule="evenodd" d="M75.001 108.834c18.41 0 33.334-14.924 33.334-33.334S93.411 42.167 75.001 42.167 41.668 57.091 41.668 75.5c0 18.41 14.924 33.334 33.333 33.334m15.084-42.047a2.833 2.833 0 0 0-3.972 0L74.149 78.544a3 3 0 0 1-4.207 0l-2.233-2.197a2.838 2.838 0 0 0-3.98 4.046l6.211 6.11a3 3 0 0 0 4.208 0l15.937-15.678a2.833 2.833 0 0 0 0-4.039" clip-rule="evenodd"/></svg>