<svg xmlns="http://www.w3.org/2000/svg" width="220" height="200" fill="none"><path fill="#F1F1F1" d="M16.23 138.641a10 10 0 0 1-.321-.378c-2.691-3.322-4.96-7.809-6.4-11.89-2.813-7.976-3.911-16.393-5.37-24.717C2.351 91.444-.034 82.549.87 71.991c1.262-14.738 7.615-28.307 18.436-37.816 8.026-7.053 17.034-12.8 25.577-19.11 5.648-4.17 10.578-9.22 16.96-12.22C66.409.7 71.34-.385 76.34.125c6.184.63 12.57 3.454 17.212 7.863 1.52 1.443 2.817 3.096 4.118 4.75 1.051 1.6 2.085 3.222 3.003 4.912-4.105 2.33-8.604 4.097-12.857 6.12a2887 2887 0 0 1-27.351 12.957L35.367 48.833c-5.218 2.578-10.404 5.34-15.715 7.693-.828-.299-1.607-.7-2.486-.413l-.049.123.263.2-.073-.025c.675.281 1.388.57 2.015.958.361 3.047.234 6.31.305 9.388l.442 17.784 1.016 35.833c.126 5.059.35 10.123.364 15.183-1.692 1.043-3.422 2.26-5.219 3.084"/><path fill="#5A5A5A" d="M106.721 15.014c3.804 1.612 7.544 3.388 11.322 5.068a2863 2863 0 0 1 45.574 20.889l21.123 9.62c4.683 2.104 9.51 4.06 14.04 6.513.495-.201 1.063-.492 1.594-.267.043.018.082.045.123.068.029.266.072.197-.074.385-.354.452-1.006.575-1.519.742.113 3.176.025 6.378.013 9.558l-.017 13.964.029 34.994-.055 14.193c0 1.928.254 4.859-.078 6.67 1.055-.363 1.867.296 2.808.803a278 278 0 0 1 6.354 3.539l8.505 4.618c1.013.547 2.235.991 3.171 1.646.223.156.281.341.366.597l-.09.209c-1.343.165-10.581-5.305-12.29-6.329a94 94 0 0 1-5.544 8.68 94 94 0 0 1-6.422 7.975c-1.518 1.708-3.164 3.307-4.769 4.923a290 290 0 0 1-17.141 15.703c-5.993 5.133-11.954 10.3-18.547 14.576-3.162 2.052-6.481 3.957-10.092 4.959-4.345 1.204-9.519.683-13.866-.415-4.939-1.247-9.665-3.417-14.31-5.54-3.298-1.508-6.614-3.025-9.866-4.641-4.266-2.119-8.446-4.416-12.735-6.486-2.021-.976-4.103-1.844-6.157-2.742-2.455-1.073-5.102-2.278-7.662-3.002-1.638.382-3.387.326-5.056.401q-3.597.148-7.186.418c-6.716.548-13.464 1.832-20.205 1.845a30.4 30.4 0 0 1-8.11-1.043c-7.28-2.01-13.908-6.219-17.733-13.238-3.88-7.12-3.923-15.391-1.93-23.146-1.28-.706-2.481-1.533-3.675-2.384-2.15 1.138-15.527 9.389-16.495 9.411L0 148.59l.05-.228c.976-1.117 14.031-8.434 16.182-9.721 1.797-.824 3.526-2.041 5.218-3.084-.014-5.06-.237-10.124-.364-15.183L20.07 84.541l-.441-17.784c-.072-3.077.055-6.342-.306-9.388-.626-.388-1.34-.677-2.014-.958l.072.025-.263-.2.05-.123c.878-.288 1.658.114 2.486.413 5.31-2.353 10.496-5.116 15.715-7.693l25.097-12.105q13.707-6.406 27.351-12.958c4.253-2.023 8.753-3.79 12.857-6.12 2.054-.51 4.082-1.804 6.047-2.636"/><path fill="#fff" d="M191.931 104.536c.71.354 1.776.7 2.134 1.48-.086.46-.261.537-.583.847l-1.601 1.075a55 55 0 0 1 .05-3.402M30.72 118.877c1.295 1.863 1.096 7.794 1.166 10.24l-.148.005c-.863-1.69-.854-7.99-1.017-10.245m160.554 15.334c.437.633.097 4.071.024 4.986-.413-.308-.753-.654-1.11-1.03-.495-.78-.71-1.633-.974-2.522zm-80.724-17.142 1.478.502c.032 1.789.048 3.482-.239 5.254-.044.034-.082.077-.131.102-.265.132-.354.095-.588-.036-.645-1.142-.487-4.379-.52-5.822m54.57 30.791c.953.356 1.642.42 2.631.321a225 225 0 0 0-.72 5.053c-.155.364-.28.47-.577.693-.17.015-.259.07-.402-.052-.725-.617-.832-4.83-.932-6.015M21.263 136.469c.368.471.297 4.185.312 5.018-.85-.393-1.657-.909-2.466-1.388-.617-.416-1.27-.786-1.906-1.171q2.04-1.212 4.06-2.459m10.477 5.164c.508.518.78 1.209 1.37 1.684 1.369 1.104 3.282 1.772 4.999 1.525 2.021-.291 3.407-1.537 4.578-3.198.454.564.837 1.088 1.063 1.796-.959.825-1.95 1.305-3.135 1.65-2.525.734-7.077.822-9.365-.671-.356-.232-.537-.478-.64-.913.08-.782.65-1.319 1.13-1.873m59.657-59.649c.47-.547.518-1.355 1.148-1.628l.018.456c.172.41.213.64.567.9.241-.17.35-.419.489-.678l.2-.088c.254.159.32.14.442.438l-.08.314.253.208.254.226c-.081.427-.143.84-.182 1.275-.047.52-.155.857-.55 1.189-.968.813-2.865.796-4.04.611-.79-.124-1.462-.437-2.166-.82.062-.373.1-.75.142-1.126l-.273-.297c.368-.342 1.128-.356 1.597-.417.898.223 1.21-.297 1.973-.51z"/><path fill="#5A5A5A" d="M91.397 81.984c.47-.547.518-1.355 1.148-1.628l.018.456c.172.41.213.64.567.9.241-.17.35-.419.489-.678l.2-.088c.254.159.32.14.442.438l-.08.314.253.208.254.226c-1.191 1.217-2.625 1.447-4.219 1.414-.87-.018-1.72-.132-2.577-.285l-.273-.297c.368-.342 1.128-.356 1.597-.417.898.223 1.21-.297 1.973-.51z"/><path fill="#fff" d="M195.198 129.373c.981.416 1.937 1.01 2.882 1.516l-.001 5.551c-.622-.298-1.225-.644-1.832-.972a38 38 0 0 1-3.604-2.24c1.251-1.216 2.055-2.108 2.555-3.855M106.419 93.25c.385.704.138 6.612.129 7.846-.997-.598-1.984-1.216-2.975-1.826l-1.706-1.009-.041-2.158c1.665-.677 3.132-1.795 4.593-2.853m-25.941 9.645c.294.514.085 2.964.071 3.685-2.752 1.504-5.408 3.204-8.13 4.77-.102-1.121-.088-2.279-.126-3.407a810 810 0 0 1 8.185-5.048m-44.512 41.048c-.802-.29-1.842-1.08-2.514-1.644-4.14-3.474-4.446-10.401-5-15.527.965 1.353 2.075 2.612 3.149 3.869.056 1.696.112 3.377.31 5.063.443 3.149 1.816 6.058 4.055 8.239m-1.954-21.131c.716 1.529 1.401 3.166 2.383 4.524a19 19 0 0 1 1.125 3.415c.887 4.226.98 8.351.31 12.616-.455-1.388-.772-2.819-1.165-4.227-.169-1.222-.182-2.471-.47-3.674-.364-1.525-.96-2.954-1.228-4.513-.316-1.84-.312-3.744-.52-5.6-.096-.854-.4-1.688-.435-2.541m-5.827 9.183c.174.225.93 3.837 1.247 4.663-2.175 1.178-4.262 2.584-6.341 3.94l-.617.371-.163-.069c-.11-1.615-.11-3.239-.14-4.857 1.982-1.382 4.095-2.573 6.014-4.048m18.085-7.57c.064 1.967-.885 7.349-1.34 9.409-.878 3.973-2.128 7.471-5.52 9.684-.007-.048-.027-.096-.023-.146.105-1.233 1.95-6.376 2.436-8.032.63-2.143.93-4.431 1.792-6.493.668-1.597 1.672-3.029 2.654-4.422m56.358-36.473c.183.066.189.123.303.28.077.406.158.86.029 1.265-.286.895-10.35 6.601-11.783 7.385-1.706-1.356-8.439-4.736-10.577-5.616a1.5 1.5 0 0 1-.617-.35c-.132-.47.089-.968.226-1.42 3.337 1.734 7.459 3.103 10.462 5.272 2.526-.612 8.986-5.335 11.957-6.816"/><path fill="#fff" d="M32.385 135.965c-.583-3.325.032-6.807.072-10.156.02-1.762-.182-3.426-.54-5.145-.156-.748-.283-1.589-.539-2.301q-.027-.071-.058-.141l.06.027-.018-.131.393.472c1.8 3.862 2.132 8.375 2.925 12.55.245 1.293.638 2.559.95 3.836.341 1.395.617 2.804.97 4.196.092 1.602.26 3.128.582 4.7l-.756.089c-1.891-2.354-3.16-5.071-4.041-7.996M95.15 84.049c2.36.98 4.648 2.228 6.952 3.351-1.426.625-2.805 1.608-4.136 2.432a277 277 0 0 1-6.938 4.219c-1.645-.857-3.262-1.727-4.94-2.514q-2.596-1.26-5.217-2.457c2.278-1.141 4.549-2.469 6.71-3.84.121.902.203 1.894.51 2.749.257.718.649 1.226 1.328 1.53 1.023.46 2.393.43 3.404-.053 1.995-.95 1.572-3.428 2.264-5.257q.03-.08.063-.16"/><path fill="#5A5A5A" d="M38.35 120.554c.258-.965.844-1.741 1.193-2.66.41-1.074.214-3.969 1.106-4.627.336.084.447.246.626.556 1.072 1.851 1.945 7.845 1.806 10.021l-.053.256a5 5 0 0 0-.075.758c-.012.292-.023.555-.225.783-.083.094-.152.126-.251.185-.138 2.783-.32 5.683-.95 8.394-.735 3.162-1.986 6.196-2.993 9.269l-.15.104c-.295.33-.507.688-.932.788-.183-.2-.208-.239-.27-.509-.323-1.572-.49-3.098-.582-4.7l.064-.033c.393 1.409.71 2.84 1.164 4.228.672-4.265.579-8.391-.309-12.616a19 19 0 0 0-1.124-3.415c.345-.253.336-.605.411-1.006l-.027-.535c-.006-.59-.027-1.147.102-1.726.657-.64 1.135-2.6 1.47-3.515"/><path fill="#fff" d="M40.228 122.291c.271.976.62 2.215.501 3.237-.95-.211-.533-.733-1.215-.947.194-.786.443-1.531.714-2.29m-1.37-1.454.577-1.153c-.68 3.45-.618 6.882-1.065 10.339-.035.271-.04.534-.261.696l-.22-.291c-.048-1.239-.58-2.249-.53-3.628.01-.274.005-.515-.038-.786a1.8 1.8 0 0 1-.434-.157l-.108-.062c-.007-.59-.028-1.147.102-1.726.656-.64 1.135-2.601 1.469-3.515-.035.386-.044.792-.153 1.164l-.224-.178.443.056c.109-.437.117-.468.442-.759"/><path fill="#5A5A5A" d="M36.88 124.069c.657-.64 1.136-2.601 1.47-3.515-.035.386-.044.792-.153 1.164l-.224-.178.443.056c.109-.437.117-.468.442-.759-.666 1.824-1.243 3.771-1.442 5.723-.018.175.002.103-.056.24.01-.274.004-.515-.04-.786a1.8 1.8 0 0 1-.433-.157l-.108-.062c-.007-.59-.028-1.147.102-1.726"/><path fill="#fff" d="M40.73 125.528c.067.257.097.671.313.808.278-1.158-.012-2.778-.061-3.993-.092-2.302-.259-5.449-.127-7.716a35 35 0 0 1 1.266 5.526 35 35 0 0 1 .356 5.673c-.137 2.783-.319 5.683-.949 8.394-.735 3.162-1.986 6.196-2.993 9.269l-.15.104c.745-1.789.34-7.112.369-9.294.042-3.141.073-6.645.76-9.718.682.214.265.736 1.215.947m91.025-46.954.084.055c.268.69-.183 4.916-.246 5.963-2.172.799-4.256 1.969-6.332 3.01-3.644 1.827-7.258 3.666-11.009 5.24a46 46 0 0 0-3.568-1.703 43 43 0 0 1-2.437-1.077c7.586-4.33 15.63-7.8 23.508-11.489m-88.219 65.961.13.124c.38 2.605-.498 6.866-1.324 9.365-.468 1.415-1.15 2.455-2.472 3.093-1.633.789-3.72.863-5.393.156-1.186-.502-1.678-1.337-2.164-2.508-1.236-3.244-1.9-6.605-1.88-10.102.818.47 1.649.834 2.545 1.103a13 13 0 0 0 1.324.338 14 14 0 0 0 1.35.197q.34.031.68.046.34.013.682.01a14 14 0 0 0 1.36-.087 14 14 0 0 0 1.345-.229q.333-.075.663-.166a14 14 0 0 0 1.93-.705 13 13 0 0 0 1.224-.635m37.771-52.181c2.998 1.31 6.262 3.248 9.144 4.886l.08 15.208a551 551 0 0 1-9.205-4.765c.102-5.109-.054-10.22-.019-15.329m19.589-.441.176.123c.218 1.48.066 3.197.067 4.702l.046 9.025a868 868 0 0 1-9.705 6.155l-.113-.109c-.248-1.251-.082-2.817-.095-4.107q-.07-5.024-.072-10.047c1.338-.643 2.595-1.47 3.872-2.235a334 334 0 0 0 5.824-3.507m30.407-6.477.245.053c.119.577.043 1.233.033 1.825-.033 2.146-.283 4.569.374 6.623-3.209 1.736-6.567 3.162-9.871 4.68-2.402 1.104-4.878 2.123-6.994 3.78l-.265.214-.131-.064c-.131-.951-.048-1.999-.045-2.96.006-1.99.034-3.981-.029-5.97 1.611-.95 3.493-1.622 5.175-2.45zm-23.512 5.502c1.591.114 4.611 1.844 6.158 2.584l-.088 14.961c-.014 2.15.228 4.596-.082 6.705-.067.458-.398.817-.668 1.163-.178.104-.348.206-.554.237-.981.147-2.759-.908-3.5-1.552-1.106-.962-1.563-2.23-1.696-3.697-.327-3.619-.061-7.858-.055-11.532.003-2.47-.253-5.557.049-7.961.049-.391.203-.61.436-.909m82.298 6.26c.119.071.144.075.247.202 1.289 1.582.789 8.749.69 11.082-6.958 4.589-14.315 8.458-21.083 13.385-1.247-.42-2.449-.928-3.662-1.446-.933-.406-1.854-.788-2.821-1.093 2.693-2.479 6.879-4.385 10.053-6.098 2.292-1.236 4.527-2.584 6.838-3.783 1.558-.809 3.387-1.426 4.811-2.462.277-.201.369-.302.463-.646.484-1.767.196-4.824.562-6.894l.034-.19a156 156 0 0 0 3.868-2.057m-27.001 22.996c1.827.105 4.694 1.911 6.731 2.518l-.032 14.076c-.006 2.541.212 5.415-.226 7.904-.155.886-.474 1.372-1.166 1.884a10 10 0 0 1-2.026.554c-1.478-.685-2.988-1.466-4.139-2.684-.401-5.301.027-10.736.282-16.038.129-2.679.077-5.586.576-8.214m-25.818-48.338c.715-.093 1.28.177 1.927.453 3.124 1.336 6.15 2.928 9.215 4.405q6.258 2.962 12.544 5.857 9.912 4.518 19.747 9.22c2.64 1.264 6.752 2.905 8.992 4.69-1.164.57-2.302 1.202-3.446 1.817l-.25.097c-.74-.032-7.119-3.502-8.471-4.175-5.922-2.951-11.946-5.538-17.932-8.32-2.694-1.25-5.336-2.636-8.009-3.937-3.313-1.612-6.651-3.158-9.951-4.8a154 154 0 0 0-5.038-2.416c-.845-.384-1.888-.654-2.63-1.209l.043-.222c.912-.758 2.17-1.095 3.259-1.46"/><path fill="#fff" d="M114.699 104.902c2.2.938 4.322 2.519 6.431 3.697 5.02 2.802 10.059 5.522 15.03 8.43-.176 2.935-.055 6.016-.032 8.963.009 1.247.096 2.531-.024 3.773-.3.059-.546-.162-.813-.308a749 749 0 0 1-12.958-7.203c-2.943-1.709-5.82-3.564-8.837-5.126.35-.47.7-.951.869-1.529.651-2.229.321-8.132.334-10.697m22.164 12.571c1.458.62 2.87 1.535 4.247 2.333l6.161 3.555c2.837 1.643 5.663 3.313 8.519 4.918 1.918 1.078 3.88 2.069 5.774 3.193a168 168 0 0 0-.121 12.789.95.95 0 0 1-.502-.1c-2.37-1.237-4.666-2.73-6.992-4.063l-17.035-9.753q-.111-6.435-.051-12.872m18.703-11.282c.546.005 13.3 6.828 14.819 7.64-2.011 1.139-5.219 2.897-6.889 4.49-.499.476-.875 1.022-1.089 1.701-.615 1.939-.711 8.216-.817 10.552a253 253 0 0 1-6.131-3.39c-6.063-3.532-12.107-7.152-18.289-10.445 4.456-4.376 12.771-7.985 18.396-10.548"/><path fill="#fff" d="M132.503 94.693c1.299.02 19.65 9.624 22.064 11.024-1.648.682-3.248 1.518-4.851 2.311-4.641 2.295-9.07 4.718-13.037 8.181-.267.043-.41-.028-.648-.143-2.358-1.145-4.634-2.687-6.917-4.004-2.865-1.654-5.8-3.162-8.664-4.816-1.945-1.123-3.885-2.405-5.923-3.326 2.945-2.792 6.752-4.125 10.345-5.73a469 469 0 0 0 7.631-3.497m.945-20.417c3.427 1.43 6.733 3.096 10.087 4.696a580 580 0 0 1 15.061 7.315c-1.184 5.287-2.601 11.135-3.209 16.506-.124.819-.116 1.622-.111 2.449a365 365 0 0 0-12.927-6.818c-2.402-1.194-7.762-3.344-9.532-4.852-.945-2.013-.46-11.24-.191-13.982q.287-2.678.822-5.314m25.869 12.407c1.695.623 3.381 1.481 5.041 2.218a220 220 0 0 1 12.812 6.04c2.748 1.38 5.636 2.63 8.285 4.203-.458 2.279-.43 4.826-.564 7.157-2.117.982-4.218 1.975-6.267 3.111-2.459 1.301-4.761 2.852-7.291 4.023-2.818-1.439-5.597-2.962-8.413-4.406-1.982-1.016-4.196-1.938-6.026-3.233-.423-.299-.703-.74-.992-1.172.337-3.817 1.208-7.747 1.976-11.493.439-2.14.801-4.366 1.439-6.448m35.145 20.621c.032.07.078.134.096.209.248 1.051-.096 6.851-.107 8.307-.03 3.968.159 7.995-.03 11.954-.039.819-.124 1.701-.409 2.469-.926 2.494-16.868 12.117-19.876 13.811a40 40 0 0 1-4.194 2.063c-.173-.191.219-1.222.288-1.491.441-1.696.23-4.073.252-5.836q.098-8.169.074-16.337c4.693-3.496 9.741-6.476 14.723-9.481zM35.559 86.715c.021-2.823-.256-5.695-.406-8.516-.07-1.299-.29-2.823-.042-4.092.403-2.07 1.418-4.17 2.417-5.981 1.368-2.48 3.052-4.857 4.991-6.872 4.065-4.225 10.17-7.839 16.016-7.799 3.146.022 6.285 1.278 8.491 3.675a13.77 13.77 0 0 1 3.424 6.737c.377 1.963.265 4.014.267 6.007q-.01 3.48.094 6.96.832 21.981.946 43.982c-9.081 5.743-18.31 11.206-27.37 16.986.685-2.15 1.304-4.309 1.687-6.545.348-2.027.516-4.087.872-6.111.169-.961.664-2.069.616-3.024l-.15-.216c-.8.185-2.565 3.296-3.096 4.167a57 57 0 0 0-1.191 2.091c-.003-1.417.078-2.913-.046-4.32.14-2.176-.733-8.17-1.805-10.021-.18-.31-.29-.472-.626-.555-.893.657-.697 3.552-1.106 4.627-.35.918-.935 1.694-1.193 2.659-.334.915-.813 2.875-1.47 3.516-.129.578-.108 1.135-.101 1.725l.027.536c-.49-.635-.127-1.133-.454-1.714-.038-3.529-.321-7.06-.298-10.588.21-1.39-.277-3.135.5-4.365.154-2.89-.248-6.929-.387-9.954-.199-4.31-.223-8.701-.607-12.995"/><path fill="#5A5A5A" d="M36.554 109.664q.249 5.445.372 10.895c.016 1.092.152 2.444-.045 3.51-.13.579-.109 1.136-.102 1.726l.027.536c-.49-.636-.127-1.133-.454-1.714-.038-3.529-.321-7.06-.298-10.588.21-1.39-.277-3.136.5-4.365m28.35-21.287c.273-.035.565-.076.84-.04.407.055.814.382 1.048.723.337.492.422 1.094.324 1.684-.132.8-.496 1.146-1.116 1.579-.272.019-.553.046-.825.027-.44-.031-.903-.382-1.15-.756-.292-.442-.365-.982-.273-1.505.14-.8.553-1.246 1.152-1.712"/><path fill="#fff" d="M101.892 99.097c1.544.882 3.053 1.85 4.574 2.778.036 2.821-.315 7.538.107 10.1.339 2.058 1.421 3.424 2.986 4.58.312 1.879-.001 5.011.853 6.614.199.373.499.675.909.765.304.066.627.027.874-.183 1.052-.895.743-4.152.94-5.542l.032-.218c2.738 1.333 5.387 3.099 8.012 4.67 2.879 1.724 5.819 3.343 8.651 5.152-.617 1.223-1.245 2.444-2.114 3.492-1.94 2.339-5.824 4.629-8.513 5.763a120 120 0 0 1-4.045-2.197c-1.431-.83-2.752-1.725-4.292-2.333-2.434-.962-5.151-1.483-7.709-1.944-8.221-1.48-16.88-1.844-24.888 1.041-6.494 2.339-13.406 7.761-16.474 14.359-1.694 3.645-2.43 7.714-1.15 11.634 2.555 7.836 11.579 14.605 18.394 18.054.499.252.998.5 1.472.802-1.638.382-3.387.326-5.056.401q-3.597.148-7.186.417c-6.716.549-13.464 1.833-20.205 1.846a30.4 30.4 0 0 1-8.11-1.043c-7.28-2.01-13.908-6.219-17.733-13.238-3.88-7.12-3.923-15.391-1.93-23.146.686.371 1.291.85 2.1.632q.035-.077.073-.152c.033-.067.07-.132.1-.2.367-.791 5.916-3.911 7.04-4.501.5 1.245 1.048 2.395 1.756 3.527-.79.756-1.256 1.363-1.481 2.496-.61 3.068.751 10.32 2.438 12.858.796 1.199 1.949 1.774 3.29 2.008 1.82.318 4.274-.075 5.764-1.268 1.98-1.583 2.637-6.342 2.895-8.756.185-1.741.564-4.288-.09-5.931-.25-.625-.673-1.146-1.07-1.67.247-.59.481-1.192.758-1.767L61.7 128.015l6.536-4.094c.93-.581 1.858-1.249 2.822-1.759.208-.111.394-.141.623-.166.174.079.3.148.495.141.18-.006.259-.161.382-.287.168-1.268.013-2.652-.014-3.934a413 413 0 0 1-.043-5.599c2.48-1.728 5.345-3.681 8.09-4.861-.096.702-.198 1.304.026 1.987l.216.041c.318-.265.427-.605.583-.985.865.491 8.979 4.642 9.028 4.701.2.24.052.881.293 1.272.284.03.242.073.502-.109.105-.475-.013-.918-.096-1.388 3.38-1.983 6.656-4.173 9.99-6.244l.038.271c.059.451.114.745.318 1.151l.222.063c.033-.034.069-.067.1-.103.43-.509.082-7.833.081-9.016"/><path fill="#F1F1F1" d="M101.164 18.397c1.684-.781 3.524-1.842 5.292-2.33.366 2.428.084 6.737.081 9.365q.039 10.464-.054 20.928c-.148 15.222.199 30.453.068 45.676-1.538 1.145-3.079 2.29-4.748 3.216q-.021-1.927-.021-3.855l1.853-1.081c.023-.948.053-1.89-.012-2.837-1.61-1.255-7.637-3.495-8.291-4.422-.038-.054-.088-.39-.089-.403-.065-.804.148-1.239-.355-1.975-.174.387-.19.918-.455 1.227l-.252-.208.079-.314c-.122-.298-.188-.28-.442-.438l-.2.088c-.14.259-.248.508-.49.678-.353-.26-.394-.49-.566-.9l-.018-.456c-.63.273-.677 1.08-1.148 1.628q-.106.026-.208.054c-.764.212-1.075.732-1.972.509-.47.06-1.23.075-1.598.417l.273.297c-.042.376-.08.753-.142 1.127l-.61.14c-.823 1.099-6.246 3.695-7.815 4.481l-.195 2.337c.468.268.933.55 1.414.79L80.63 102c-2.851 1.496-5.485 3.419-8.299 4.979-.164-4.395-.126-8.807-.222-13.206l-.468-16.116-.12-7.191c-.03-2.516.075-5.017-.497-7.48a14.2 14.2 0 0 0-1.43-3.748 13.8 13.8 0 0 0-1.725-2.428 13 13 0 0 0-.683-.712c-2.432-2.378-6.052-3.558-9.33-3.4-6.276.304-12.678 4.126-16.823 8.984-2.407 2.822-5.897 8.33-6.607 12.154-.168.901-.111 1.835-.062 2.746.103 1.918.252 3.836.334 5.755.057 1.316-.047 2.82.235 4.093.004 6.063.506 12.157.762 18.215l.226 6.2c.033 1.032-.023 2.168.133 3.185-.023 3.528.26 7.059.297 10.588a5 5 0 0 1-.118.928c-.733-.74-1.345-2.349-1.85-3.317-.368-.792-.82-1.764-1.368-2.425-.503-1.313-2.275-4.842-3.198-5.804l-.153.134c-.154 1.101.221 2.479.296 3.608l.624 10.665c-.805-.888-1.65-2.563-2.702-3.045l-.168.141c-.155 1.488.333 3.951.496 5.511-1.796 1.602-4.035 2.847-6.04 4.149l-2.073-77.996c2.727-.993 5.399-2.565 8.007-3.874a973 973 0 0 1 13.739-6.77l34.286-16.304c8.266-3.951 16.645-8.22 25.036-11.821"/><path fill="#5A5A5A" d="M91.75 74.778c.285 1.457.355 2.86.36 4.344.538-.944 1.216-2.326 2.285-2.656a.85.85 0 0 1 .442-.012c.175.317.118.51.025.852-.213.789-.558 1.533-.76 2.329.268.332.583.666.788 1.044-.174.387-.19.918-.455 1.227l-.252-.208.08-.314c-.123-.298-.188-.28-.443-.438l-.2.088c-.14.259-.247.508-.489.678-.353-.26-.394-.49-.567-.9l-.017-.456c-.63.273-.678 1.08-1.149 1.628-.14-.238-.105-.215-.08-.473.258-1.432.609-5.087-.107-6.365z"/><path fill="#fff" d="M94.195 77.332c-.418 1.102-.869 2.605-1.632 3.48l-.017-.456c-.043-.868.202-1.38.75-2.017.294-.341.609-.663.899-1.007"/><path fill="#5A5A5A" d="M90.596 75.243c.066-.643.086-1.316.56-1.783l.223.075c.26.379.294.794.369 1.243l-.539.368c.716 1.278.365 4.933.107 6.365-.025.258-.06.235.08.473l-.207.054c-.764.212-1.075.732-1.973.509-.47.06-1.23.075-1.597.417l.273.297c-.042.376-.08.753-.142 1.127l-.61.14c.077-.436.117-.767.013-1.203-.126-.53-.246-1.208-.015-1.728.282-.635 1.169-.92 1.742-1.131-.483-.813-1.027-1.595-1.54-2.387-.23-.42-.499-.828-.55-1.319l.14-.185c.534.027.96.321 1.424.578.692.514 1.243 1.09 1.781 1.774.032-1.255.225-2.455.46-3.684"/><path fill="#fff" d="m87.836 77.68.25.001c.976.807 1.73 1.59 2.178 2.85-.15.001-.302-.003-.439-.079-.656-.365-1.692-2.06-1.99-2.772m3.375-2.533c.716 1.277.365 4.932.107 6.364-.58-1.824-.892-4.55-.106-6.364"/><path fill="#5A5A5A" d="m87.34 78.078.497-.398c.297.713 1.333 2.407 1.99 2.772.136.076.288.08.438.079.201.302.24.316.224.678-.443.572-2.127.482-2.073 1.08l.035-.334-.06.156.301.215.334-.07c.177.22.127.115.191.29-.47.061-1.23.076-1.597.418l.272.297c-.042.376-.08.753-.141 1.126l-.61.14c.077-.435.116-.766.013-1.202-.126-.53-.246-1.208-.015-1.728.282-.635 1.169-.92 1.742-1.131-.484-.813-1.027-1.595-1.54-2.388"/><path fill="#fff" d="M101.166 18.397c1.684-.781 3.524-1.842 5.292-2.33-.131 2.337-.051 4.717-.05 7.06q.048 7.044-.038 14.089c-.487-1.573-.651-3.315-.896-4.945-.733-4.87-1.604-9.726-4.308-13.874"/><path fill="#5A5A5A" d="M96.3 41.155c.353.111.837.296 1.105.568.25.253.297.431.338.788.24 2.072.068 4.372.046 6.472l-.115 11.387q-.12.086-.243.166c-2.356 1.535-4.962 2.782-7.425 4.12-1.968 1.067-4.192 2.583-6.304 3.215-.453.135-.798.087-1.248-.03-.564-.192-1.109-.434-1.657-.668-.243-2.215-.091-4.582-.098-6.818a738 738 0 0 1-.03-11.055c5.043-2.961 10.438-5.478 15.632-8.145"/><path fill="#fff" d="M96.123 41.938c.304.087.524.2.796.362.556.785.128 15.498.119 17.637a488 488 0 0 1-9.068 5.01c-1.4.751-2.94 1.76-4.453 2.198-.321.094-.63.055-.954-.001a4.2 4.2 0 0 1-.934-.419c-.374-.67-.312-15.23-.352-16.984 1.805-.814 3.517-1.85 5.282-2.756 3.208-1.647 6.449-3.203 9.564-5.047"/><path fill="#5A5A5A" d="M95.458 44.056c.087.025.157.096.234.147-.086 4.946 0 9.895-.04 14.841-1.81 1.249-4 2.173-5.948 3.179-2.035 1.051-4.065 2.26-6.16 3.162-.08-.118-.116-.162-.184-.3-.26-.532-.289-13.627.018-14.29.51-1.107 10.265-5.816 12.08-6.74"/><path fill="#fff" d="m94.77 45.119.18.018c.277.42.09 11.91.088 13.475l-10.901 5.713-.116-.03c-.31-.449-.125-11.757-.125-13.349 1.32-.902 2.84-1.588 4.252-2.319a270 270 0 0 0 6.622-3.508m12.466-29.029c2.246.787 4.447 1.943 6.615 2.95a492 492 0 0 0 7.978 3.574c12.703 5.67 25.319 11.583 37.949 17.43l24.576 11.249c4.413 1.99 9.624 3.98 13.8 6.388.144 3.313.062 6.668.062 9.986l.002 16.919-.097 30.602c-.013 4.97.072 9.94.014 14.909-1.006-.481-1.972-1.122-2.936-1.691l.077-14.233c.038-2.759.17-5.563-.117-8.309-.913-.995-2.087-1.553-3.237-2.176-.028-1.614.011-3.287-.331-4.868-.318-1.47-.959-2.724-2.189-3.53-2.667-1.75-5.809-2.975-8.668-4.342-6.282-3.002-12.606-5.86-18.924-8.772a690 690 0 0 1-13.01-6.132c-2.933-1.426-5.834-2.993-8.84-4.24-.876-.362-2.081-.947-3.024-.689-.862.237-1.749.492-2.513.99-1.795 1.168-1.867 3.423-2.275 5.39-6.074 3.112-12.385 5.677-18.46 8.789-2.186 1.119-4.599 2.176-6.459 3.849.117-2.337 0-4.714.013-7.058l.009-17.369z"/><path fill="#5A5A5A" d="M146.983 40.762a1.6 1.6 0 0 1 .41.013c.973.186 2.175.908 3.107 1.295 4.012 1.67 7.971 3.424 11.945 5.19 1.843.818 3.831 1.467 5.605 2.424.479.258.767.694 1.087 1.137.33 3.87.029 7.983-.054 11.87-.119 5.6-.143 11.22-.444 16.813-.375.363-.775.63-1.205.914l-.08.033c-.391.146-.611.275-1.023.138-1.722-.568-4.105-1.923-5.813-2.748-2.719-1.313-5.382-2.738-8.081-4.093-2.398-1.205-4.829-2.342-7.207-3.59-.174-3.746-.011-7.591 0-11.346.016-5.757-.046-11.533.157-17.287.516-.305 1.048-.53 1.596-.763"/><path fill="#fff" d="M146.819 41.543c1.852.168 19.652 8.133 21.194 9.298.278 6.357-.127 12.87-.281 19.23-.067 2.74.172 6.347-.078 8.935-.045.464-.229.61-.497.959-1.645-.11-18.641-8.94-21.234-10.292-.206-4.948-.043-9.991-.014-14.948.023-4.182-.108-8.444.116-12.617.2-.325.471-.395.794-.565"/><path fill="#5A5A5A" d="M147.305 44.735c.042-.375.016-.581.244-.88 1.689-.015 15.642 6.73 18.685 7.893-.007 3.113-.054 6.265-.203 9.373l-.153-.058c-.378-.718-.327-1.576-.367-2.38-.134-2.105.089-4.338.19-6.447-3.369-1.227-6.628-2.783-9.903-4.26a633 633 0 0 0-7.702-3.34c-.235-.106-.476.134-.791.1"/><path fill="#5A5A5A" d="M147.303 44.735c.316.035.557-.205.792-.1-.339 1.418-.103 6.392-.106 8.126l-.112 15.963c2.43 1.142 16.096 8.432 17.084 8.301.464-.994.218-15.714.549-18.342.039.804-.011 1.662.367 2.38l.153.057c.223 2.8-.122 6.654-.193 9.6-.052 2.161.123 4.45-.117 6.586-.04.358-.056.544-.324.773-1.129.084-16.287-7.913-18.133-8.93-.133-8.129.019-16.284.04-24.414"/><path fill="#fff" d="m147.877 68.724.112-15.963c.003-1.734-.233-6.708.105-8.126a635 635 0 0 1 7.703 3.341c3.274 1.477 6.533 3.033 9.902 4.26-.1 2.11-.323 4.342-.189 6.447-.331 2.628-.085 17.348-.549 18.342-.989.13-14.654-7.159-17.084-8.301"/><path fill="#F1F1F1" d="m129.827 127.813 21.18 11.902a564 564 0 0 1 7.821 4.368c1.76.978 3.585 1.894 5.265 3.019.229 1.377.41 6.872 1.209 7.436.334.236.912.339 1.304.237.458-.119.787-.474 1.002-.902.787-1.569.785-4.221.977-5.997 7.122-3.197 13.435-7.505 20.048-11.685.361 1.396.576 2.612 1.845 3.398.363.225.624.31 1.043.302.365-.147.551-.353.704-.726.579-1.411.271-3.497.293-5.021 1.506.89 4.587 2.992 6.072 3.416 3 1.662 6.05 3.232 9.029 4.934a95 95 0 0 1-5.543 8.679 93 93 0 0 1-6.423 7.976c-1.517 1.708-3.164 3.307-4.769 4.923a290 290 0 0 1-17.14 15.703c-5.993 5.132-11.955 10.3-18.547 14.576-3.163 2.052-6.481 3.957-10.093 4.958-4.344 1.205-9.519.683-13.866-.414-4.939-1.247-9.665-3.417-14.309-5.54-3.299-1.508-6.615-3.025-9.867-4.641-4.265-2.119-8.445-4.417-12.735-6.487-2.021-.975-4.103-1.844-6.156-2.741-2.456-1.073-5.102-2.278-7.663-3.002-.474-.302-.972-.55-1.471-.802-6.816-3.449-15.84-10.218-18.395-18.054-1.279-3.92-.544-7.989 1.151-11.634 3.068-6.598 9.98-12.02 16.474-14.36 8.008-2.884 16.666-2.52 24.887-1.04 2.559.461 5.276.982 7.71 1.944 1.54.608 2.86 1.503 4.292 2.333q2.002 1.138 4.045 2.197c2.688-1.134 6.573-3.424 8.513-5.763.869-1.048 1.497-2.269 2.113-3.492"/><path fill="#5A5A5A" d="m111.343 175.83.276.142c.054.503.038 1.003.088 1.502.001 1.56.03 3.128-.013 4.686.014.654.072 1.339.01 1.989-.035.353-.064.708-.116 1.06l-.364-.667c-.042-1.557-.058-3.165.064-4.717-.002-1.333-.008-2.663.055-3.995"/><path fill="#5A5A5A" d="M81.653 159.248q-.69-.432-1.377-.873c-1.218-.783-2.54-1.653-2.86-3.241-.179-.893-.016-1.919.473-2.676.435-.673 1.002-1.162 1.639-1.607 3.746-2.615 7.891-4.754 11.792-7.114 4.331-2.62 8.57-5.516 12.974-7.986.666-.374 1.499-.87 2.246-1.01 2.118-.398 4.162-.052 6.17.714 2.69 1.025 5.162 2.72 7.638 4.214l10.743 6.466c3.152 1.876 7.041 3.616 9.906 5.847 1.073.835 1.937 1.864 2.106 3.313.244 2.086-.954 3.591-2.084 5.116-.129 1.52-.291 3.05-.328 4.576-.036 1.468.084 3.032-.098 4.484-.054.433-.163.873-.395 1.24-.218.346-.533.586-.931.64-.545.075-1.667-.314-2.028-.755-.494-.604-.225-2.464-.15-3.24-.094-1.352.007-2.807.017-4.168a282 282 0 0 0-8.038 5.291c-4.509 3.107-9.057 6.814-14.472 7.845.011 1.789.329 8.38-.247 9.618-.375.265-.697.483-1.158.516-.523.037-.985-.088-1.38-.462-.455-.429-.534-.831-.587-1.454l.364.667c.051-.352.081-.707.116-1.061.061-.649.003-1.334-.011-1.988.044-1.558.015-3.126.014-4.686-.051-.499-.035-.999-.089-1.502l-.275-.142c-4.227-1.686-8.065-3.892-12-6.216-1.783-1.052-3.596-2.049-5.357-3.14-2.946-1.824-5.817-3.758-8.9-5.321l-.016.11-.024.182c-.235 1.7.142 4.918-.526 6.275-.174.353-.456.629-.834.717-.713.165-1.364-.302-1.937-.68-.064-2.834-.064-5.673-.096-8.509"/><path fill="#5A5A5A" d="m137.108 163.188.274-.191c.581 1.85-.514 5.414.314 7.542l.041.11c-.223-.136-.404-.202-.481-.488-.228-.844-.057-1.925-.166-2.805-.093-1.352.008-2.807.018-4.168"/><path fill="#fff" d="M82.278 159.524c.755.334 1.437.823 2.13 1.28-.126 2.185-.182 4.373-.33 6.557-.241.192-.585.403-.906.375-.183-.016-.34-.064-.467-.206-.745-.834-.426-6.49-.427-8.006m57.793 1.664.1.106c.069 1.138-.095 2.374-.125 3.522-.04 1.487.057 3.083-.093 4.554-.038.372-.073.83-.392 1.06-.481.346-1.07.161-1.601.067-.766-.968-.372-6.167-.342-7.732a32 32 0 0 0 2.453-1.577m-28.364 16.286c.074-.517.091-1.053.132-1.575.543.094 1.25.088 1.748.329.415.199.403.429.523.844l-.037.194c-.297 1.706.636 7.521-.62 8.458-.17.126-.326.14-.533.113-.366-.048-.906-.453-1.047-.805-.105-.266-.132-.599-.169-.884.061-.649.003-1.335-.011-1.988.044-1.559.015-3.127.014-4.686m-4.455-42.167c1.88-.114 3.521.15 5.266.924 1.788.793 3.432 1.937 5.107 2.959l9.088 5.556a543 543 0 0 0 8.427 4.923c1.995 1.153 4.354 2.278 6.065 3.869.558.52 1.012 1.23 1.037 2.039.032 1.03-.637 2.009-1.296 2.703-1.133 1.192-3 1.992-4.391 2.823a340 340 0 0 0-5.176 3.173c-4.386 2.758-8.715 6.214-13.351 8.452-1.489.718-2.795 1.07-4.434 1.068-.588-.035-1.187-.173-1.751-.347-3.625-1.115-6.997-3.217-10.274-5.141-4.005-2.353-7.947-4.788-11.923-7.191l-5.991-3.602c-1.222-.727-2.533-1.398-3.68-2.246-.633-.467-1.254-1.022-1.627-1.744.007-.268.022-.44.14-.685.258-.534.895-1.015 1.36-1.331 4-2.717 8.342-5.009 12.468-7.519 4.204-2.558 8.329-5.397 12.625-7.771a9 9 0 0 1 2.311-.912"/><path fill="#5A5A5A" d="m102.383 152.246.371-.809v.127c.002.382.032.625.175.975.011 2.608.198 4.833 1.269 7.202.821 1.367 1.892 2.345 3.313 2.957 2.092.9 4.506.754 6.562-.186 1.455-.665 2.693-1.691 3.293-3.281l.338.273c-.407 1.397-1.502 2.423-2.695 3.094-2.111 1.19-4.714 1.663-7.026.898-1.683-.557-3.316-1.741-4.165-3.404-1.208-2.128-1.887-5.391-1.435-7.846"/><path fill="#5A5A5A" d="M112.125 144.498c.187-.155.326-.252.541-.355.243-.117.341-.254.521-.453.655-.72 1.623-1.165 2.578-1.156.345.003.557.045.83.265-.053.302-.118.427-.378.591-.245.155-.525.274-.786.397-.288.484-.525.879-.944 1.248l-.147.134c.829.802 1.693 1.397 2.01 2.59.759.263 1.428.667 1.825 1.43q.06.115.11.236a2.7 2.7 0 0 1 .188 1.025 3 3 0 0 1-.018.262 3 3 0 0 1-.115.511 5.3 5.3 0 0 1-.36.858c-.027 1.981.328 5.687-.276 7.423l-.339-.273c-.6 1.59-1.838 2.616-3.292 3.281-2.057.94-4.47 1.086-6.562.186-1.422-.612-2.493-1.59-3.314-2.956-1.07-2.37-1.257-4.595-1.269-7.203-.142-.35-.172-.592-.175-.974v-.128l-.371.809c.038-.477.193-1.083.094-1.545-.243-1.147-1.444-2.19-1.012-3.482.106-.317.327-.44.59-.582q.255-.141.505-.295c.154-.584.34-1.489.871-1.829.51-.328 1.253-.21 1.797-.057.497.224.837.53 1.234.91 1.195-.956 2.406-1.128 3.742-1.733.508.272 1.054.522 1.529.853-.229.167-.431.159-.696.199-.183.028-.114.009-.283.125.103.268.169.425.376.616l.201-.055c.186-.277.357-.545.621-.746z"/><path fill="#fff" d="M105.441 148.027c.073.036.15.064.22.106.293.176.415.385.501.709-.21.372-.305.353-.679.499l-.182.065c-.048-.144-.079-.222-.109-.381-.09-.465.032-.624.249-.998m7.259 3.547.455.175c.214.434-.04.95-.168 1.41-.324-.122-.356-.124-.551-.418-.046-.43.118-.775.264-1.167"/><path fill="#5A5A5A" d="M107.439 147.844c.023-.387.029-.727.183-1.088l.139.211c.137.205.26.325.464.46.142.321.248.504.21.867l-.228.416-.164.031-.429-.917z"/><path fill="#fff" d="M108.35 146.284q.073-.536.123-1.076c.259-.285.376-.248.739-.301.107.158.317.348.282.552-.036.215-.109.293-.225.461-.197.287-.23.438-.258.786.243.534.452 1.088.545 1.676-.203.061-.084.053-.355-.056-.414-.508-.551-1.063-.661-1.713-.039-.225.011-.099-.19-.329m-5.066.129-.266-.313c-.023-.337-.053-.438.17-.713.413-.511 1.171-.598 1.753-.568.502.308.92.631 1.35 1.041-.343.725-.587 1.358-.742 2.159-.925-.574-1.099-1.288-2.265-1.606"/><path fill="#5A5A5A" d="M112.125 144.498c.187-.155.326-.252.541-.355.243-.117.341-.254.521-.453.655-.72 1.623-1.165 2.578-1.156.345.003.557.045.83.265-.053.302-.118.427-.378.591-.245.155-.525.274-.786.397-.288.484-.525.879-.944 1.248l-.147.134c.829.802 1.693 1.397 2.01 2.59.759.263 1.428.667 1.825 1.43q.06.115.11.236a2.7 2.7 0 0 1 .188 1.025 3 3 0 0 1-.018.262 3 3 0 0 1-.115.511 5.3 5.3 0 0 1-.36.858c-.027 1.981.328 5.687-.276 7.423l-.339-.273c.286-1.667.194-3.411.192-5.099-.109-.617-.095-1.26-.112-1.887a8.3 8.3 0 0 1-1.44 1.079c-3.066 1.758-7.684 1.575-10.748-.095-.678-.369-1.414-1.337-2.053-1.539-.257.241-.222.501-.276.849-.142-.35-.172-.592-.175-.974v-.128l-.371.809c.038-.477.193-1.083.094-1.545-.243-1.147-1.444-2.19-1.012-3.482.106-.317.327-.44.59-.582q.255-.141.505-.295c.154-.584.34-1.489.871-1.829.51-.328 1.253-.21 1.797-.057l-.287.363c-.582-.03-1.34.058-1.754.568-.222.275-.192.376-.17.713l.267.313c.098.372.144.413.415.678.236.278.465.548.733.794.184.17.286.322.414.539l-.046.184c-.285.091-.362.04-.52.323l.116.289.456.108c.136.282.082.429.015.734-.238.262-.353.449-.374.825-.009.157.01.307.025.462q.065-.069.125-.14c.193-.245.257-.464.358-.759.243.031.32.165.503.329.18-.19.218-.292.31-.536h.069c.109.583.114.786.57 1.175l-.063.398.191.265c.271-.167.063-.423.394-.436.31.281.751.82 1.14.906l.16-.408.194.072.061.152c.197.481.405.844.726 1.243.15.165.241.212.456.259 2.145.471 4.861-.208 6.656-1.522.342-.25.77-.582.843-1.041-.137-.253-.302-.523-.398-.796-.121-.347.008-.55.158-.853.177-.251.152-.439.15-.743-.379-.01-.723-.013-1.09-.13-.013-.088-.028-.217-.064-.296-.112-.244-.24-.288-.459-.38-.269.191-.455.333-.778.404-.377-.44.149-1.334-.113-1.936a2 2 0 0 1-.529-.269l-.042-.271.424.265.194-.076c-.018-.052-.03-.107-.055-.156-.157-.313-.801-.453-1.115-.561l-.28-.152.146-.217c-.338-.091-.513-.147-.787-.393z"/><path fill="#fff" d="m112.572 144.746.127-.015c.273-.033.596-.033.769-.29.447-.661.45-1.095 1.286-1.373.371-.123.72-.116 1.103-.092l.015-.013-.068.195-.156.07c-.456.209-.779.399-1.13.771-.282.828.338.557-.702 1.308l-.457-.168c-.338-.091-.513-.147-.787-.393m-7.706 5.316c-.171-.131-.31-.29-.468-.435-.232-.212-.231-.296-.539-.268l-.043.229c.248.268.439.434.478.829-.137.306-.155.392-.418.575-.424-.101-.742-.377-1.043-.702-.505-.546-.869-1.461-.862-2.227.003-.366.1-.757.397-.981.419-.317.886-.126 1.329.009.237.278.465.548.733.794.184.17.286.322.414.539l-.046.184c-.285.091-.362.04-.519.323l.115.289.457.108c.135.282.081.43.015.734m-1.938 2.477c.054-.349.018-.608.275-.85.639.202 1.375 1.171 2.053 1.54 3.064 1.669 7.682 1.853 10.748.095a8 8 0 0 0 1.44-1.08c.017.627.003 1.27.112 1.888.002 1.688.094 3.431-.191 5.099-.601 1.59-1.838 2.616-3.293 3.281-2.056.94-4.47 1.086-6.562.185-1.422-.611-2.492-1.59-3.314-2.956-1.07-2.369-1.257-4.594-1.268-7.202"/></svg>