<svg width="12" height="7" viewBox="0 0 12 7" fill="none" xmlns="http://www.w3.org/2000/svg">
<path d="M1.61842 0.47137L1.61841 0.471358C1.47978 0.330173 1.29078 0.25 1.09272 0.25C0.894662 0.25 0.705661 0.330173 0.567033 0.471358C0.428558 0.612389 0.351562 0.802711 0.351562 1.00022C0.351562 1.19773 0.428558 1.38806 0.567033 1.52909L5.47578 6.52843C5.47581 6.52846 5.47584 6.52849 5.47588 6.52853C5.54445 6.59842 5.62612 6.65411 5.71635 6.69221C5.80663 6.73032 5.90356 6.75 6.00156 6.75C6.09956 6.75 6.1965 6.73032 6.28678 6.69221C6.377 6.65411 6.45867 6.59842 6.52725 6.52853C6.52728 6.52849 6.52731 6.52846 6.52735 6.52843L11.4361 1.52909C11.5047 1.45922 11.5589 1.37652 11.5958 1.28583C11.6326 1.19515 11.6516 1.09812 11.6516 1.00022C11.6516 0.902328 11.6326 0.80529 11.5958 0.71461C11.5589 0.623924 11.5047 0.541227 11.4361 0.471358C11.3675 0.401482 11.2858 0.345806 11.1955 0.307735C11.1053 0.269658 11.0084 0.25 10.9104 0.25C10.8124 0.25 10.7155 0.269658 10.6253 0.307734C10.535 0.345806 10.4533 0.401483 10.3847 0.47136L10.3847 0.47137L6.00156 4.93601L1.61842 0.47137Z" fill="#000000" stroke="#000000" stroke-width="0.5"/>
</svg>
