<svg width="32" height="32" viewBox="0 0 32 32" fill="none" xmlns="http://www.w3.org/2000/svg">
<path d="M0.680808 2.01738L14.7435 16.08L0.680808 30.1427C0.310564 30.5129 0.310564 31.1071 0.680807 31.4773C1.05105 31.8476 1.64524 31.8476 2.01548 31.4773L16.0781 17.4147L30.1408 31.4773C30.511 31.8476 31.1052 31.8476 31.4754 31.4773C31.8457 31.1071 31.8457 30.5129 31.4754 30.1427L17.4128 16.08L31.4754 2.01738C31.8194 1.67346 31.8194 1.05294 31.4754 0.709027C31.1052 0.338784 30.511 0.338784 30.1408 0.709022L30.1396 0.710244L30.1395 0.710275L16.0769 14.7441L2.01548 0.6827C1.64524 0.312456 1.05105 0.312456 0.680808 0.6827C0.310564 1.05294 0.310564 1.64713 0.680808 2.01738Z" fill="#0E1014" stroke="#0E1014" stroke-width="0.1"/>
</svg>
