<svg width="18" height="13" viewBox="0 0 18 13" fill="none" xmlns="http://www.w3.org/2000/svg">
<path fill-rule="evenodd" clip-rule="evenodd" d="M1.20078 0C1.02839 0 0.86306 0.0684821 0.741162 0.190381C0.619263 0.312279 0.550781 0.477609 0.550781 0.65V11.7C0.550781 12.0448 0.687745 12.3754 0.931542 12.6192C1.17534 12.863 1.506 13 1.85078 13H16.1508C16.4956 13 16.8262 12.863 17.07 12.6192C17.3138 12.3754 17.4508 12.0448 17.4508 11.7V0.65C17.4508 0.477609 17.3823 0.312279 17.2604 0.190381C17.1385 0.0684821 16.9732 0 16.8008 0H1.20078ZM9.00078 6.91844L2.87209 1.3H15.1295L9.00078 6.91844ZM1.85078 11.7V2.12794L8.56122 8.27937C8.68114 8.38946 8.838 8.45054 9.00078 8.45054C9.16357 8.45054 9.32043 8.38946 9.44034 8.27937L16.1508 2.12794V11.7H1.85078Z" fill="black"/>
</svg>
