<svg width="220" height="200" viewBox="0 0 220 200" fill="none" xmlns="http://www.w3.org/2000/svg">
<path d="M16.2305 138.641C16.1202 138.518 16.013 138.392 15.909 138.263C13.2178 134.941 10.9486 130.454 9.50904 126.373C6.69569 118.397 5.59758 109.98 4.13945 101.656C2.3506 91.4443 -0.03399 82.5495 0.869685 71.9906C2.13099 57.2529 8.48436 43.684 19.3045 34.1753C27.3309 27.1215 36.3388 21.3755 44.8815 15.0659C50.5297 10.8942 55.4595 5.84594 61.8427 2.84541C66.4084 0.699374 71.3392 -0.385407 76.3396 0.124596C82.5242 0.755424 88.9099 3.57855 93.5525 7.988C95.0712 9.4305 96.3686 11.0837 97.6704 12.7385C98.7214 14.3386 99.7546 15.9603 100.673 17.65C96.5681 19.9804 92.069 21.7467 87.8161 23.7703C78.7196 28.138 69.6024 32.4571 60.4645 36.7274L35.3675 48.8329C30.149 51.4105 24.963 54.1733 19.6523 56.5258C18.8245 56.2271 18.0447 55.8255 17.1665 56.1126L17.117 56.2358L17.3796 56.4359L17.3073 56.4108C17.9816 56.6921 18.6953 56.9814 19.3218 57.3687C19.6831 60.4155 19.5559 63.6796 19.6273 66.7571L20.0685 84.5414L21.0847 120.374C21.2114 125.433 21.4345 130.497 21.4488 135.557C19.7568 136.6 18.0274 137.817 16.2305 138.641Z" fill="#F1F1F1"/>
<path d="M106.721 15.0144C110.525 16.6261 114.265 18.4023 118.043 20.0819C133.29 26.9095 148.482 33.8724 163.617 40.9706L184.74 50.5912C189.423 52.6952 194.25 54.6503 198.78 57.1038C199.275 56.9029 199.843 56.6118 200.374 56.8368C200.417 56.855 200.456 56.8823 200.497 56.905C200.526 57.1712 200.569 57.1022 200.423 57.2899C200.069 57.7421 199.417 57.8653 198.904 58.0316C199.017 61.2084 198.929 64.4102 198.917 67.59L198.9 81.5538L198.929 116.548L198.874 130.741C198.874 132.669 199.128 135.6 198.796 137.411C199.851 137.048 200.663 137.707 201.604 138.214C203.736 139.365 205.854 140.545 207.958 141.753L216.463 146.371C217.476 146.918 218.698 147.362 219.634 148.017C219.857 148.173 219.915 148.358 220 148.614L219.91 148.823C218.567 148.988 209.329 143.518 207.62 142.494C206.773 143.994 205.887 145.468 204.962 146.915C204.038 148.363 203.076 149.782 202.076 151.174C201.077 152.565 200.041 153.925 198.97 155.256C197.899 156.586 196.794 157.884 195.654 159.149C194.136 160.857 192.49 162.456 190.885 164.072C185.369 169.547 179.656 174.781 173.744 179.775C167.751 184.908 161.79 190.075 155.197 194.351C152.035 196.403 148.716 198.308 145.105 199.31C140.76 200.514 135.586 199.993 131.239 198.895C126.3 197.648 121.574 195.478 116.929 193.355C113.631 191.847 110.315 190.33 107.063 188.714C102.797 186.595 98.6171 184.298 94.3276 182.228C92.3066 181.252 90.2249 180.384 88.1713 179.486C85.7156 178.413 83.0695 177.208 80.5091 176.484C78.8706 176.866 77.122 176.81 75.4526 176.885C73.0551 176.984 70.6599 177.123 68.2668 177.303C61.5514 177.851 54.8031 179.135 48.0618 179.148C47.3789 179.153 46.6965 179.134 46.0148 179.093C45.3331 179.052 44.6534 178.988 43.9754 178.9C43.2975 178.813 42.6229 178.703 41.9516 178.571C41.2805 178.438 40.614 178.283 39.9521 178.105C32.6712 176.095 26.0442 171.886 22.2189 164.867C18.3386 157.747 18.2963 149.476 20.2888 141.721C19.0099 141.015 17.8077 140.188 16.6138 139.337C14.4648 140.475 1.0865 148.726 0.118718 148.748L0 148.59L0.0504822 148.362C1.02602 147.245 14.0814 139.928 16.2319 138.641C18.0288 137.817 19.7581 136.6 21.4502 135.557C21.4359 130.497 21.2128 125.433 21.0861 120.374L20.0699 84.5414L19.6287 66.7571C19.5573 63.6797 19.6845 60.4155 19.3232 57.3687C18.6967 56.9814 17.983 56.6922 17.3087 56.4109L17.381 56.436L17.1183 56.2358L17.1679 56.1126C18.0461 55.8255 18.8259 56.2271 19.6537 56.5259C24.9644 54.1733 30.1504 51.4105 35.3689 48.833L60.4658 36.7275C69.6038 32.4571 78.721 28.1381 87.8175 23.7704C92.0704 21.7468 96.5695 19.9804 100.674 17.6501C102.728 17.1401 104.756 15.8462 106.721 15.0144Z" fill="#5A5A5A"/>
<path d="M191.931 104.536C192.641 104.89 193.707 105.236 194.065 106.016C193.979 106.476 193.804 106.553 193.482 106.863L191.881 107.938C191.86 106.8 191.882 105.673 191.931 104.536Z" fill="white"/>
<path d="M30.7207 118.877C32.0153 120.74 31.8157 126.671 31.8864 129.117L31.7384 129.122C30.8752 127.432 30.884 121.132 30.7207 118.877Z" fill="white"/>
<path d="M191.275 134.211C191.712 134.844 191.372 138.282 191.299 139.197C190.886 138.889 190.546 138.543 190.189 138.167C189.694 137.387 189.479 136.534 189.215 135.645L191.275 134.211Z" fill="white"/>
<path d="M110.551 117.069L112.029 117.571C112.061 119.36 112.077 121.053 111.79 122.825C111.746 122.859 111.708 122.902 111.659 122.927C111.394 123.059 111.305 123.022 111.071 122.891C110.426 121.749 110.584 118.512 110.551 117.069Z" fill="white"/>
<path d="M165.121 147.86C166.074 148.216 166.763 148.28 167.752 148.181C167.493 149.862 167.253 151.546 167.032 153.234C166.877 153.598 166.752 153.704 166.455 153.927C166.285 153.942 166.196 153.997 166.053 153.875C165.328 153.258 165.221 149.045 165.121 147.86Z" fill="white"/>
<path d="M21.263 136.469C21.6311 136.94 21.5602 140.654 21.5753 141.487C20.7249 141.094 19.9181 140.578 19.1087 140.099C18.4917 139.683 17.8387 139.313 17.2031 138.928C18.5627 138.12 19.916 137.3 21.263 136.469Z" fill="white"/>
<path d="M31.7392 141.633C32.2483 142.151 32.5207 142.842 33.1097 143.317C34.4789 144.421 36.3923 145.089 38.1089 144.842C40.1304 144.551 41.5164 143.305 42.6868 141.644C43.1411 142.208 43.5237 142.732 43.7498 143.44C42.791 144.265 41.8004 144.745 40.615 145.09C38.0898 145.824 33.5377 145.912 31.2504 144.419C30.8941 144.187 30.713 143.941 30.6094 143.506C30.6905 142.724 31.2604 142.187 31.7392 141.633Z" fill="white"/>
<path d="M91.3966 81.9838C91.8678 81.4365 91.9149 80.6288 92.5452 80.356L92.5627 80.8118C92.7352 81.2224 92.7761 81.4516 93.1296 81.7125C93.3713 81.5425 93.4792 81.293 93.6189 81.0339L93.819 80.9461C94.0732 81.1047 94.1388 81.0865 94.261 81.3839L94.1816 81.6983L94.4338 81.9063L94.6879 82.1316C94.607 82.5594 94.5454 82.9723 94.5061 83.407C94.4591 83.9273 94.3511 84.2641 93.956 84.5959C92.9877 85.4092 91.0906 85.3925 89.9161 85.2072C89.1261 85.0827 88.4538 84.7704 87.7501 84.3876C87.812 84.014 87.8498 83.6373 87.8918 83.2608L87.6191 82.9641C87.987 82.622 88.747 82.6077 89.2165 82.5469C90.1137 82.7703 90.4252 82.2498 91.1887 82.0377C91.2578 82.0187 91.3274 82.0018 91.3966 81.9838Z" fill="white"/>
<path d="M91.3966 81.9838C91.8678 81.4365 91.9149 80.6288 92.5452 80.356L92.5627 80.8118C92.7352 81.2224 92.7761 81.4516 93.1296 81.7125C93.3713 81.5425 93.4792 81.293 93.6189 81.0339L93.819 80.9461C94.0732 81.1047 94.1388 81.0865 94.261 81.3839L94.1816 81.6983L94.4338 81.9063L94.6879 82.1316C93.4967 83.3486 92.0626 83.5786 90.469 83.5458C89.5989 83.5281 88.749 83.4136 87.8918 83.2608L87.6191 82.9641C87.987 82.622 88.747 82.6077 89.2165 82.5469C90.1137 82.7703 90.4252 82.2498 91.1887 82.0377C91.2578 82.0187 91.3274 82.0018 91.3966 81.9838Z" fill="#5A5A5A"/>
<path d="M195.198 129.373C196.179 129.789 197.135 130.383 198.08 130.889L198.079 136.44C197.457 136.142 196.854 135.796 196.247 135.468C195.021 134.792 193.789 134.043 192.643 133.228C193.894 132.012 194.698 131.12 195.198 129.373Z" fill="white"/>
<path d="M106.419 93.2495C106.804 93.9541 106.557 99.8618 106.548 101.096C105.551 100.498 104.564 99.8798 103.573 99.2699L101.867 98.2612L101.826 96.103C103.491 95.4257 104.958 94.3079 106.419 93.2495Z" fill="white"/>
<path d="M80.4776 102.895C80.7723 103.409 80.5627 105.859 80.5494 106.58C77.7967 108.084 75.1411 109.784 72.4197 111.35C72.3173 110.229 72.3313 109.071 72.293 107.943C75.0117 106.244 77.7399 104.561 80.4776 102.895Z" fill="white"/>
<path d="M35.9657 143.943C35.1636 143.653 34.1237 142.863 33.4523 142.299C29.3111 138.825 29.0058 131.898 28.4512 126.772C29.4167 128.125 30.5273 129.384 31.6008 130.641C31.6572 132.337 31.713 134.018 31.9108 135.704C32.354 138.853 33.7275 141.762 35.9657 143.943Z" fill="white"/>
<path d="M34.0117 122.812C34.7276 124.341 35.413 125.978 36.3954 127.336C36.8804 128.454 37.25 129.554 37.5199 130.751C38.4074 134.977 38.5008 139.102 37.8292 143.367C37.375 141.979 37.0579 140.548 36.6653 139.14C36.4965 137.918 36.4825 136.669 36.195 135.466C35.8307 133.941 35.2345 132.512 34.9668 130.953C34.6513 129.113 34.6553 127.209 34.4472 125.353C34.3515 124.499 34.0475 123.665 34.0117 122.812Z" fill="white"/>
<path d="M28.1849 131.995C28.359 132.22 29.1157 135.832 29.432 136.658C27.2567 137.836 25.1703 139.242 23.0909 140.598L22.4744 140.969L22.3114 140.9C22.2009 139.285 22.2002 137.661 22.1719 136.043C24.1526 134.661 26.2658 133.47 28.1849 131.995Z" fill="white"/>
<path d="M46.2695 124.425C46.3344 126.392 45.3853 131.774 44.9301 133.834C44.0519 137.807 42.8019 141.305 39.4108 143.518C39.4031 143.47 39.383 143.422 39.3873 143.372C39.492 142.139 41.3362 136.996 41.823 135.34C42.4523 133.197 42.7536 130.909 43.6152 128.847C44.283 127.25 45.2867 125.818 46.2695 124.425Z" fill="white"/>
<path d="M102.627 87.9519C102.81 88.0183 102.816 88.0754 102.93 88.2322C103.007 88.638 103.088 89.0919 102.959 89.4972C102.673 90.3919 92.6086 96.0982 91.1758 96.8819C89.47 95.5263 82.7375 92.1456 80.5992 91.2665C80.3368 91.1832 80.1913 91.1026 79.9817 90.916C79.8503 90.4461 80.0706 89.9475 80.2081 89.4957C83.5448 91.2298 87.6665 92.5985 90.6699 94.7678C93.1965 94.1565 99.6561 89.433 102.627 87.9519Z" fill="white"/>
<path d="M32.3848 135.965C31.8019 132.64 32.4174 129.158 32.4567 125.809C32.4775 124.047 32.2751 122.383 31.917 120.664C31.7613 119.916 31.6343 119.075 31.3784 118.363C31.3611 118.315 31.3396 118.269 31.3203 118.222L31.3797 118.249L31.3624 118.118L31.7548 118.59C33.5545 122.452 33.8873 126.965 34.6798 131.14C34.9252 132.433 35.3183 133.699 35.6306 134.976C35.9714 136.371 36.2466 137.78 36.5999 139.172C36.6918 140.774 36.8591 142.3 37.1816 143.872L36.4264 143.961C34.5346 141.607 33.2665 138.89 32.3848 135.965Z" fill="white"/>
<path d="M95.1499 84.0486C97.5103 85.0289 99.798 86.2771 102.102 87.4C100.676 88.025 99.2969 89.0082 97.9657 89.8321C95.6722 91.2731 93.3596 92.6794 91.0279 94.0509C89.3827 93.1943 87.7661 92.3242 86.0879 91.5374C84.3575 90.6977 82.6186 89.8784 80.8711 89.0796C83.1491 87.9385 85.42 86.611 87.5813 85.2404C87.7025 86.1423 87.7839 87.1342 88.0906 87.989C88.3483 88.7068 88.7397 89.2152 89.4188 89.5195C90.4425 89.9783 91.8122 89.9484 92.8234 89.4664C94.8179 88.5154 94.3947 86.0381 95.087 84.2091C95.1073 84.1551 95.1289 84.102 95.1499 84.0486Z" fill="white"/>
<path d="M38.3502 120.554C38.6084 119.589 39.1939 118.813 39.5432 117.894C39.9521 116.82 39.7568 113.925 40.649 113.267C40.9848 113.351 41.096 113.513 41.2752 113.823C42.3472 115.674 43.2202 121.668 43.0807 123.844L43.0281 124.1C42.9765 124.358 42.9633 124.595 42.9525 124.858C42.9407 125.15 42.9297 125.413 42.7276 125.641C42.6447 125.735 42.5764 125.767 42.4767 125.826C42.3392 128.609 42.1577 131.509 41.5274 134.22C40.7925 137.382 39.5414 140.416 38.5343 143.489L38.384 143.593C38.0893 143.923 37.8772 144.281 37.452 144.381C37.2687 144.181 37.2439 144.142 37.1813 143.872C36.8588 142.3 36.6915 140.774 36.5996 139.172L36.6645 139.139C37.0571 140.548 37.3741 141.979 37.8284 143.367C38.5 139.102 38.4066 134.976 37.5191 130.751C37.2492 129.554 36.8796 128.454 36.3945 127.336C36.7398 127.083 36.7308 126.731 36.8065 126.33L36.7792 125.795C36.7727 125.205 36.7519 124.648 36.8811 124.069C37.5376 123.429 38.0162 121.469 38.3502 120.554Z" fill="#5A5A5A"/>
<path d="M40.2276 122.291C40.4993 123.267 40.8489 124.506 40.7292 125.528C39.7791 125.317 40.1958 124.795 39.5137 124.581C39.7085 123.795 39.9571 123.05 40.2276 122.291Z" fill="white"/>
<path d="M38.8581 120.837L39.4348 119.684C38.7554 123.134 38.8168 126.566 38.3703 130.023C38.3353 130.294 38.3295 130.557 38.1086 130.719L37.8895 130.428C37.8409 129.189 37.3091 128.179 37.3599 126.8C37.3692 126.526 37.3644 126.285 37.3209 126.014C37.1641 125.973 37.0326 125.935 36.8874 125.857C36.8506 125.838 36.815 125.816 36.7787 125.795C36.7722 125.205 36.7514 124.648 36.8806 124.069C37.5372 123.429 38.0157 121.468 38.3498 120.554C38.315 120.94 38.3057 121.346 38.197 121.718L37.9729 121.54L38.4164 121.596C38.5246 121.159 38.5331 121.128 38.8581 120.837Z" fill="white"/>
<path d="M36.8806 124.069C37.5372 123.429 38.0157 121.468 38.3498 120.554C38.315 120.94 38.3057 121.346 38.197 121.718L37.9729 121.54L38.4164 121.596C38.5246 121.159 38.5331 121.128 38.8581 120.837C38.1915 122.661 37.6146 124.608 37.416 126.56C37.3982 126.735 37.4178 126.663 37.3599 126.8C37.3692 126.526 37.3644 126.285 37.3209 126.014C37.1641 125.973 37.0326 125.935 36.8874 125.857C36.8506 125.838 36.815 125.816 36.7787 125.795C36.7722 125.205 36.7514 124.648 36.8806 124.069Z" fill="#5A5A5A"/>
<path d="M40.7291 125.528C40.7972 125.785 40.8273 126.199 41.0431 126.336C41.3208 125.178 41.0306 123.558 40.982 122.343C40.8904 120.041 40.7231 116.894 40.855 114.627C41.1403 115.527 41.3887 116.439 41.6 117.361C41.8114 118.284 41.985 119.215 42.1209 120.153C42.2569 121.091 42.3547 122.034 42.4141 122.981C42.4737 123.928 42.4948 124.876 42.4774 125.826C42.34 128.609 42.1584 131.509 41.5281 134.22C40.7932 137.382 39.5422 140.416 38.535 143.489L38.3848 143.593C39.1295 141.804 38.7243 136.481 38.7536 134.299C38.7957 131.158 38.827 127.654 39.5136 124.581C40.1957 124.795 39.779 125.317 40.7291 125.528Z" fill="white"/>
<path d="M131.754 78.5735L131.838 78.6293C132.106 79.3196 131.655 83.5448 131.592 84.5923C129.42 85.3907 127.336 86.5609 125.26 87.6018C121.616 89.4292 118.002 91.268 114.251 92.8427C113.084 92.2221 111.895 91.6541 110.683 91.1388C109.86 90.8058 109.048 90.447 108.246 90.0624C115.832 85.732 123.876 82.262 131.754 78.5735Z" fill="white"/>
<path d="M43.5348 144.534L43.6655 144.658C44.0458 147.263 43.1667 151.524 42.3406 154.023C41.8728 155.438 41.1909 156.478 39.869 157.116C38.2356 157.905 36.1485 157.979 34.4757 157.272C33.2903 156.77 32.7982 155.935 32.3117 154.764C31.0759 151.52 30.4111 148.159 30.4321 144.662C31.2502 145.132 32.0808 145.496 32.9765 145.765C33.1945 145.833 33.414 145.895 33.6349 145.951C33.8557 146.008 34.0778 146.058 34.3012 146.103C34.5244 146.147 34.7486 146.186 34.9738 146.219C35.1988 146.252 35.4245 146.279 35.6509 146.3C35.8773 146.321 36.104 146.336 36.331 146.346C36.5582 146.355 36.7854 146.358 37.0126 146.356C37.2398 146.353 37.4669 146.344 37.6937 146.33C37.9204 146.315 38.1467 146.295 38.3726 146.269C38.5985 146.242 38.8236 146.21 39.0479 146.172C39.2723 146.134 39.4957 146.09 39.718 146.04C39.9404 145.99 40.1614 145.935 40.3811 145.874C40.6008 145.812 40.8189 145.745 41.0354 145.672C41.252 145.6 41.4666 145.521 41.6795 145.437C41.8923 145.353 42.1031 145.264 42.3118 145.169C42.5204 145.074 42.7268 144.973 42.9308 144.867C43.1348 144.762 43.3361 144.651 43.5348 144.534Z" fill="white"/>
<path d="M81.3061 92.3533C84.3042 93.6633 87.5678 95.601 90.45 97.2389L90.5299 112.447C87.4477 110.888 84.3793 109.3 81.3246 107.682C81.4268 102.573 81.2708 97.4626 81.3061 92.3533Z" fill="white"/>
<path d="M100.895 91.9116L101.071 92.0354C101.289 93.5157 101.137 95.2318 101.138 96.737L101.184 105.762C97.9615 107.836 94.7265 109.887 91.4787 111.917L91.366 111.808C91.1183 110.557 91.2841 108.991 91.2706 107.701C91.224 104.352 91.2002 101.003 91.1992 97.6541C92.5369 97.0106 93.7937 96.1839 95.0713 95.419C97.0236 94.2701 98.965 93.101 100.895 91.9116Z" fill="white"/>
<path d="M131.302 85.4346L131.547 85.4882C131.666 86.0651 131.59 86.7205 131.58 87.3125C131.547 89.4591 131.297 91.8817 131.954 93.9357C128.745 95.6719 125.387 97.0983 122.083 98.6164C119.681 99.7199 117.205 100.739 115.089 102.396L114.824 102.61L114.693 102.546C114.562 101.595 114.645 100.547 114.648 99.5851C114.654 97.5953 114.682 95.6048 114.619 93.616C116.23 92.6664 118.112 91.994 119.794 91.1652L131.302 85.4346Z" fill="white"/>
<path d="M107.79 90.9365C109.381 91.0513 112.401 92.7809 113.948 93.5214L113.86 108.482C113.846 110.632 114.088 113.078 113.778 115.187C113.711 115.645 113.38 116.004 113.11 116.35C112.932 116.454 112.762 116.556 112.556 116.587C111.575 116.734 109.797 115.679 109.056 115.035C107.95 114.073 107.493 112.805 107.36 111.338C107.033 107.719 107.299 103.48 107.305 99.8059C107.308 97.3355 107.052 94.2493 107.354 91.8447C107.403 91.4537 107.557 91.2345 107.79 90.9365Z" fill="white"/>
<path d="M190.088 97.1958C190.207 97.2674 190.232 97.2714 190.335 97.3981C191.624 98.9802 191.124 106.147 191.025 108.48C184.067 113.069 176.71 116.938 169.942 121.865C168.695 121.445 167.493 120.937 166.28 120.419C165.347 120.013 164.426 119.631 163.459 119.326C166.152 116.847 170.338 114.941 173.512 113.228C175.804 111.992 178.039 110.644 180.35 109.445C181.908 108.636 183.737 108.019 185.161 106.983C185.438 106.782 185.53 106.681 185.624 106.337C186.108 104.57 185.82 101.513 186.186 99.4431L186.22 99.253C187.518 98.5857 188.808 97.9 190.088 97.1958Z" fill="white"/>
<path d="M163.087 120.192C164.914 120.297 167.781 122.103 169.818 122.71L169.786 136.786C169.78 139.327 169.998 142.201 169.56 144.69C169.405 145.576 169.086 146.062 168.394 146.574C167.715 146.843 167.082 147.002 166.368 147.128C164.89 146.443 163.38 145.662 162.229 144.444C161.828 139.143 162.256 133.708 162.511 128.406C162.64 125.727 162.588 122.82 163.087 120.192Z" fill="white"/>
<path d="M137.269 71.854C137.984 71.7607 138.549 72.0306 139.196 72.3074C142.32 73.6431 145.346 75.2355 148.411 76.7119C152.583 78.6863 156.764 80.6387 160.955 82.5689C167.563 85.5809 174.145 88.6542 180.702 91.7886C183.342 93.0534 187.454 94.6942 189.694 96.4788C188.53 97.0486 187.392 97.6812 186.248 98.2957L185.998 98.3935C185.258 98.3607 178.879 94.8914 177.527 94.2175C171.605 91.2667 165.581 88.6796 159.595 85.8985C156.901 84.6472 154.259 83.2621 151.586 81.9613C148.273 80.3493 144.935 78.8032 141.635 77.1611C139.969 76.3247 138.29 75.5194 136.597 74.7451C135.752 74.3607 134.709 74.091 133.967 73.5361L134.01 73.314C134.922 72.5562 136.18 72.2194 137.269 71.854Z" fill="white"/>
<path d="M114.699 104.902C116.899 105.84 119.021 107.421 121.13 108.599C126.15 111.401 131.189 114.121 136.16 117.029C135.984 119.964 136.105 123.045 136.128 125.992C136.137 127.239 136.224 128.523 136.104 129.765C135.804 129.824 135.558 129.603 135.291 129.457C130.95 127.1 126.631 124.699 122.333 122.254C119.39 120.545 116.513 118.69 113.496 117.128C113.846 116.658 114.196 116.177 114.365 115.599C115.016 113.37 114.686 107.467 114.699 104.902Z" fill="white"/>
<path d="M136.863 117.473C138.321 118.093 139.733 119.008 141.11 119.806L147.271 123.361C150.108 125.004 152.934 126.674 155.79 128.279C157.708 129.357 159.67 130.348 161.564 131.472C161.361 135.733 161.321 139.997 161.443 144.261C161.257 144.265 161.111 144.249 160.941 144.161C158.571 142.924 156.275 141.431 153.949 140.098L136.914 130.345C136.84 126.055 136.823 121.764 136.863 117.473Z" fill="white"/>
<path d="M155.566 106.191C156.112 106.196 168.866 113.019 170.385 113.831C168.374 114.97 165.166 116.728 163.496 118.321C162.997 118.797 162.621 119.343 162.407 120.022C161.792 121.961 161.696 128.238 161.59 130.574C159.532 129.473 157.488 128.343 155.459 127.184C149.396 123.652 143.352 120.032 137.17 116.739C141.626 112.363 149.941 108.754 155.566 106.191Z" fill="white"/>
<path d="M132.503 94.6931C133.802 94.7122 152.153 104.317 154.567 105.717C152.919 106.399 151.319 107.235 149.716 108.028C145.075 110.323 140.646 112.746 136.679 116.209C136.412 116.252 136.269 116.181 136.031 116.066C133.673 114.921 131.397 113.379 129.114 112.062C126.249 110.408 123.314 108.9 120.45 107.246C118.505 106.123 116.565 104.841 114.527 103.92C117.472 101.128 121.279 99.7947 124.872 98.1902C127.425 97.0477 129.969 95.882 132.503 94.6931Z" fill="white"/>
<path d="M133.448 74.2759C136.875 75.7054 140.181 77.3724 143.535 78.9722C148.588 81.3365 153.608 83.7747 158.596 86.2867C157.412 91.5737 155.995 97.4222 155.387 102.793C155.263 103.612 155.271 104.415 155.276 105.242C151.009 102.881 146.7 100.609 142.349 98.4245C139.947 97.2297 134.587 95.0805 132.817 93.5719C131.872 91.5589 132.357 82.3328 132.626 79.5903C132.817 77.8045 133.091 76.033 133.448 74.2759Z" fill="white"/>
<path d="M159.317 86.6829C161.012 87.3063 162.698 88.1642 164.358 88.9008C168.688 90.7736 172.959 92.7867 177.17 94.9402C179.918 96.3216 182.806 97.5701 185.455 99.1442C184.997 101.423 185.025 103.97 184.891 106.301C182.774 107.283 180.673 108.276 178.624 109.412C176.165 110.713 173.863 112.264 171.333 113.435C168.515 111.996 165.736 110.473 162.92 109.029C160.938 108.013 158.724 107.091 156.894 105.796C156.471 105.497 156.191 105.056 155.902 104.624C156.239 100.807 157.11 96.8771 157.878 93.1307C158.317 90.9911 158.679 88.7654 159.317 86.6829Z" fill="white"/>
<path d="M194.462 107.304C194.494 107.374 194.54 107.438 194.558 107.513C194.806 108.564 194.462 114.364 194.451 115.82C194.421 119.788 194.61 123.815 194.421 127.774C194.382 128.593 194.297 129.475 194.012 130.243C193.086 132.737 177.144 142.36 174.136 144.054C172.775 144.826 171.377 145.514 169.942 146.117C169.769 145.926 170.161 144.895 170.23 144.626C170.671 142.93 170.46 140.553 170.482 138.79C170.547 133.344 170.572 127.899 170.556 122.453C175.249 118.957 180.297 115.977 185.279 112.972L194.462 107.304Z" fill="white"/>
<path d="M35.5589 86.7153C35.5802 83.8919 35.3027 81.0204 35.1525 78.1992C35.0831 76.9005 34.8633 75.3763 35.1107 74.1067C35.5136 72.0368 36.529 69.9371 37.5284 68.1255C38.8964 65.6458 40.5796 63.2689 42.519 61.2538C46.5844 57.0294 52.6891 53.4152 58.5349 53.4554C61.6813 53.4774 64.8202 54.7327 67.0263 57.1296C68.7486 59.0004 69.9578 61.3085 70.4496 63.8672C70.8267 65.8301 70.715 67.8806 70.7175 69.8744C70.7107 72.1945 70.7417 74.514 70.8105 76.8331C71.365 91.4884 71.6805 106.149 71.757 120.816C62.6759 126.559 53.4476 132.022 44.3876 137.802C45.0719 135.652 45.6912 133.493 46.0743 131.257C46.4221 129.23 46.5899 127.17 46.9458 125.146C47.1148 124.185 47.6098 123.077 47.5615 122.122L47.4128 121.906C46.6112 122.091 44.8466 125.202 44.3165 126.073C43.905 126.761 43.5078 127.458 43.125 128.164C43.122 126.747 43.2031 125.251 43.0792 123.844C43.2187 121.668 42.3457 115.674 41.2737 113.823C41.0944 113.513 40.9833 113.351 40.6475 113.268C39.7553 113.925 39.9506 116.82 39.5417 117.895C39.1923 118.813 38.6069 119.589 38.3487 120.554C38.0147 121.469 37.5361 123.429 36.8796 124.07C36.7504 124.648 36.7711 125.205 36.7777 125.795L36.8049 126.331C36.3149 125.696 36.6775 125.198 36.3507 124.617C36.3131 121.088 36.0299 117.557 36.053 114.029C36.2621 112.639 35.776 110.894 36.5525 109.664C36.7065 106.774 36.3049 102.735 36.1657 99.7102C35.9671 95.4007 35.9433 91.0085 35.5589 86.7153Z" fill="white"/>
<path d="M36.5536 109.664C36.7199 113.294 36.8442 116.926 36.9265 120.559C36.942 121.651 37.0777 123.003 36.8807 124.069C36.7515 124.648 36.7722 125.205 36.7788 125.795L36.806 126.331C36.316 125.695 36.6786 125.198 36.3518 124.617C36.3142 121.088 36.031 117.557 36.0541 114.029C36.2632 112.639 35.7771 110.893 36.5536 109.664Z" fill="#5A5A5A"/>
<path d="M64.9038 88.3767C65.1772 88.3416 65.4692 88.3009 65.7447 88.3379C66.1506 88.3923 66.558 88.7189 66.7921 89.0602C67.1294 89.5519 67.2136 90.154 67.1164 90.7438C66.9844 91.5438 66.6196 91.8897 65.9998 92.3225C65.7281 92.342 65.4467 92.3687 65.1747 92.3497C64.7355 92.3188 64.2723 91.9677 64.0251 91.5941C63.7326 91.1523 63.6603 90.6121 63.7524 90.0887C63.8929 89.2889 64.3053 88.8431 64.9038 88.3767Z" fill="#5A5A5A"/>
<path d="M101.892 99.0972C103.436 99.9789 104.945 100.947 106.466 101.875C106.502 104.696 106.151 109.413 106.573 111.975C106.912 114.033 107.994 115.399 109.559 116.555C109.871 118.434 109.558 121.566 110.412 123.169C110.611 123.542 110.911 123.844 111.321 123.934C111.625 124 111.948 123.961 112.195 123.751C113.247 122.856 112.938 119.599 113.135 118.209L113.167 117.991C115.905 119.324 118.554 121.09 121.179 122.661C124.058 124.385 126.998 126.004 129.83 127.813C129.213 129.036 128.585 130.257 127.716 131.305C125.776 133.644 121.892 135.934 119.203 137.068C117.842 136.362 116.493 135.63 115.158 134.871C113.727 134.041 112.406 133.146 110.866 132.538C108.432 131.576 105.715 131.055 103.157 130.594C94.9358 129.114 86.2776 128.75 78.2693 131.635C71.7752 133.974 64.8632 139.396 61.7954 145.994C60.1007 149.639 59.3657 153.708 60.6443 157.628C63.2002 165.464 72.2237 172.233 79.0393 175.682C79.5379 175.934 80.0367 176.182 80.511 176.484C78.8726 176.866 77.124 176.81 75.4545 176.885C73.0571 176.984 70.6618 177.123 68.2688 177.302C61.5533 177.851 54.805 179.135 48.0638 179.148C47.3808 179.153 46.6985 179.134 46.0167 179.093C45.3351 179.052 44.6553 178.987 43.9774 178.9C43.2994 178.813 42.6248 178.703 41.9536 178.57C41.2825 178.438 40.616 178.283 39.954 178.105C32.6732 176.095 26.0461 171.886 22.2208 164.867C18.3405 157.747 18.2982 149.476 20.2907 141.721C20.9773 142.092 21.582 142.571 22.3901 142.353C22.4147 142.302 22.4384 142.251 22.4635 142.201C22.4968 142.134 22.5334 142.069 22.5649 142.001C22.9307 141.21 28.4803 138.09 29.6034 137.5C30.104 138.745 30.6524 139.895 31.3595 141.027C30.5692 141.783 30.1042 142.39 29.8788 143.523C29.2686 146.591 30.6303 153.843 32.3168 156.381C33.1131 157.58 34.266 158.155 35.6064 158.389C37.4262 158.707 39.8807 158.314 41.3714 157.121C43.3506 155.538 44.0079 150.779 44.2656 148.365C44.4514 146.624 44.8302 144.077 44.1752 142.434C43.9263 141.809 43.5028 141.288 43.1052 140.764C43.3531 140.174 43.5875 139.572 43.8644 138.997L61.7 128.015L68.236 123.921C69.1665 123.34 70.094 122.672 71.0578 122.162C71.2664 122.051 71.4517 122.021 71.6811 121.996C71.8551 122.075 71.9816 122.144 72.1759 122.137C72.3569 122.131 72.4346 121.976 72.5578 121.85C72.7265 120.582 72.5715 119.198 72.5445 117.916C72.5174 116.05 72.503 114.183 72.5012 112.317C74.9802 110.589 77.8456 108.636 80.5904 107.456C80.4952 108.158 80.3928 108.76 80.6172 109.443L80.8333 109.484C81.1513 109.219 81.2597 108.879 81.4157 108.499C82.2809 108.99 90.3949 113.141 90.444 113.2C90.6443 113.44 90.4965 114.081 90.7374 114.472C91.0214 114.502 90.9786 114.545 91.2393 114.363C91.3444 113.888 91.2265 113.445 91.1426 112.975C94.5239 110.992 97.7987 108.802 101.133 106.731L101.171 107.002C101.23 107.453 101.285 107.747 101.489 108.153L101.711 108.216C101.744 108.182 101.78 108.149 101.811 108.113C102.241 107.604 101.893 100.28 101.892 99.0972Z" fill="white"/>
<path d="M101.164 18.3966C102.848 17.6156 104.688 16.5549 106.456 16.0674C106.822 18.4947 106.54 22.804 106.537 25.4317C106.563 32.408 106.545 39.3841 106.483 46.3601C106.335 61.5817 106.682 76.8133 106.551 92.0359C105.013 93.1807 103.472 94.3266 101.803 95.2522C101.789 93.9673 101.782 92.6823 101.782 91.3972L103.635 90.3156C103.658 89.3675 103.688 88.4257 103.623 87.4787C102.013 86.2242 95.9856 83.9845 95.3315 83.0571C95.2937 83.0034 95.2444 82.6666 95.2434 82.6536C95.1777 81.8499 95.3909 81.415 94.8875 80.6792C94.714 81.066 94.6972 81.5971 94.4328 81.9062L94.1806 81.6981L94.26 81.3838C94.1378 81.0863 94.0722 81.1046 93.818 80.9459L93.618 81.0337C93.4782 81.2928 93.3703 81.5424 93.1287 81.7124C92.7751 81.4514 92.7343 81.2222 92.5617 80.8116L92.5442 80.3558C91.9139 80.6287 91.8669 81.4364 91.3956 81.9837C91.3265 82.0016 91.2569 82.0185 91.1877 82.0376C90.4242 82.2496 90.1127 82.7702 89.2155 82.5468C88.746 82.6076 87.986 82.6219 87.6182 82.964L87.8909 83.2606C87.8488 83.6371 87.811 84.0139 87.7491 84.3875L87.1394 84.5278C86.3158 85.6266 80.8934 88.2227 79.3239 89.0092L79.1286 91.3464C79.5971 91.614 80.0623 91.8958 80.5434 92.1369L80.6295 101.999C77.7776 103.495 75.1441 105.418 72.3302 106.978C72.1664 102.583 72.2043 98.1705 72.1079 93.7719L71.6401 77.6559L71.5191 70.4646C71.4893 67.9486 71.595 65.4481 71.0228 62.9842C70.9485 62.6553 70.8627 62.3299 70.7654 62.0079C70.6681 61.6858 70.5596 61.368 70.4399 61.0545C70.3202 60.7409 70.1896 60.4325 70.0482 60.1291C69.9068 59.8258 69.755 59.5284 69.5927 59.2371C69.4303 58.9457 69.2579 58.6611 69.0754 58.3831C68.8931 58.1053 68.7012 57.835 68.4997 57.5722C68.2982 57.3094 68.0878 57.0549 67.8684 56.8087C67.6491 56.5625 67.4214 56.3251 67.1853 56.0967C64.7533 53.7191 61.1327 52.5388 57.8553 52.6975C51.5791 53.0012 45.1771 56.8232 41.0324 61.6811C38.6247 64.5029 35.1348 70.0106 34.4246 73.8352C34.2573 74.736 34.3139 75.6698 34.3627 76.5806C34.4657 78.499 34.6147 80.4172 34.6975 82.3363C34.7544 83.6522 34.6502 85.1552 34.9319 86.4291C34.9357 92.4917 35.4382 98.5856 35.6939 104.644L35.9205 110.844C35.9531 111.876 35.8972 113.012 36.0527 114.029C36.0297 117.557 36.3129 121.088 36.3505 124.617C36.3455 124.944 36.2944 125.226 36.2318 125.545C35.4988 124.805 34.8868 123.196 34.3823 122.228C34.0139 121.436 33.5612 120.464 33.0135 119.803C32.5112 118.49 30.7386 114.961 29.8163 113.999L29.6626 114.133C29.5086 115.234 29.8844 116.612 29.9588 117.741L30.5831 128.406C29.7775 127.518 28.9329 125.843 27.8809 125.361L27.7129 125.502C27.5584 126.99 28.0459 129.453 28.2094 131.013C26.4128 132.615 24.1736 133.86 22.1686 135.162L20.0957 57.1664C22.8227 56.1728 25.4948 54.6011 28.103 53.2921C32.6665 50.9984 37.2461 48.7416 41.8419 46.5216L76.1284 30.2177C84.3942 26.2669 92.7726 21.9986 101.164 18.3966Z" fill="#F1F1F1"/>
<path d="M91.7493 74.7778C92.035 76.2349 92.1051 77.6377 92.1102 79.1222C92.6483 78.1776 93.3264 76.7962 94.3949 76.4659C94.5516 76.4176 94.6788 76.4231 94.8374 76.4535C95.0119 76.7713 94.9548 76.9643 94.8624 77.3059C94.6488 78.0948 94.3042 78.8388 94.1012 79.6349C94.3703 79.9667 94.6854 80.3014 94.8899 80.6792C94.7164 81.066 94.6996 81.5972 94.4352 81.9062L94.183 81.6982L94.2624 81.3838C94.1402 81.0864 94.0746 81.1046 93.8204 80.946L93.6204 81.0338C93.4806 81.2929 93.3727 81.5424 93.1311 81.7124C92.7775 81.4515 92.7367 81.2223 92.5641 80.8117L92.5466 80.3559C91.9163 80.6287 91.8693 81.4364 91.398 81.9837C91.2585 81.7463 91.2931 81.7688 91.3174 81.5113C91.5755 80.0785 91.9269 76.4244 91.2109 75.1464L91.7493 74.7778Z" fill="#5A5A5A"/>
<path d="M94.1949 77.3318C93.7768 78.4343 93.3263 79.9368 92.5633 80.8117L92.5457 80.3558C92.5032 79.4881 92.7476 78.9765 93.2967 78.3386C93.5902 77.9975 93.905 77.6755 94.1949 77.3318Z" fill="white"/>
<path d="M90.5958 75.243C90.6624 74.6002 90.6822 73.9271 91.1557 73.4604L91.3791 73.5353C91.6387 73.9136 91.6735 74.3295 91.7477 74.7779L91.2093 75.1465C91.9252 76.4245 91.5739 80.0786 91.3157 81.5113C91.2914 81.7688 91.2569 81.7464 91.3963 81.9838C91.3272 82.0017 91.2576 82.0187 91.1885 82.0377C90.425 82.2497 90.1135 82.7703 89.2163 82.5469C88.7468 82.6077 87.9868 82.622 87.6189 82.9641L87.8916 83.2608C87.8495 83.6372 87.8117 84.014 87.7499 84.3876L87.1401 84.528C87.2173 84.0923 87.2566 83.7612 87.1529 83.3253C87.0272 82.7954 86.907 82.117 87.1379 81.5972C87.4201 80.9622 88.307 80.6774 88.88 80.4659C88.3967 79.6532 87.853 78.8709 87.3395 78.0785C87.1106 77.6589 86.8414 77.2507 86.7891 76.7605L86.9305 76.5752C87.4642 76.6019 87.8906 76.8962 88.3539 77.1529C89.0462 77.6674 89.5974 78.2422 90.1353 78.9275C90.1673 77.6721 90.3601 76.4716 90.5958 75.243Z" fill="#5A5A5A"/>
<path d="M87.8359 77.6804L88.0858 77.681C89.0622 78.4884 89.8164 79.2707 90.2644 80.531C90.1144 80.5321 89.9624 80.5281 89.8252 80.452C89.1691 80.0866 88.1329 78.3927 87.8359 77.6804Z" fill="white"/>
<path d="M91.2105 75.1465C91.9264 76.4245 91.5751 80.0786 91.3169 81.5113C90.7375 79.6873 90.4252 76.9602 91.2105 75.1465Z" fill="white"/>
<path d="M87.3401 78.0783L87.837 77.6804C88.1339 78.3927 89.1701 80.0866 89.8262 80.452C89.9634 80.5281 90.1154 80.5321 90.2654 80.531C90.4662 80.8327 90.5046 80.8465 90.489 81.2089C90.0456 81.7805 88.3616 81.6912 88.4164 82.2887L88.4515 81.9548L88.3904 82.1113L88.6921 82.3257L89.0264 82.2551C89.2027 82.4764 89.1526 82.3707 89.217 82.5467C88.7474 82.6075 87.9874 82.6218 87.6196 82.9639L87.8923 83.2606C87.8502 83.6371 87.8124 84.0138 87.7506 84.3874L87.1408 84.5278C87.2179 84.0921 87.2573 83.7611 87.1536 83.3251C87.0279 82.7953 86.9077 82.1168 87.1386 81.5971C87.4208 80.962 88.3077 80.6773 88.8807 80.4657C88.3974 79.653 87.8537 78.8707 87.3401 78.0783Z" fill="#5A5A5A"/>
<path d="M101.166 18.3966C102.85 17.6156 104.69 16.5549 106.458 16.0674C106.327 18.4038 106.407 20.7843 106.408 23.1265C106.44 27.8229 106.428 32.5192 106.37 37.2155C105.883 35.6432 105.719 33.9011 105.474 32.2706C104.741 27.4003 103.87 22.5449 101.166 18.3966Z" fill="white"/>
<path d="M96.3009 41.155C96.6527 41.2663 97.1365 41.4509 97.4047 41.7227C97.6548 41.9762 97.7024 42.1542 97.7435 42.5105C97.9821 44.5828 97.8113 46.8832 97.7885 48.9833L97.6741 60.3699C97.5942 60.427 97.5133 60.4828 97.4312 60.5362C95.0748 62.0707 92.4691 63.3178 90.0058 64.6551C88.0381 65.7232 85.8145 67.2392 83.7018 67.8706C83.2493 68.0057 82.9037 67.9576 82.4535 67.8407C81.8898 67.6488 81.3452 67.4068 80.7965 67.1726C80.5539 64.9576 80.7056 62.5908 80.6991 60.3554C80.6614 56.6703 80.6513 52.9852 80.6688 49.3C85.7118 46.3389 91.1074 43.8216 96.3009 41.155Z" fill="#5A5A5A"/>
<path d="M96.1228 41.9377C96.4271 42.0247 96.6467 42.1384 96.9186 42.2997C97.4745 43.0847 97.0471 57.7983 97.0376 59.9372C94.0313 61.6399 91.0088 63.3097 87.97 64.9466C86.5707 65.6982 85.0292 66.7061 83.5173 67.1452C83.196 67.2386 82.8862 67.2 82.5627 67.1439C82.2226 67.0313 81.9372 66.9155 81.6294 66.7251C81.2553 66.0546 81.3174 51.4951 81.2773 49.7409C83.0823 48.9271 84.7936 47.8904 86.5587 46.9846C89.7672 45.338 93.0077 43.7816 96.1228 41.9377Z" fill="white"/>
<path d="M95.4578 44.0557C95.5452 44.0813 95.6151 44.1516 95.6915 44.2032C95.6056 49.1486 95.6922 54.0976 95.6516 59.0443C93.8414 60.2925 91.6514 61.217 89.7044 62.2228C87.6694 63.274 85.639 64.4835 83.5439 65.3848C83.4635 65.2675 83.4279 65.2233 83.3603 65.085C83.0994 64.5534 83.0713 51.4577 83.3776 50.7944C83.8884 49.6882 93.6434 44.9789 95.4578 44.0557Z" fill="#5A5A5A"/>
<path d="M94.7699 45.1189L94.9499 45.1374C95.2266 45.5578 95.0401 57.0467 95.0381 58.6116L84.1368 64.3253L84.0214 64.2946C83.7118 63.8462 83.8964 52.5379 83.8964 50.9465C85.2158 50.0439 86.736 49.3578 88.1476 48.6273C90.3699 47.4892 92.5773 46.3197 94.7699 45.1189Z" fill="white"/>
<path d="M107.236 16.0891C109.482 16.8767 111.683 18.0326 113.851 19.0407C116.501 20.2559 119.16 21.4469 121.829 22.6139C134.532 28.2845 147.148 34.1975 159.778 40.0447L184.354 51.2928C188.767 53.2829 193.978 55.2732 198.154 57.6809C198.298 60.9942 198.216 64.3488 198.216 67.6666L198.218 84.5858L198.121 115.188C198.108 120.158 198.193 125.128 198.135 130.097C197.129 129.616 196.163 128.975 195.199 128.406L195.276 114.173C195.314 111.414 195.446 108.61 195.159 105.864C194.246 104.869 193.072 104.311 191.922 103.688C191.894 102.074 191.933 100.401 191.591 98.8201C191.273 97.3494 190.632 96.0959 189.402 95.2898C186.735 93.5408 183.593 92.3154 180.734 90.9485C174.452 87.9456 168.128 85.0871 161.81 82.1756C157.464 80.1734 153.106 78.1379 148.8 76.044C145.867 74.6181 142.966 73.0514 139.96 71.8048C139.084 71.4415 137.879 70.8567 136.936 71.1153C136.074 71.3516 135.187 71.6068 134.423 72.1046C132.628 73.2734 132.556 75.5284 132.148 77.4947C126.074 80.607 119.763 83.1719 113.688 86.2837C111.502 87.4028 109.089 88.4604 107.229 90.1329C107.346 87.7965 107.229 85.4186 107.242 83.0753L107.251 65.7064L107.236 16.0891Z" fill="white"/>
<path d="M146.983 40.7623C147.118 40.7539 147.259 40.7486 147.393 40.7745C148.366 40.9614 149.568 41.6826 150.5 42.0702C154.512 43.7393 158.471 45.4938 162.445 47.2594C164.288 48.0782 166.276 48.7272 168.05 49.6838C168.529 49.9421 168.817 50.3778 169.137 50.8212C169.467 54.6905 169.166 58.8036 169.083 62.6909C168.964 68.2908 168.94 73.9109 168.639 79.5035C168.264 79.8671 167.864 80.1349 167.434 80.418C167.407 80.4289 167.381 80.4408 167.354 80.4508C166.963 80.597 166.743 80.7255 166.331 80.5894C164.609 80.0209 162.226 78.6662 160.518 77.8411C157.799 76.5276 155.136 75.1033 152.437 73.7475C150.039 72.5433 147.608 71.4056 145.23 70.1572C145.056 66.4124 145.219 62.5669 145.23 58.8118C145.246 53.055 145.184 47.2787 145.387 41.5253C145.903 41.2197 146.435 40.9947 146.983 40.7623Z" fill="#5A5A5A"/>
<path d="M146.819 41.5432C148.671 41.7108 166.471 49.6758 168.013 50.8409C168.291 57.1984 167.886 63.7102 167.732 70.0717C167.665 72.8105 167.904 76.4175 167.654 79.0056C167.609 79.4696 167.425 79.6168 167.157 79.965C165.512 79.8553 148.516 71.0245 145.923 69.6732C145.717 64.7255 145.88 59.6818 145.909 54.7253C145.932 50.5427 145.801 46.281 146.025 42.1082C146.225 41.783 146.496 41.7127 146.819 41.5432Z" fill="white"/>
<path d="M147.305 44.7351C147.347 44.3597 147.321 44.1537 147.549 43.8553C149.238 43.8399 163.191 50.5852 166.234 51.7483C166.227 54.8606 166.18 58.0127 166.031 61.1205L165.878 61.0626C165.5 60.3448 165.551 59.4872 165.511 58.6826C165.377 56.5784 165.6 54.3453 165.701 52.2355C162.332 51.009 159.073 49.4534 155.798 47.9763C153.238 46.8454 150.67 45.7317 148.096 44.6352C147.861 44.5302 147.62 44.77 147.305 44.7351Z" fill="#5A5A5A"/>
<path d="M147.303 44.7351C147.619 44.77 147.86 44.5302 148.095 44.6352C147.756 46.0534 147.992 51.0265 147.989 52.7614L147.877 68.7238C150.307 69.8659 163.973 77.1556 164.961 77.025C165.425 76.0307 165.179 61.3106 165.51 58.6826C165.549 59.4871 165.499 60.3448 165.877 61.0626L166.03 61.1205C166.253 63.9209 165.908 67.7741 165.837 70.7204C165.785 72.8813 165.96 75.1693 165.72 77.3061C165.68 77.6638 165.664 77.8504 165.396 78.0794C164.267 78.1627 149.109 70.166 147.263 69.1481C147.13 61.0203 147.282 52.865 147.303 44.7351Z" fill="#5A5A5A"/>
<path d="M147.877 68.7239L147.989 52.7615C147.992 51.0266 147.756 46.0534 148.094 44.6353C150.669 45.7318 153.236 46.8455 155.797 47.9763C159.071 49.4535 162.33 51.0091 165.699 52.2356C165.599 54.3454 165.376 56.5784 165.51 58.6827C165.179 61.3107 165.425 76.0307 164.961 77.0251C163.972 77.1557 150.307 69.866 147.877 68.7239Z" fill="white"/>
<path d="M129.827 127.813L151.007 139.715C153.625 141.15 156.232 142.606 158.828 144.083C160.588 145.061 162.413 145.977 164.093 147.102C164.322 148.479 164.503 153.974 165.302 154.538C165.636 154.774 166.214 154.877 166.606 154.775C167.064 154.656 167.393 154.301 167.608 153.873C168.395 152.304 168.393 149.652 168.585 147.876C175.707 144.679 182.02 140.371 188.633 136.191C188.994 137.587 189.209 138.803 190.478 139.589C190.841 139.814 191.102 139.899 191.521 139.891C191.886 139.744 192.072 139.538 192.225 139.165C192.804 137.754 192.496 135.668 192.518 134.144C194.024 135.034 197.105 137.136 198.59 137.56C201.59 139.222 204.64 140.792 207.619 142.494C206.772 143.994 205.886 145.468 204.962 146.915C204.037 148.363 203.075 149.782 202.076 151.173C201.076 152.564 200.041 153.925 198.97 155.256C197.898 156.586 196.793 157.884 195.653 159.149C194.136 160.857 192.489 162.456 190.884 164.072C185.369 169.547 179.655 174.781 173.744 179.775C167.751 184.907 161.789 190.075 155.197 194.351C152.034 196.403 148.716 198.308 145.104 199.309C140.76 200.514 135.585 199.992 131.238 198.895C126.299 197.648 121.573 195.478 116.929 193.355C113.63 191.847 110.314 190.33 107.062 188.714C102.797 186.595 98.6166 184.297 94.3271 182.227C92.306 181.252 90.2244 180.383 88.1708 179.486C85.715 178.413 83.069 177.208 80.5085 176.484C80.0343 176.182 79.5355 175.934 79.0369 175.682C72.2213 172.233 63.1978 165.464 60.6419 157.628C59.3633 153.708 60.0982 149.639 61.793 145.994C64.8607 139.396 71.7728 133.974 78.2669 131.634C86.2752 128.75 94.9333 129.114 103.154 130.594C105.713 131.055 108.43 131.576 110.864 132.538C112.404 133.146 113.724 134.041 115.156 134.871C116.491 135.63 117.839 136.362 119.201 137.068C121.889 135.934 125.774 133.644 127.714 131.305C128.583 130.257 129.211 129.036 129.827 127.813Z" fill="#F1F1F1"/>
<path d="M111.343 175.83L111.619 175.972C111.673 176.475 111.657 176.975 111.707 177.474C111.708 179.034 111.737 180.602 111.694 182.16C111.708 182.814 111.766 183.499 111.704 184.149C111.669 184.502 111.64 184.857 111.588 185.209L111.224 184.542C111.182 182.985 111.166 181.377 111.288 179.825C111.286 178.492 111.28 177.162 111.343 175.83Z" fill="#5A5A5A"/>
<path d="M81.6532 159.248C81.1927 158.96 80.7337 158.669 80.2765 158.375C79.0575 157.592 77.7354 156.722 77.4163 155.134C77.2373 154.241 77.4001 153.215 77.8886 152.458C78.3238 151.785 78.8912 151.296 79.5278 150.851C83.2736 148.236 87.4192 146.097 91.3205 143.737C95.6513 141.117 99.8898 138.221 104.294 135.751C104.96 135.377 105.793 134.881 106.54 134.741C108.658 134.343 110.702 134.689 112.71 135.455C115.4 136.48 117.872 138.175 120.348 139.669L131.091 146.135C134.243 148.011 138.132 149.751 140.997 151.982C142.07 152.817 142.934 153.846 143.103 155.295C143.347 157.381 142.149 158.886 141.019 160.411C140.89 161.931 140.728 163.461 140.691 164.987C140.655 166.455 140.775 168.019 140.593 169.471C140.539 169.904 140.43 170.344 140.198 170.711C139.98 171.057 139.665 171.297 139.267 171.351C138.722 171.426 137.6 171.037 137.239 170.596C136.745 169.992 137.014 168.132 137.089 167.356C136.995 166.004 137.096 164.549 137.106 163.188C134.399 164.904 131.72 166.668 129.068 168.479C124.559 171.586 120.011 175.293 114.596 176.324C114.607 178.113 114.925 184.704 114.349 185.942C113.974 186.207 113.652 186.425 113.191 186.458C112.668 186.495 112.206 186.37 111.811 185.996C111.356 185.567 111.277 185.165 111.224 184.542L111.588 185.209C111.639 184.857 111.669 184.502 111.704 184.148C111.765 183.499 111.707 182.814 111.693 182.16C111.737 180.602 111.708 179.034 111.707 177.474C111.656 176.975 111.672 176.475 111.618 175.972L111.343 175.83C107.116 174.144 103.278 171.938 99.3426 169.614C97.5602 168.562 95.7475 167.565 93.9856 166.474C91.0396 164.65 88.1694 162.716 85.0853 161.153L85.0696 161.263L85.0458 161.445C84.8109 163.145 85.1883 166.363 84.5197 167.72C84.3456 168.073 84.0639 168.349 83.6856 168.437C82.9726 168.602 82.3216 168.135 81.7491 167.757C81.6845 164.923 81.6853 162.084 81.6532 159.248Z" fill="#5A5A5A"/>
<path d="M137.108 163.188L137.382 162.997C137.963 164.847 136.868 168.411 137.696 170.539C137.71 170.575 137.723 170.613 137.737 170.649C137.514 170.513 137.333 170.447 137.256 170.161C137.028 169.317 137.199 168.236 137.09 167.356C136.997 166.004 137.098 164.549 137.108 163.188Z" fill="#5A5A5A"/>
<path d="M82.2779 159.524C83.0332 159.858 83.715 160.347 84.4074 160.804C84.2824 162.989 84.2256 165.177 84.0786 167.361C83.8367 167.553 83.4934 167.764 83.1716 167.736C82.9888 167.72 82.8326 167.672 82.7054 167.53C81.9597 166.696 82.2792 161.04 82.2779 159.524Z" fill="white"/>
<path d="M140.071 161.188L140.171 161.294C140.24 162.432 140.076 163.668 140.046 164.816C140.006 166.303 140.103 167.899 139.953 169.37C139.915 169.742 139.88 170.2 139.561 170.43C139.08 170.776 138.491 170.591 137.96 170.497C137.194 169.529 137.588 164.33 137.618 162.765C138.461 162.271 139.273 161.759 140.071 161.188Z" fill="white"/>
<path d="M111.707 177.474C111.781 176.957 111.798 176.421 111.839 175.899C112.382 175.993 113.089 175.987 113.587 176.228C114.002 176.427 113.99 176.657 114.11 177.072C114.098 177.137 114.085 177.201 114.073 177.266C113.776 178.972 114.709 184.787 113.453 185.724C113.283 185.85 113.127 185.864 112.92 185.837C112.554 185.789 112.014 185.384 111.873 185.032C111.768 184.766 111.741 184.433 111.704 184.148C111.765 183.499 111.707 182.813 111.693 182.16C111.737 180.601 111.708 179.033 111.707 177.474Z" fill="white"/>
<path d="M107.252 135.307C109.132 135.193 110.773 135.457 112.518 136.231C114.306 137.024 115.95 138.168 117.625 139.19L126.713 144.746C129.508 146.413 132.318 148.054 135.14 149.669C137.135 150.822 139.494 151.947 141.205 153.538C141.763 154.058 142.217 154.768 142.242 155.577C142.274 156.607 141.605 157.586 140.946 158.28C139.813 159.472 137.946 160.272 136.555 161.103C134.821 162.145 133.096 163.202 131.379 164.276C126.993 167.034 122.664 170.49 118.028 172.728C116.539 173.446 115.233 173.798 113.594 173.796C113.006 173.761 112.407 173.623 111.843 173.449C108.218 172.334 104.846 170.232 101.569 168.308C97.5643 165.955 93.6218 163.52 89.6458 161.117L83.6546 157.515C82.4328 156.788 81.1219 156.117 79.9741 155.269C79.342 154.802 78.7205 154.247 78.3477 153.525C78.3549 153.257 78.3704 153.085 78.4881 152.84C78.7455 152.306 79.3833 151.825 79.8474 151.509C83.8476 148.792 88.1897 146.5 92.3155 143.99C96.5203 141.432 100.645 138.593 104.941 136.219C105.7 135.801 106.419 135.511 107.252 135.307Z" fill="white"/>
<path d="M102.383 152.246L102.754 151.437V151.564C102.756 151.946 102.786 152.189 102.929 152.539C102.94 155.147 103.127 157.372 104.198 159.741C105.019 161.108 106.09 162.086 107.511 162.698C109.603 163.598 112.017 163.452 114.073 162.512C115.528 161.847 116.766 160.821 117.366 159.231L117.704 159.504C117.297 160.901 116.202 161.927 115.009 162.598C112.898 163.788 110.295 164.261 107.983 163.496C106.3 162.939 104.667 161.755 103.818 160.092C102.61 157.964 101.931 154.701 102.383 152.246Z" fill="#5A5A5A"/>
<path d="M112.125 144.498C112.312 144.343 112.451 144.246 112.666 144.143C112.909 144.026 113.007 143.889 113.187 143.69C113.842 142.97 114.81 142.525 115.765 142.534C116.11 142.537 116.322 142.579 116.595 142.799C116.542 143.101 116.477 143.226 116.217 143.39C115.972 143.545 115.692 143.664 115.431 143.787C115.143 144.271 114.906 144.666 114.487 145.035C114.438 145.079 114.389 145.125 114.34 145.169C115.169 145.971 116.033 146.566 116.35 147.759C117.109 148.022 117.778 148.426 118.175 149.189C118.215 149.266 118.252 149.344 118.285 149.425C118.317 149.506 118.346 149.588 118.37 149.672C118.395 149.756 118.415 149.841 118.431 149.927C118.446 150.013 118.458 150.1 118.465 150.187C118.472 150.275 118.475 150.363 118.473 150.45C118.471 150.538 118.465 150.625 118.455 150.712C118.444 150.799 118.429 150.886 118.41 150.971C118.391 151.057 118.367 151.141 118.34 151.223C118.241 151.517 118.128 151.811 117.98 152.081C117.953 154.062 118.308 157.768 117.704 159.504L117.365 159.231C116.765 160.821 115.527 161.847 114.073 162.512C112.016 163.452 109.603 163.598 107.511 162.698C106.089 162.086 105.018 161.108 104.197 159.742C103.127 157.372 102.94 155.147 102.928 152.539C102.786 152.189 102.756 151.947 102.753 151.565V151.437L102.382 152.246C102.42 151.769 102.575 151.163 102.476 150.701C102.233 149.554 101.032 148.511 101.464 147.219C101.57 146.902 101.791 146.779 102.054 146.637C102.225 146.544 102.391 146.443 102.559 146.342C102.713 145.758 102.899 144.853 103.43 144.513C103.94 144.185 104.683 144.303 105.227 144.456C105.724 144.68 106.064 144.986 106.461 145.366C107.656 144.41 108.867 144.238 110.203 143.633C110.711 143.905 111.257 144.155 111.732 144.486C111.503 144.653 111.301 144.645 111.036 144.685C110.853 144.713 110.922 144.694 110.753 144.81C110.856 145.078 110.922 145.235 111.129 145.426L111.33 145.371C111.516 145.094 111.687 144.826 111.951 144.625C112.008 144.582 112.067 144.54 112.125 144.498Z" fill="#5A5A5A"/>
<path d="M105.441 148.027C105.514 148.063 105.591 148.091 105.661 148.133C105.954 148.309 106.076 148.518 106.162 148.842C105.952 149.214 105.857 149.195 105.483 149.341L105.301 149.406C105.253 149.262 105.222 149.184 105.192 149.025C105.102 148.56 105.224 148.401 105.441 148.027Z" fill="white"/>
<path d="M112.7 151.574L113.155 151.749C113.369 152.183 113.115 152.699 112.987 153.159C112.663 153.037 112.631 153.035 112.436 152.741C112.39 152.311 112.554 151.966 112.7 151.574Z" fill="white"/>
<path d="M107.439 147.844C107.462 147.457 107.468 147.117 107.622 146.756L107.761 146.967C107.898 147.172 108.021 147.292 108.225 147.427C108.367 147.748 108.473 147.931 108.435 148.294L108.207 148.71L108.043 148.741L107.614 147.824L107.439 147.844Z" fill="#5A5A5A"/>
<path d="M108.35 146.284C108.399 145.926 108.44 145.568 108.473 145.208C108.732 144.923 108.849 144.96 109.212 144.907C109.319 145.065 109.529 145.255 109.494 145.459C109.458 145.674 109.385 145.752 109.269 145.92C109.072 146.207 109.039 146.358 109.011 146.706C109.254 147.24 109.463 147.794 109.556 148.382C109.353 148.443 109.472 148.435 109.201 148.326C108.787 147.818 108.65 147.263 108.54 146.613C108.501 146.388 108.551 146.514 108.35 146.284Z" fill="white"/>
<path d="M103.284 146.413L103.018 146.1C102.995 145.763 102.965 145.662 103.188 145.387C103.601 144.876 104.359 144.789 104.941 144.819C105.443 145.127 105.861 145.45 106.291 145.86C105.948 146.585 105.704 147.218 105.549 148.019C104.624 147.445 104.45 146.731 103.284 146.413Z" fill="white"/>
<path d="M112.125 144.498C112.312 144.343 112.451 144.246 112.666 144.143C112.909 144.026 113.007 143.889 113.187 143.69C113.842 142.97 114.81 142.525 115.765 142.534C116.11 142.537 116.322 142.579 116.595 142.799C116.542 143.101 116.477 143.226 116.217 143.39C115.972 143.545 115.692 143.664 115.431 143.787C115.143 144.271 114.906 144.666 114.487 145.035C114.438 145.079 114.389 145.125 114.34 145.169C115.169 145.971 116.033 146.566 116.35 147.759C117.109 148.022 117.778 148.426 118.175 149.189C118.215 149.266 118.252 149.344 118.285 149.425C118.317 149.506 118.346 149.588 118.37 149.672C118.395 149.756 118.415 149.841 118.431 149.927C118.446 150.013 118.458 150.1 118.465 150.187C118.472 150.275 118.475 150.363 118.473 150.45C118.471 150.538 118.465 150.625 118.455 150.712C118.444 150.799 118.429 150.886 118.41 150.971C118.391 151.057 118.367 151.141 118.34 151.223C118.241 151.517 118.128 151.811 117.98 152.081C117.953 154.062 118.308 157.768 117.704 159.504L117.365 159.231C117.651 157.564 117.559 155.82 117.557 154.132C117.448 153.515 117.462 152.872 117.445 152.245C117.001 152.651 116.521 153.028 116.005 153.324C112.939 155.082 108.321 154.899 105.257 153.229C104.579 152.86 103.843 151.892 103.204 151.69C102.947 151.931 102.982 152.191 102.928 152.539C102.786 152.189 102.756 151.947 102.753 151.565V151.437L102.382 152.246C102.42 151.769 102.575 151.163 102.476 150.701C102.233 149.554 101.032 148.511 101.464 147.219C101.57 146.902 101.791 146.779 102.054 146.637C102.225 146.544 102.391 146.443 102.559 146.342C102.713 145.758 102.899 144.853 103.43 144.513C103.94 144.185 104.683 144.303 105.227 144.456L104.94 144.819C104.358 144.789 103.6 144.877 103.186 145.387C102.964 145.662 102.994 145.763 103.016 146.1L103.283 146.413C103.381 146.785 103.427 146.826 103.698 147.091C103.934 147.369 104.163 147.639 104.431 147.885C104.615 148.055 104.717 148.207 104.845 148.424L104.799 148.608C104.514 148.699 104.437 148.648 104.279 148.931L104.395 149.22L104.851 149.328C104.987 149.61 104.933 149.757 104.866 150.062C104.628 150.324 104.513 150.511 104.492 150.887C104.483 151.044 104.502 151.194 104.517 151.349C104.559 151.302 104.603 151.258 104.642 151.209C104.835 150.964 104.899 150.745 105 150.45C105.243 150.481 105.32 150.615 105.503 150.779C105.683 150.589 105.721 150.487 105.813 150.243L105.882 150.243C105.991 150.826 105.996 151.029 106.452 151.418L106.389 151.816L106.58 152.081C106.851 151.914 106.643 151.658 106.974 151.645C107.284 151.926 107.725 152.465 108.114 152.551L108.274 152.143L108.468 152.215L108.529 152.367C108.726 152.848 108.934 153.211 109.255 153.61C109.405 153.775 109.496 153.822 109.711 153.869C111.856 154.34 114.572 153.661 116.367 152.347C116.709 152.097 117.137 151.765 117.21 151.306C117.073 151.053 116.908 150.783 116.812 150.51C116.691 150.163 116.82 149.96 116.97 149.657C117.147 149.406 117.122 149.218 117.12 148.914C116.741 148.904 116.397 148.901 116.03 148.784C116.017 148.696 116.002 148.567 115.966 148.488C115.854 148.244 115.726 148.2 115.507 148.108C115.238 148.299 115.052 148.441 114.729 148.512C114.352 148.072 114.878 147.178 114.616 146.576C114.416 146.504 114.262 146.431 114.087 146.307L114.045 146.036L114.469 146.301L114.663 146.225C114.645 146.173 114.633 146.118 114.608 146.069C114.451 145.756 113.807 145.616 113.493 145.508L113.213 145.356L113.359 145.139C113.021 145.048 112.846 144.992 112.572 144.746L112.125 144.498Z" fill="#5A5A5A"/>
<path d="M112.572 144.746L112.699 144.731C112.972 144.698 113.295 144.698 113.468 144.441C113.915 143.78 113.918 143.346 114.754 143.068C115.125 142.945 115.474 142.952 115.857 142.976L115.872 142.963L115.804 143.158L115.648 143.228C115.192 143.437 114.869 143.627 114.518 143.999C114.236 144.827 114.856 144.556 113.816 145.307L113.359 145.139C113.021 145.048 112.846 144.992 112.572 144.746Z" fill="white"/>
<path d="M104.866 150.062C104.695 149.931 104.556 149.772 104.398 149.627C104.166 149.415 104.167 149.331 103.859 149.359L103.816 149.588C104.064 149.856 104.255 150.022 104.294 150.417C104.157 150.723 104.139 150.809 103.876 150.992C103.452 150.891 103.134 150.615 102.833 150.29C102.328 149.744 101.964 148.829 101.971 148.063C101.974 147.697 102.071 147.306 102.368 147.082C102.787 146.765 103.254 146.956 103.697 147.091C103.934 147.369 104.162 147.639 104.43 147.885C104.614 148.055 104.716 148.207 104.844 148.424L104.798 148.608C104.513 148.699 104.436 148.648 104.279 148.931L104.394 149.22L104.851 149.328C104.986 149.61 104.932 149.758 104.866 150.062Z" fill="white"/>
<path d="M102.928 152.539C102.982 152.19 102.946 151.931 103.203 151.689C103.842 151.891 104.578 152.86 105.256 153.229C108.32 154.898 112.938 155.082 116.004 153.324C116.521 153.028 117.001 152.651 117.444 152.244C117.461 152.871 117.447 153.514 117.556 154.132C117.558 155.82 117.65 157.563 117.365 159.231C116.764 160.821 115.527 161.847 114.072 162.512C112.016 163.452 109.602 163.598 107.51 162.697C106.088 162.086 105.018 161.107 104.196 159.741C103.126 157.372 102.939 155.147 102.928 152.539Z" fill="white"/>
</svg>
