<svg width="23" height="23" viewBox="0 0 23 23" fill="none" xmlns="http://www.w3.org/2000/svg">
<path fill-rule="evenodd" clip-rule="evenodd" d="M15.4848 12.3219L15.4733 12.3166C15.2584 12.2247 15.0239 12.1878 14.7911 12.2093C14.5583 12.2307 14.3345 12.3099 14.14 12.4396C14.1171 12.4548 14.0951 12.4712 14.0741 12.4889L11.9349 14.3126C10.5796 13.6543 9.18038 12.2656 8.52208 10.9279L10.3484 8.75615C10.366 8.73418 10.3827 8.71221 10.3985 8.68848C10.5255 8.4945 10.6025 8.27216 10.6227 8.04123C10.643 7.81029 10.6058 7.57794 10.5146 7.36484V7.3543L8.65391 3.20674C8.53328 2.92836 8.32584 2.69646 8.06257 2.54566C7.79931 2.39486 7.49433 2.33325 7.19317 2.37002C6.00223 2.52673 4.90905 3.11161 4.11782 4.01541C3.32659 4.91922 2.89141 6.08014 2.89356 7.28135C2.89356 14.2599 8.5713 19.9376 15.5498 19.9376C16.751 19.9397 17.9119 19.5046 18.8157 18.7133C19.7195 17.9221 20.3044 16.8289 20.4611 15.638C20.498 15.3369 20.4365 15.032 20.2859 14.7688C20.1352 14.5055 19.9035 14.298 19.6253 14.1772L15.4848 12.3219ZM7.59846 15.2327C5.48938 13.1236 4.30307 10.264 4.29981 7.28135C4.29651 6.42309 4.60572 5.59296 5.1697 4.94601C5.73368 4.29906 6.51387 3.87951 7.36456 3.76572C7.36421 3.76923 7.36421 3.77276 7.36456 3.77627L9.21026 7.90713L7.39356 10.0815C7.37512 10.1028 7.35837 10.1254 7.34346 10.1492C7.2112 10.3522 7.13361 10.5859 7.11821 10.8276C7.10282 11.0694 7.15013 11.311 7.25557 11.5291C8.05186 13.1577 9.69278 14.7863 11.339 15.5817C11.5587 15.6862 11.8017 15.7319 12.0443 15.7143C12.287 15.6968 12.5209 15.6165 12.7232 15.4815C12.7458 15.4663 12.7675 15.4499 12.7883 15.4323L14.9249 13.6095L19.0558 15.4596C19.0558 15.4596 19.0628 15.4596 19.0654 15.4596C18.953 16.3115 18.5341 17.0932 17.887 17.6586C17.24 18.224 16.4091 18.5342 15.5498 18.5313C12.5671 18.5281 9.70754 17.3418 7.59846 15.2327Z" fill="white"/>
</svg>
