<svg width="138" height="40" viewBox="0 0 138 40" fill="none" xmlns="http://www.w3.org/2000/svg">
<path d="M38.3038 32.5274C38.4105 32.5593 38.513 32.5973 38.6169 32.6341C38.7156 32.7563 38.6933 32.8749 38.6879 33.0128L38.5919 33.0608C38.2526 33.0861 35.3341 33.1245 35.1444 33.0873C35.0274 32.9993 34.9739 32.9513 34.9689 32.8135C34.9665 32.7494 34.9968 32.6756 35.0583 32.6322C35.2508 32.4963 35.5152 32.4859 35.7612 32.4913L35.7508 32.5535C35.5232 32.6153 35.251 32.6461 35.0977 32.7912L35.1181 32.8926C35.4918 32.9233 35.9242 32.9072 36.2941 32.8515L36.0463 32.825C36.5947 32.8112 37.3457 32.729 37.8734 32.825L37.7431 32.8719C37.9435 32.9686 38.1274 32.9598 38.357 32.9187C38.4011 32.9108 38.4449 32.9022 38.4885 32.893L38.4964 32.757C38.4092 32.6848 38.3279 32.6334 38.221 32.5792L38.3038 32.5274Z" fill="white"/>
<path d="M109.084 11.5986C108.854 11.2653 109.136 10.7604 108.976 10.414C108.822 10.0811 108.251 9.93054 108.15 9.64715C108.182 9.6291 108.21 9.60798 108.244 9.59339C108.477 9.49047 110 9.49815 110.225 9.60183C110.315 9.64369 110.295 9.68132 110.311 9.7539C110.186 9.93745 109.885 9.98084 109.698 10.1168C109.483 10.2735 109.496 10.9343 109.475 11.1636C109.305 11.3444 109.402 13.1565 109.394 13.5033L109.391 13.4898L109.318 13.4634C109.32 13.4465 109.324 13.4296 109.325 13.4123C109.345 13.1097 109.246 12.7902 109.237 12.4857C109.23 12.2779 109.28 12.0568 109.248 11.8528C109.231 11.7465 109.169 11.6789 109.084 11.5986Z" fill="white"/>
<path d="M90.7441 9.55465C91.3797 9.54313 92.0376 9.51087 92.6705 9.54505C92.8558 9.55542 92.9768 9.53852 93.1019 9.64834C93.0331 9.90217 92.5768 10.0754 92.4174 10.3303C92.3585 10.4248 92.3192 10.5143 92.3134 10.6199C92.2798 11.2466 92.2539 15.4057 92.3835 15.7309C92.5377 16.118 93.0587 16.0857 93.2075 16.4102C93.1269 16.4648 93.0702 16.5116 92.9646 16.535C92.5941 16.6161 91.1182 16.6195 90.7966 16.4759L90.7883 16.3484C90.9432 16.1506 91.2005 16.1395 91.3966 15.9782C91.4686 15.9191 91.4885 15.8557 91.4997 15.7774C91.5825 15.1952 91.5205 14.5528 91.5205 13.9653L91.5134 10.1575C91.3265 10.0082 91.1755 9.98473 90.9598 9.88143C90.7675 9.78927 90.787 9.71286 90.7441 9.55465Z" fill="white"/>
<path d="M79.3606 9.42374C79.4303 9.41836 79.5002 9.41516 79.5702 9.41414C79.6404 9.41286 79.7104 9.41376 79.7804 9.41683C79.8504 9.4199 79.92 9.42502 79.9894 9.43219C80.0589 9.43961 80.1279 9.44895 80.1964 9.46022C80.431 9.499 80.5993 9.60691 80.7084 9.77126C80.8761 10.0243 80.8995 10.7278 80.7759 10.982L80.662 11.0143L80.5641 10.9544L80.5433 10.896L80.5068 10.7985C80.4233 10.5723 80.342 10.3622 80.1494 10.1752C79.9705 10.0013 79.7068 9.88032 79.4166 9.87072C79.4016 9.8702 79.3868 9.87008 79.3721 9.87033C79.3572 9.87033 79.3422 9.87072 79.3273 9.87149C79.3126 9.87225 79.2978 9.87328 79.2831 9.87456C79.2684 9.87609 79.2537 9.87788 79.239 9.87993C79.2242 9.88198 79.2096 9.88429 79.1951 9.88685C79.1808 9.88941 79.1665 9.89235 79.1522 9.89568C79.138 9.89875 79.1238 9.90221 79.1097 9.90605C79.0956 9.90989 79.0817 9.91398 79.0681 9.91833C79.0544 9.92294 79.0409 9.92768 79.0274 9.93254C79.014 9.93766 79.0008 9.94291 78.9878 9.94829C78.9748 9.95392 78.962 9.9598 78.9494 9.96595C78.9366 9.97184 78.9241 9.97811 78.9119 9.98476C78.8998 9.99142 78.8878 9.99833 78.8761 10.0055C78.8646 10.0127 78.8532 10.02 78.8418 10.0274C78.8308 10.0351 78.8199 10.0429 78.8092 10.0508C78.7985 10.059 78.7882 10.0673 78.7782 10.0758C78.5782 10.2436 78.4895 10.4828 78.4604 10.7055C78.3058 11.8956 79.8022 12.3671 80.4748 13.2503C80.7942 13.6696 80.9391 14.2076 80.9382 14.6911C80.9369 15.2521 80.7817 15.8911 80.2342 16.2901C79.7436 16.6476 79.1846 16.6864 78.5478 16.6675C78.4409 16.6111 78.4774 16.6218 78.3785 16.5938C78.078 16.5093 77.7926 16.4191 77.6406 16.1845C77.4348 15.8673 77.3404 15.0501 77.4873 14.708L77.5721 14.6788C78.1199 14.9695 77.9558 15.7816 78.5839 16.105C78.8252 16.2286 79.1794 16.234 79.4518 16.1806C79.6886 16.1342 79.8754 15.9564 79.981 15.7936C80.8751 14.415 79.3279 13.7802 78.4345 12.8721C78.1865 12.6198 78.013 12.3226 77.8994 12.0188C77.6697 11.4044 77.6726 10.6694 78.0994 10.1057C78.4162 9.68716 78.7842 9.54278 79.3606 9.42374Z" fill="white"/>
<path d="M83.4798 9.23145C83.6299 9.29826 83.7214 9.38121 83.8389 9.47759C84.5393 9.66038 87.3835 9.53826 88.2763 9.53442C88.3483 9.45455 88.4053 9.39542 88.5054 9.33436C88.604 9.27407 88.5586 9.28866 88.6866 9.30018C88.7349 9.41615 88.6075 10.8627 88.5256 11.0063L88.4466 11.0171C88.1099 10.6599 88.1995 10.3493 87.6885 10.0528L87.6194 10.0137L86.2651 10.0179C86.2526 10.9426 86.1058 15.2887 86.3598 15.8482C86.4875 16.0982 86.7147 16.0617 86.9493 16.2011C87.084 16.2813 87.067 16.3447 87.0734 16.4626C86.5877 16.6308 85.5602 16.625 85.0357 16.5536C84.8395 16.5271 84.7429 16.4914 84.6334 16.3635L84.6728 16.2479C84.9397 16.1799 85.1928 16.0859 85.4488 15.9972C85.516 14.0084 85.4593 12.0028 85.4549 10.0129C85.1035 10.0044 84.7157 9.97487 84.3685 10.0171C83.7371 10.0943 83.715 10.5973 83.3691 10.9195C83.2853 10.9979 83.2763 11.0025 83.1425 11.014C83.0337 10.6772 83.3313 9.58242 83.4798 9.23145Z" fill="white"/>
<path d="M70.8034 9.53369C72.1029 9.58092 73.4312 9.54137 74.7343 9.54099C74.7471 9.99258 74.9311 10.7256 74.7349 11.1361L74.6085 11.1235C74.4091 10.8739 74.3682 10.5321 74.2117 10.2556L74.1791 10.1999C74.1179 10.18 74.0562 10.1615 73.9957 10.1408C73.4315 9.94726 72.8178 10.0118 72.2146 10.0302C72.148 10.4822 72.0226 12.2739 72.3621 12.6053C72.7787 12.694 73.3522 12.6322 73.789 12.6245C73.8258 12.3127 73.8629 12.0101 74.0517 11.7267L74.1163 11.7682C74.2623 12.1622 74.3586 13.742 74.1199 14.0795C73.8376 13.856 73.9125 13.5227 73.7007 13.2742C73.4466 13.1349 73.2063 13.1099 72.8987 13.1018C72.651 13.0957 72.4341 13.0719 72.2466 13.2074C72.1182 13.4893 72.1714 13.8675 72.1736 14.1667C72.1688 14.5188 72.1669 14.8805 72.2149 15.2311C72.2482 15.4742 72.3173 15.834 72.6094 15.9815C72.9618 16.1596 73.8427 16.1147 74.2395 16.0222C74.6827 15.9189 74.6479 15.5249 74.844 15.2507C74.9336 15.1259 75.0395 14.9808 75.2229 14.9354L75.3327 15.0072C75.3711 15.1186 75.3871 15.1678 75.3531 15.2833C75.2277 15.7096 75.1384 16.1305 74.9826 16.5532C73.7336 16.5582 72.405 16.6358 71.1627 16.5571C70.9656 16.5448 70.7483 16.5294 70.6133 16.4066L70.6338 16.3067C70.8184 16.1374 71.1067 16.0786 71.3662 15.9991C71.3694 15.5322 71.4494 15.0679 71.4654 14.601C71.4939 13.7508 71.4798 12.8972 71.4789 12.0466C71.4786 11.6115 71.5141 11.153 71.4574 10.721C71.4101 10.3585 71.237 10.0713 70.8651 9.84704C70.8459 9.83552 70.8264 9.824 70.8069 9.81286C70.7467 9.69344 70.7691 9.66156 70.8034 9.53369Z" fill="white"/>
<path d="M104.674 16.0001C104.683 15.1384 105.096 10.7155 104.576 10.2317C104.436 10.1007 104.207 10.022 104.022 9.93407C103.902 9.87686 103.945 9.9022 103.853 9.8085C103.846 9.71327 103.807 9.66028 103.89 9.58502C104.376 9.51513 104.888 9.53087 105.381 9.52588C105.782 10.5158 106.591 11.4766 107.256 12.3729C107.86 13.1869 108.448 14.0133 109.104 14.8028C109.102 13.7353 109.121 12.6655 109.085 11.5987C109.17 11.679 109.232 11.7466 109.249 11.8529C109.281 12.0568 109.231 12.278 109.238 12.4858C109.247 12.7903 109.346 13.1098 109.326 13.4124C109.325 13.4296 109.321 13.4465 109.319 13.4634L109.392 13.4899L109.395 13.5034C109.403 13.1566 109.306 11.3445 109.476 11.1636C109.523 11.8564 109.593 16.4487 109.433 16.6752L109.316 16.6714C108.99 16.3569 108.746 15.9134 108.485 15.5589L106.305 12.5687C105.95 12.0799 105.63 11.5242 105.192 11.0795C105.185 12.1659 104.96 15.2394 105.454 16.0493C105.661 16.1415 105.989 16.153 106.13 16.297C106.14 16.4026 106.169 16.4145 106.084 16.5032C105.49 16.5915 104.652 16.6403 104.078 16.4759L103.985 16.3999C104.022 16.2855 104.056 16.2302 104.19 16.1653C104.332 16.0965 104.519 16.0497 104.674 16.0001Z" fill="white"/>
<path d="M65.6546 9.42296C65.8203 9.41144 65.9877 9.40145 66.1544 9.40299C66.6146 9.40798 67.2661 9.4172 67.5938 9.70789C67.9618 10.0343 67.9138 10.7639 67.8751 11.1671C67.8651 11.2712 67.8805 11.318 67.7781 11.3871C67.268 11.0358 67.3336 10.3058 66.6591 9.98936C66.1499 9.75051 65.3621 9.95557 64.8319 10.0512C63.9438 10.9117 63.5714 11.5726 63.5384 12.697C63.5096 13.675 63.7336 14.9802 64.6747 15.7037C65.2661 16.158 65.9128 16.199 66.6991 16.196L67.052 15.764C67.0626 15.39 67.1947 14.5928 66.9691 14.281C66.8965 14.1804 66.8328 14.1546 66.7035 14.1208C66.5141 14.0824 66.205 14.036 66.0821 13.9112C66.0271 13.8555 66.0555 13.857 66.0789 13.7748C66.1941 13.7103 66.2911 13.6742 66.4306 13.6481C66.8479 13.5702 67.9714 13.4865 68.316 13.6769C68.396 13.7211 68.373 13.7599 68.3803 13.829C68.2651 14.0095 68.0831 14.089 67.8731 14.2003C67.8629 14.6738 67.6735 15.7352 68.0341 16.1149C68.0475 16.1292 68.0629 16.1426 68.0773 16.1564L68.0482 16.2589C67.8645 16.3565 67.6744 16.4083 67.4626 16.4586C66.4571 16.6975 65.4882 16.8211 64.5202 16.4033C63.6216 16.0151 63.0693 15.2705 62.8046 14.5202C62.3742 13.3002 62.5115 11.735 63.3432 10.6295C63.893 9.89835 64.6507 9.62917 65.6546 9.42296Z" fill="white"/>
<path d="M124.016 29.3227C123.999 27.8942 123.995 26.4656 124.004 25.0369C124.004 24.3871 124.092 23.6687 123.973 23.027C123.925 22.772 123.825 22.5032 123.578 22.3197C123.385 22.1765 123.185 22.1419 122.928 22.1192C122.854 22.1127 122.781 22.1023 122.708 22.0935C122.624 22.0033 122.557 21.946 122.547 21.8324C122.621 21.7287 122.675 21.6922 122.824 21.655C123.208 21.5594 126.312 21.5924 126.586 21.7018C126.592 21.847 126.583 21.9046 126.48 22.0271C126.06 22.246 125.476 22.2417 125.372 22.7075C125.277 23.1249 125.324 23.6214 125.323 24.0465L125.318 26.4585L125.317 29.7275C125.317 30.2816 125.274 30.861 125.335 31.4117C125.359 31.6229 125.411 31.8437 125.579 32.0169C125.863 32.3087 126.415 32.3859 126.858 32.4185C127.468 32.4638 128.002 32.3437 128.596 32.3467L128.651 32.303C129.209 31.8445 129.651 30.636 129.998 30.4728L130.087 30.5085C130.323 31.1137 129.836 32.4527 129.639 33.0905L125.193 33.0813C124.421 33.0798 123.601 33.1182 122.835 33.0583C122.791 33.0748 122.731 33.0679 122.682 33.0683C122.619 32.9485 122.644 32.9047 122.671 32.7749C122.879 32.589 123.018 32.5656 123.311 32.4854C123.392 32.4746 123.468 32.4508 123.546 32.4304C124.273 31.8375 123.988 30.1283 124.016 29.3227Z" fill="white"/>
<path d="M124.018 29.3231L124.032 29.2809C124.079 29.1376 124.102 29.0044 124.113 28.8569C124.332 29.1 124.292 31.487 124.2 31.8629C124.131 32.1474 123.833 32.3579 123.761 32.644C123.926 32.7841 124.46 32.7707 124.706 32.7803C125.138 32.7968 125.613 32.829 126.034 32.7396L126.095 32.781C125.899 32.9373 125.423 32.9154 125.149 32.9177C124.746 32.9204 124.311 32.9297 123.912 32.897C123.803 32.9074 123.655 32.9043 123.563 32.9492C124.475 32.9458 125.445 32.902 126.348 33.0041C125.471 32.9719 123.623 32.8605 122.837 33.0587C122.793 33.0752 122.733 33.0683 122.684 33.0687C122.621 32.9488 122.646 32.9051 122.673 32.7753C122.881 32.5894 123.02 32.566 123.313 32.4857C123.394 32.475 123.47 32.4512 123.548 32.4308C124.275 31.8379 123.989 30.1287 124.018 29.3231Z" fill="white"/>
<path d="M102.655 20.8882C102.866 21.1293 103.122 21.5471 103.526 21.5959C104.284 21.6877 105.142 21.6301 105.91 21.6289L110.482 21.6186C110.652 21.4734 110.928 21.1639 111.18 21.119C111.299 21.2219 111.261 21.3029 111.252 21.4381C111.215 21.9653 111.119 22.4906 111.076 23.0182C111.055 23.2878 111.121 23.6726 111.029 23.9214C111.008 23.9771 110.967 24.0182 110.927 24.0646L110.827 24.1004C110.504 23.903 110.463 23.145 110.404 22.832C110.144 22.673 109.888 22.5083 109.614 22.3639C108.924 22.3497 107.948 22.0644 107.332 22.3424C107.311 22.367 107.286 22.3896 107.271 22.4169C107.196 22.5532 107.137 31.4835 107.349 32.0695C107.521 32.5461 108.557 32.4489 108.659 32.9139L108.564 33.0533C107.414 33.134 106.182 33.0914 105.027 33.061C104.836 33.0802 104.704 33.0948 104.517 33.0407C104.472 32.9796 104.439 32.9662 104.458 32.8924C104.579 32.4117 105.255 32.614 105.62 32.3602C106.121 32.0112 106.007 30.2916 106.032 29.7179C105.993 28.1331 106.022 26.5457 106.023 24.9605C106.024 24.2647 106.078 23.5412 106.009 22.8481C105.993 22.6907 105.989 22.4783 105.849 22.3528C105.664 22.1876 105.05 22.2141 104.785 22.226C104.254 22.2495 103.452 22.39 103.092 22.7045C102.706 23.0417 102.744 23.577 102.308 23.9368L102.164 23.9387C102.047 23.8431 102.022 23.7897 102.02 23.6561C102.013 23.2863 102.494 21.3048 102.655 20.8882Z" fill="white"/>
<path d="M135.587 21.3835C136.044 21.3635 136.451 21.4292 136.892 21.5156C137.113 21.5586 137.4 21.6043 137.507 21.7782C137.721 22.1273 137.813 23.6095 137.635 23.9594L137.419 23.9947C136.808 23.1937 137.211 22.956 136.11 22.1373L135.396 21.9967C135.161 22.0486 134.888 22.0943 134.679 22.1933C134.225 22.4088 133.934 22.812 133.822 23.2052C133.22 25.3057 135.802 26.1843 137.028 27.6707C137.917 28.7498 138.09 30.1483 137.703 31.3813C137.53 31.9324 137.027 32.7031 136.378 32.9957C135.643 33.3271 134.742 33.4642 133.914 33.2818C133.655 33.2142 133.387 33.15 133.141 33.0571C132.77 32.9162 132.523 32.7038 132.406 32.3947C132.267 32.0322 131.955 30.4751 132.211 30.1825C132.264 30.1211 132.308 30.1387 132.394 30.1333C132.775 30.3618 132.985 31.3971 133.246 31.7868C133.592 32.3033 134.205 32.5322 134.885 32.7027C135.126 32.6447 135.378 32.6174 135.626 32.5833C135.802 32.4673 135.994 32.3498 136.142 32.2119C136.501 31.8805 136.624 31.4551 136.688 31.0373C137.105 28.3017 133.088 27.7049 132.681 24.909C132.546 23.9828 132.781 22.8227 133.574 22.0904C134.115 21.5916 134.779 21.4434 135.587 21.3835Z" fill="white"/>
<path d="M59.8615 30.5907C60.6234 28.5201 61.3978 26.4408 62.0753 24.3529C62.2292 23.8787 62.5863 23.0516 62.6516 22.6269C62.6714 22.4982 62.6449 22.4564 62.5754 22.3438C62.4391 22.2813 62.315 22.2463 62.1642 22.2071C61.9399 22.1492 61.7754 22.0866 61.6158 21.9506L61.5988 21.7982C62.0081 21.5075 63.5818 21.5755 64.1518 21.6004C64.3722 21.6096 64.5364 21.6334 64.7223 21.7256C64.8113 21.8385 64.8119 21.8473 64.8007 21.9794C64.6164 22.1618 64.2631 22.1791 63.9934 22.2517C62.9914 23.383 60.9409 29.5677 60.3959 31.1916C60.2001 31.7745 60.0996 32.4646 59.8324 33.0222C59.7517 33.19 59.6663 33.2829 59.4548 33.3566L59.3271 33.342L59.3431 33.2414L59.3466 33.3136C59.2449 33.1927 58.4221 30.5515 58.4135 30.3768C58.065 29.537 57.8119 28.6492 57.5351 27.7928C57.0666 26.6573 56.7485 25.4608 56.3585 24.3065C56.186 23.7954 56.0349 23.2359 55.7424 22.7586C55.6173 22.5543 55.4176 22.3266 55.1549 22.216C55.0679 22.1791 54.9735 22.1607 54.8813 22.1346C54.8125 22.115 54.745 22.0939 54.6768 22.0731C54.6141 21.9414 54.6333 21.8504 54.6589 21.7164C54.7789 21.6073 54.8429 21.6308 55.0237 21.6188C55.7741 21.5689 57.3783 21.5167 58.0353 21.7275L58.1437 21.8312C58.0861 21.9936 57.9831 22.0639 57.7914 22.143C57.5956 22.2237 57.3473 22.2701 57.1354 22.3223C57.9258 25.1044 59.0033 27.8228 59.8615 30.5907Z" fill="white"/>
<path d="M57.5371 27.7933L57.6107 27.7354C57.6942 27.882 57.7381 28.0295 57.8485 28.1674L57.8459 28.1412C58.1125 28.6639 58.6866 29.8543 58.4155 30.3773C58.067 29.5375 57.8139 28.6497 57.5371 27.7933Z" fill="white"/>
<path d="M46.9087 26.5995C46.9003 25.8269 47.1166 22.7633 46.5109 22.3106C46.2417 22.109 45.7315 22.2272 45.6921 21.8382C45.6884 21.8021 45.7037 21.7706 45.7163 21.7372C45.8837 21.657 46.0525 21.6405 46.2454 21.6278C47.4649 21.5464 48.7583 21.6174 49.9842 21.6205C50.5698 21.6217 51.3162 21.5472 51.8809 21.6359C52.0046 21.6551 52.1483 21.7015 52.2178 21.7856C52.2827 21.8647 52.3128 21.935 52.3272 22.0272C52.3867 22.4012 52.3131 22.7917 52.3522 23.1673C52.3752 23.3884 52.5282 23.6503 52.4571 23.8665C52.4216 23.974 52.365 24.0347 52.2443 24.0896C52.1615 24.0789 52.1144 24.0919 52.0649 24.0332C51.5507 23.4222 51.857 22.5671 50.6764 22.3267C50.2652 22.2434 48.7336 22.1278 48.3701 22.2856C48.2196 22.3513 48.1652 22.6489 48.1443 22.7687C48.0564 23.274 48.035 26.0365 48.1503 26.452C48.1857 26.5795 48.2897 26.6959 48.3804 26.8034C48.9892 26.8034 50.2281 26.8852 50.695 26.5899C50.9722 26.2358 50.8459 25.7362 51.1372 25.3403L51.2819 25.315C51.4235 25.3856 51.4577 25.4317 51.4884 25.5627C51.5986 26.0311 51.4251 26.6294 51.4057 27.1098C51.382 27.6969 51.5505 28.2891 51.4872 28.8758C51.3457 28.9415 51.3542 28.9684 51.1841 28.9415C50.5331 28.3808 51.3803 27.5921 49.9158 27.5268C49.4611 27.5065 48.5158 27.4569 48.1366 27.6459C48.1207 27.6539 48.1036 27.6601 48.087 27.667C48.2336 28.7599 47.9117 30.2939 48.1939 31.2881C48.2521 31.651 48.3019 31.9605 48.6909 32.2051C49.1755 32.5096 50.2301 32.4739 50.8187 32.4013C50.8944 32.3921 50.9696 32.3806 51.045 32.3702C51.2055 32.3483 51.3658 32.3472 51.5283 32.3464L51.602 32.3069C52.501 31.8169 52.4965 30.8024 53.1455 30.476C53.2767 30.5432 53.2709 30.5439 53.2965 30.6595C53.429 31.257 52.9317 32.4716 52.7413 33.0983C50.5558 33.0653 48.3697 33.091 46.184 33.0749L46.15 33.1432L46.2166 33.071C45.9913 33.0745 45.697 33.106 45.4824 33.0526L45.4434 32.9927L45.4748 32.73C45.6281 32.5818 45.8114 32.5626 46.0369 32.5023C46.1603 32.492 46.362 32.4893 46.466 32.4347C47.1311 32.0868 46.9026 27.4389 46.9087 26.5995Z" fill="white"/>
<path d="M46.9087 26.599L46.9803 26.5172C47.0165 25.8994 46.8459 24.7927 46.9899 24.2705L47.0211 24.2559C47.0925 25.2831 47.0044 26.3283 47.0168 27.3582C47.0295 28.4154 47.4631 31.8921 46.6614 32.6321C46.5605 32.6048 46.6103 32.6282 46.525 32.5476L46.454 32.563C46.4823 32.649 46.4699 32.7181 46.5749 32.7665C47.0843 33.0011 47.6399 32.7542 48.1046 32.8959C47.706 33.056 45.9911 32.9838 45.4434 32.9923L45.4748 32.7296C45.6281 32.5814 45.8114 32.5622 46.0369 32.5019C46.1603 32.4915 46.362 32.4888 46.466 32.4343C47.1311 32.0864 46.9026 27.4385 46.9087 26.599Z" fill="white"/>
<path d="M80.5709 22.1738C80.3745 22.1358 80.2618 22.1315 80.1121 22.0229C80.0861 21.8984 80.0913 21.8462 80.1581 21.731C80.2673 21.6577 80.3594 21.6162 80.5063 21.6047C81.0077 21.5644 81.5953 21.6316 82.1076 21.6312L86.6439 21.6189C86.7143 22.2056 87.0161 23.5596 86.6987 24.0416L86.5614 24.1041L86.4366 24.065L86.4148 23.9809C86.2647 23.411 86.0647 22.9913 85.6276 22.5102C85.0282 22.3093 83.4254 22.0847 82.8404 22.2771C82.6954 22.3251 82.6244 22.3976 82.5806 22.5117C82.4612 22.8204 82.5105 26.4201 82.6554 26.6781C83.1908 26.8878 83.9841 26.8908 84.5505 26.7445C84.8526 26.6666 85.0938 26.5372 85.2362 26.3114C85.4346 25.9973 85.266 25.5507 85.6097 25.3022L85.7441 25.3168C85.7748 25.3495 85.817 25.3767 85.8362 25.414C85.9348 25.6071 85.881 28.458 85.8228 28.7613C85.8068 28.8439 85.779 28.9184 85.7473 28.9979L85.6513 29.0451C85.2254 28.8039 85.3761 28.0736 85.0804 27.7084C84.8135 27.3785 83.0718 27.5429 82.5633 27.536C82.555 28.5674 82.3866 30.7063 82.6612 31.6448C82.7194 31.8448 82.8289 32.0027 82.9678 32.1747C83.6522 32.4854 84.9031 32.5357 85.6714 32.3667C86.163 32.2584 86.523 32.0073 86.7498 31.6551C86.9786 31.3007 87.011 30.7593 87.4526 30.5258C87.6103 30.5189 87.6235 30.5162 87.7563 30.5807C87.8903 30.9382 87.2903 32.5917 87.1681 33.0882L82.2798 33.0806C81.5348 33.0817 80.705 33.1512 79.9722 33.0652C79.8845 32.9446 79.9073 32.826 79.9137 32.6927C80.2625 32.5368 80.9722 32.4604 81.1169 32.1459C81.1476 32.0787 81.1566 31.9969 81.1687 31.9259C81.3636 31.3491 81.2516 30.5919 81.2497 29.9894C81.2458 28.8109 81.2145 27.6289 81.2574 26.4508C81.1137 25.4078 81.4929 23.5182 81.1476 22.6219C81.041 22.3458 80.8865 22.2993 80.5709 22.1738Z" fill="white"/>
<path d="M80.571 22.1738C80.3746 22.1358 80.2619 22.1315 80.1122 22.0229C80.0862 21.8984 80.0913 21.8462 80.1582 21.731C80.2674 21.6577 80.3595 21.6162 80.5064 21.6047C81.0078 21.5644 81.5954 21.6316 82.1077 21.6312L86.644 21.6189C86.6213 21.7982 86.5999 21.9749 86.5999 22.1553C86.5781 22.13 86.5586 22.1035 86.5343 22.0797C86.3909 21.9411 86.2495 21.8777 86.0162 21.8735C85.541 21.8654 85.0712 21.8869 84.5989 21.8343C85.2616 21.7698 85.8879 21.8178 86.5471 21.8681L86.5586 21.7694C86.3077 21.7099 83.7624 21.7687 83.2952 21.7867L84.3509 21.8416C83.4498 21.915 82.6302 21.8577 81.7323 21.8474C81.4411 21.8439 81.155 21.8723 80.8629 21.8647C81.0251 21.8186 81.1554 21.8013 81.3253 21.7878L81.1218 21.7855L81.1189 21.8516L81.0251 21.7675C80.7659 21.7648 80.4859 21.7233 80.2584 21.8213L80.2232 21.8919C80.3387 21.9933 80.4734 22.0447 80.6245 22.1077L80.6203 22.1538L80.571 22.1738Z" fill="white"/>
<path d="M115.812 21.9769C116.074 21.8268 116.248 21.6225 116.496 21.4727C116.615 21.4005 116.63 21.3994 116.771 21.4159C116.906 21.5538 116.907 21.7047 116.93 21.8706L116.86 21.9524L116.843 21.8978C116.806 21.7838 116.793 21.6862 116.67 21.6083C116.483 21.619 116.44 21.682 116.304 21.778L116.273 21.8548L116.369 21.909C115.852 22.604 115.786 23.3582 115.528 24.1235C115.484 24.0041 115.438 23.8854 115.4 23.7648C115.605 23.162 115.767 22.6009 115.812 21.9769Z" fill="white"/>
<path fill-rule="evenodd" clip-rule="evenodd" d="M116.17 21.7125C116.058 21.8053 115.945 21.8988 115.808 21.9774C115.763 22.6014 115.601 23.1624 115.396 23.7653L113.609 29.4244C113.537 29.6431 113.47 29.8686 113.402 30.0966C113.214 30.7225 113.022 31.3672 112.727 31.9422C112.633 32.125 112.506 32.2713 112.35 32.4253C112.297 32.4394 112.243 32.4531 112.187 32.4669C112.002 32.5136 111.808 32.5623 111.646 32.6354C111.512 32.696 111.433 32.7767 111.393 32.8919C111.485 32.9894 111.558 33.0198 111.71 33.0524C112.197 33.1576 114.195 33.1595 114.589 32.9579C114.664 32.9195 114.664 32.9179 114.669 32.8753C114.67 32.8617 114.672 32.8439 114.677 32.8193C114.444 32.5872 114.089 32.5171 113.737 32.4476C113.689 32.4381 113.641 32.4287 113.593 32.4188C113.691 31.8647 114.312 29.0676 114.686 28.7466C114.787 28.6597 114.872 28.6538 115.017 28.6437L115.022 28.6433C115.361 28.6203 117.247 28.5926 117.433 28.7078C117.721 29.0304 118.467 31.7395 118.445 32.1911C118.435 32.3957 118.174 32.4799 117.912 32.5645C117.738 32.6205 117.564 32.6767 117.462 32.7682C117.441 32.8995 117.459 32.9303 117.523 33.0424C117.527 33.0494 117.532 33.0567 117.536 33.0643C118.31 33.115 119.871 33.1219 120.658 33.0754L120.669 33.0748C120.871 33.0631 121.08 33.051 121.218 32.9264L121.201 32.8066C120.983 32.6 120.767 32.5314 120.521 32.4533C120.419 32.4207 120.311 32.3864 120.195 32.3397C120.055 32.2829 119.977 32.1792 119.919 32.0694C119.605 31.4693 119.428 30.7716 119.259 30.1045C119.206 29.8935 119.153 29.6855 119.097 29.4846L117.68 24.4953C117.605 24.2288 117.538 23.9547 117.471 23.6784C117.322 23.0659 117.171 22.4432 116.926 21.871C116.923 21.8486 116.92 21.8263 116.917 21.8044C116.9 21.6645 116.884 21.5356 116.766 21.4164C116.626 21.3999 116.611 21.401 116.491 21.4732C116.374 21.5445 116.272 21.6282 116.17 21.7125ZM117.19 27.7495C117.283 27.3724 116.359 24.1422 116.128 23.7183C115.902 24.2019 115.755 24.7233 115.61 25.2357C115.563 25.4031 115.516 25.5696 115.466 25.7335C115.412 25.9123 115.355 26.0922 115.297 26.2729C115.138 26.7735 114.977 27.2796 114.882 27.7821C115.139 27.9353 115.515 27.9249 115.844 27.9158C115.895 27.9144 115.944 27.913 115.993 27.9123C116.056 27.9129 116.121 27.9146 116.186 27.9163C116.542 27.9258 116.906 27.9356 117.19 27.7495Z" fill="white"/>
<path d="M100.643 12.5392C100.659 12.4021 100.642 12.235 100.741 12.1206C100.902 12.9416 100.977 14.9411 100.238 15.615C100.178 15.6699 100.17 15.6699 100.104 15.7049L99.9629 15.6123C100.605 14.6089 100.726 13.6551 100.643 12.5392Z" fill="white"/>
<path fill-rule="evenodd" clip-rule="evenodd" d="M99.6353 9.59304C99.132 9.4114 98.6869 9.40065 98.1477 9.42868C97.1566 9.71207 96.5355 10.1095 96.0817 10.8591C95.3675 12.0395 95.2712 13.6853 95.8581 14.908C96.1649 15.5481 96.723 16.2048 97.5505 16.4909C98.0552 16.6652 98.5262 16.674 99.0686 16.6583C100.019 16.401 100.651 15.916 101.081 15.219C101.799 14.054 101.809 12.2929 101.24 11.0906C100.944 10.4632 100.44 9.88334 99.6353 9.59304ZM98.6956 9.88113C98.4871 9.87949 98.2779 9.87785 98.0704 9.88659C97.2544 10.2775 96.8563 10.7272 96.6323 11.4499C96.2486 12.686 96.3584 14.3521 97.2378 15.4554C97.4986 15.7825 97.7927 15.9672 98.1933 16.1784C98.2056 16.1791 98.2178 16.1797 98.23 16.1803C98.7305 16.2057 99.1369 16.2264 99.5523 15.9553C99.6927 15.8636 99.8131 15.753 99.9315 15.6443C99.9429 15.6338 99.9544 15.6233 99.9658 15.6128C100.608 14.6094 100.729 13.6556 100.645 12.5397C100.636 12.4994 100.626 12.4588 100.617 12.4178C100.415 11.5632 100.179 10.5625 99.2064 10.0348C99.1059 9.9799 99.0003 9.93075 98.8944 9.88236C98.8283 9.88218 98.7619 9.88166 98.6956 9.88113Z" fill="white"/>
<path d="M98.2013 30.3392C98.2033 28.6216 98.2292 26.9012 98.2036 25.1836C98.1962 24.6929 98.1927 22.6673 97.7348 22.3658C97.4497 22.178 97.0698 22.2641 96.8029 22.0624C96.762 21.9664 96.7076 21.8674 96.7156 21.7648C96.7191 21.7153 96.7223 21.7142 96.7818 21.6873C97.1188 21.5364 99.6388 21.5955 100.143 21.6635C100.194 21.7917 100.202 21.8466 100.151 21.9753C100.017 22.112 99.8573 22.1393 99.6679 22.2118C99.3089 22.3489 99.1041 22.567 99.0023 22.8639C98.7348 23.6442 98.9095 25.0338 98.9105 25.8948L98.9047 31.6106C98.9025 32.0791 99.0487 32.8022 98.8522 33.2354C98.7044 33.3363 98.7108 33.3314 98.5127 33.3298C98.0743 32.5311 91.9367 24.1695 91.8388 24.1096L91.7978 24.1272C91.5293 24.7689 91.7076 31.7642 91.9658 32.1548C92.0759 32.321 92.1975 32.3556 92.4141 32.4109C92.7124 32.4877 92.9431 32.5618 93.1754 32.7281C93.2336 32.864 93.2384 32.8706 93.1815 33.0057C92.8266 33.1639 90.6829 33.1259 90.2084 33.0664C89.9981 33.0403 89.8743 33.003 89.7485 32.8702C89.8771 32.5695 90.5389 32.4163 90.8906 32.26C90.9152 31.838 90.9802 31.4194 90.9955 30.9962C91.0627 29.1031 91.0055 27.195 91.0026 25.3003C91.0019 24.6518 91.1178 23.5259 90.9536 22.9222C90.7952 22.3389 90.1037 22.4004 89.6653 22.0621C89.512 21.9438 89.5655 21.7714 89.5664 21.6178C90.3773 21.6304 91.1907 21.6197 92.002 21.6201C92.9479 23.4199 94.2432 25.083 95.496 26.7619C96.3882 27.9565 97.2458 29.1745 98.2013 30.3392Z" fill="white"/>
<path fill-rule="evenodd" clip-rule="evenodd" d="M35.7828 32.4662C35.7763 32.4745 35.7698 32.4828 35.7634 32.4912L35.753 32.5534C35.7016 32.5674 35.6479 32.5798 35.5939 32.5922C35.4085 32.635 35.2186 32.6788 35.0999 32.7911L35.1202 32.8925C35.494 32.9232 35.9263 32.9071 36.2963 32.8514L36.0485 32.8249C36.1897 32.8214 36.3444 32.8133 36.5052 32.8049C36.9688 32.7806 37.4837 32.7537 37.8756 32.8249L37.7453 32.8718C37.9457 32.9686 38.1295 32.9597 38.3592 32.9186C38.4032 32.9107 38.4471 32.9021 38.4907 32.8929L38.4986 32.757C38.4114 32.6848 38.3301 32.6333 38.2232 32.5792L38.306 32.5273C38.1033 32.4632 37.8946 32.3972 37.7395 32.2727C37.3276 31.9424 37.3932 29.6965 37.4251 28.6078C37.4303 28.4282 37.4346 28.2802 37.4358 28.1774C37.4457 28.1697 37.4557 28.1619 37.4656 28.1541C37.4805 28.1425 37.4954 28.1309 37.5105 28.1194C37.7054 27.9731 37.8798 27.9178 38.1499 27.9285C38.5076 27.9431 38.7644 28.1497 38.9515 28.3667C39.1945 28.6489 39.3577 28.9796 39.5164 29.3012C39.5549 29.3791 39.593 29.4565 39.632 29.5325C39.6969 29.6589 39.7623 29.7891 39.829 29.9219C40.3094 30.8785 40.856 31.9667 41.7306 32.689C42.1476 33.0335 42.4994 33.1894 43.1109 33.2082C43.1388 33.209 43.1703 33.2102 43.2047 33.2114C43.517 33.2229 44.0664 33.2431 44.2513 33.1106C44.1893 32.8803 43.8827 32.7272 43.5903 32.5811C43.4371 32.5046 43.2878 32.43 43.1795 32.3472C43.0092 32.2172 42.8735 32.0488 42.7457 31.8902C42.7347 31.8765 42.7236 31.8628 42.7126 31.8492C41.8849 30.8281 41.2867 29.6938 40.6946 28.571C40.5113 28.2236 40.3287 27.8773 40.14 27.5357C40.9004 27.0718 41.4425 26.5312 41.7435 25.8127C42.1235 24.9057 42.1118 23.6078 41.5193 22.756C41.1605 22.2399 40.5638 21.8782 39.839 21.7158C39.0958 21.5491 35.7578 21.5088 35.1021 21.7968C34.9384 22.1476 35.2267 22.2419 35.5409 22.3446C35.7764 22.4217 36.0264 22.5034 36.1116 22.7015C36.2959 23.1301 36.2806 30.6484 36.1937 31.4114C36.1515 31.7828 36.0571 32.1038 35.812 32.4283C35.8025 32.441 35.7927 32.4536 35.7828 32.4662ZM37.782 22.2099C37.766 22.209 37.75 22.2081 37.7339 22.2072C37.7257 22.2159 37.7174 22.2246 37.709 22.2333C37.6159 22.3312 37.5157 22.4363 37.4804 22.5547C37.3392 23.0293 37.3753 24.3341 37.4057 25.4331C37.4213 25.9962 37.4353 26.5052 37.4233 26.821C37.4527 26.9354 37.4969 27.0499 37.5407 27.1634C37.558 27.2083 37.5752 27.253 37.5915 27.2975C37.7171 27.2981 37.842 27.3016 37.9659 27.3051C38.5619 27.3217 39.1344 27.3378 39.6431 27.0272C40.2696 26.6443 40.4873 26.0111 40.5648 25.4221C40.6821 24.53 40.5335 23.4859 39.7606 22.7763C39.2313 22.29 38.5441 22.252 37.782 22.2099Z" fill="white"/>
<path d="M74.9166 24.0909L74.9528 23.7515C74.9742 23.8559 74.9944 23.9515 75.0353 24.0529L75.0932 23.9185C75.3156 24.3455 75.2318 25.0225 75.1531 25.4741L75.1496 25.4284C75.1102 25.8892 75.0065 26.3051 74.8174 26.7432C74.7675 26.6595 74.7681 26.5854 74.7556 26.4936C74.6478 26.6372 74.6321 26.7832 74.4472 26.8726L74.3848 26.8538C74.9809 25.9264 75.0366 25.1112 74.9166 24.0909Z" fill="white"/>
<path fill-rule="evenodd" clip-rule="evenodd" d="M71.0129 21.6102C70.6599 21.6192 70.3095 21.6282 69.966 21.6321C69.9414 21.6413 69.9174 21.6501 69.8939 21.6587C69.7106 21.7256 69.5607 21.7804 69.452 21.9278C69.4525 21.939 69.4529 21.9494 69.4532 21.959C69.4561 22.0494 69.457 22.0748 69.5634 22.1497C69.6875 22.2374 69.8622 22.3035 70.0187 22.3628C70.0418 22.3715 70.0645 22.3801 70.0866 22.3886C70.303 22.4712 70.3952 22.5857 70.5185 22.739C70.522 22.7433 70.5254 22.7476 70.5288 22.7518C70.6584 24.2769 70.6531 25.7972 70.6478 27.3231C70.6468 27.6027 70.6458 27.8824 70.6456 28.1624C70.6455 28.4693 70.6517 28.7796 70.658 29.0914C70.6735 29.86 70.6892 30.6371 70.6088 31.3903C70.5816 31.6461 70.5272 32.1438 70.3071 32.3342C70.1979 32.4286 70.0371 32.4706 69.8714 32.5139C69.6764 32.5649 69.4745 32.6177 69.3416 32.7597C69.3247 32.891 69.3237 32.9152 69.3932 33.0346C69.7096 33.1452 72.621 33.1233 72.9327 33.0273C73.0729 32.9843 73.0969 32.9578 73.1737 32.8638C73.1375 32.7516 73.1077 32.6837 72.9781 32.6149C72.8379 32.5407 72.7046 32.4913 72.5743 32.443C72.3763 32.3697 72.1855 32.299 71.989 32.148C71.9771 32.0044 71.9556 31.8617 71.9342 31.7192C71.9098 31.5564 71.8853 31.3938 71.8751 31.2302C71.8151 30.2709 71.8378 29.2935 71.8603 28.3303C71.8624 28.2409 71.8644 28.1517 71.8665 28.0626C72.1954 27.9497 72.4316 27.8963 72.7807 27.9939C73.2572 28.1275 73.5276 28.543 73.7087 28.8832C73.808 29.0697 73.9009 29.2586 73.9939 29.4474C74.1254 29.7146 74.2569 29.9818 74.4063 30.2426C74.4519 30.3249 74.4969 30.407 74.5418 30.4888C75.1272 31.556 75.681 32.5656 77.0153 33.2101C77.0935 33.211 77.1897 33.2149 77.2962 33.2191C77.7427 33.237 78.3706 33.2622 78.6182 33.1068C78.6202 33.0912 78.6235 33.076 78.6268 33.0611C78.6379 33.0097 78.6482 32.9622 78.605 32.9148C78.5159 32.8169 78.3441 32.7688 78.2017 32.729L78.1935 32.7267C77.3466 32.4907 76.3264 30.7439 75.8708 29.964C75.8415 29.9137 75.8145 29.8675 75.79 29.8259C75.3541 29.086 74.9013 28.3037 74.5951 27.5265C75.6857 26.8188 76.2386 25.984 76.3692 24.888C76.4668 24.0697 76.2985 23.0395 75.5961 22.3886C75.1225 21.9497 74.3161 21.6586 73.5842 21.6152C72.7507 21.5656 71.8738 21.5881 71.0129 21.6102ZM71.8499 24.3682L71.8614 27.3058C71.9362 27.3067 72.0097 27.3079 72.0821 27.3091C72.8602 27.3219 73.509 27.3326 74.2029 26.9521L74.3846 26.853C74.9808 25.9257 75.0365 25.1105 74.9165 24.0902C74.7277 23.4784 74.4758 22.8544 73.7357 22.5115C73.2822 22.3015 72.7302 22.1782 72.2038 22.2485C71.9913 22.3645 71.9427 22.4927 71.9011 22.6886C71.8158 23.091 71.8286 23.5245 71.8411 23.9459C71.8454 24.0886 71.8496 24.2299 71.8499 24.3682Z" fill="white"/>
<path d="M0.540482 15.3583C1.03136 14.9701 1.62112 14.5848 2.04257 14.1526L1.98369 14.0094C2.10209 13.8953 2.23169 13.8622 2.40129 13.8099L2.47361 13.7882L2.46529 13.6918L2.36545 13.6684L2.46433 13.6824C2.53345 13.2561 3.57185 13.0721 3.83137 12.6605C3.68577 12.7144 3.57953 12.7962 3.45793 12.8774C3.59201 12.5644 5.42274 11.2248 5.83618 10.8604C7.1709 9.68402 8.49251 8.48828 9.7978 7.29181C10.2215 6.90343 11.7639 5.34139 12.1271 5.16713C12.2192 5.12286 12.3197 5.16283 12.4186 5.17992C11.2544 6.39885 9.93283 7.55431 8.64835 8.69703C6.73922 10.3949 4.81474 12.0553 2.81025 13.6853C1.93825 14.3943 1.06848 15.279 0 15.8098C0.368961 15.357 0.721282 14.8687 1.14784 14.4476L1.18593 14.4992C1.13985 14.757 0.729923 15.1318 0.540482 15.3583Z" fill="white"/>
<path d="M4.28303 23.5984L4.35503 23.4736C4.41039 23.552 4.40399 23.5781 4.41263 23.6652C4.42863 23.8281 4.48559 23.9609 4.55311 24.1138C4.59855 24.2171 4.64591 24.3173 4.66991 24.4252L4.65519 24.2624C4.69775 24.4317 4.68815 24.5972 4.68463 24.7693L4.74927 24.6913C4.95887 24.987 4.96559 25.5703 5.02383 25.9136C5.26319 27.3206 5.45967 28.663 5.41743 30.0881C5.40879 30.3876 5.32015 30.6775 5.30543 30.9739C5.25295 32.0311 5.32527 32.609 5.07695 33.6908C4.99215 34.0598 4.56783 35.3239 4.72911 35.63C6.01263 35.7425 7.37744 35.686 8.66928 35.6787L14.8178 35.663L22.1218 35.6726C22.766 35.6695 24.0812 35.7267 24.6393 35.6722C24.7948 35.6572 24.9202 35.6146 25.0437 35.5432C25.0809 35.6603 25.1199 35.7317 25.0572 35.8477C24.8825 35.9272 24.6978 35.9379 24.4991 35.941C24.1449 35.9468 23.7842 35.9072 23.4287 35.9018C22.6271 35.8899 21.8223 35.9045 21.02 35.9045L10.3346 35.9018C8.27216 35.9022 6.20175 35.8776 4.14062 35.9272C5.77167 31.5995 5.31887 27.9615 4.28303 23.5984Z" fill="white"/>
<path d="M14.6608 7.33838C17.2285 9.58125 19.7694 11.8422 22.2836 14.1213C23.4743 15.1904 24.6368 16.2922 25.8842 17.3218L25.8209 17.4618C25.6471 17.4177 25.5489 17.3675 25.4173 17.2665C24.9041 16.8719 24.4532 16.419 23.9808 15.995L21.2708 13.5681C20.1421 12.5472 18.9447 11.5667 17.8298 10.5374C17.0963 9.86046 15.4928 8.19693 14.6467 7.74891L8.34559 13.3606L5.17182 16.1878C4.48094 16.7992 3.73533 17.3969 3.09341 18.0386C2.95389 18.1781 2.71965 18.3738 2.74045 18.5639C2.77949 18.9163 3.02781 19.1384 2.86461 19.5045L2.33789 18.2888C3.60989 17.2874 4.76574 16.1535 5.94814 15.0874L12.1869 9.5205C13.0122 8.79482 13.8067 8.04375 14.6608 7.33838Z" fill="white"/>
<path d="M3.04906 37.7921C10.7617 37.7214 18.484 37.8025 26.1983 37.7867C26.5396 38.1981 26.8762 38.6117 27.2082 39.0274C27.378 39.1792 27.5404 39.3356 27.6955 39.4967C27.8504 39.6577 27.9976 39.8228 28.1371 39.992L11.1332 39.9774L5.3249 39.9801C4.34698 39.9813 3.33226 40.0247 2.35786 39.9736C1.97641 39.9869 1.59476 39.9957 1.21289 40.0001C1.82057 39.2467 2.51978 38.5912 3.04906 37.7921Z" fill="white"/>
<path d="M3.04906 37.7921C10.7617 37.7214 18.484 37.8025 26.1983 37.7867C26.5396 38.1981 26.8762 38.6117 27.2082 39.0274L27.0789 39.0677C26.7509 38.8692 26.2789 37.9994 25.9986 37.9173C25.804 37.86 25.493 37.9073 25.2863 37.9192C25.42 37.9342 25.444 37.913 25.5323 37.9983C25.269 38.0555 24.4347 38.0947 24.2008 38.0202L24.2661 37.9464C24.4879 37.9537 24.7064 37.958 24.9285 37.953L24.9483 37.9153C24.5922 37.9107 24.2325 37.9142 23.8773 37.8946L23.852 37.9042L23.7691 37.8328L23.8213 37.7905L23.7727 37.9772L23.7198 37.9576L23.7362 37.943C23.6235 37.9676 23.6069 37.9814 23.4885 37.9587L23.5173 37.9495C22.0341 37.8524 3.46026 37.8558 3.16106 37.9426C3.03722 38.0636 2.95306 38.158 2.88874 38.3047L3.02538 38.2356C3.0625 38.6611 1.89161 39.3139 1.98473 39.7413L2.10442 39.8185L2.08105 39.8162C2.46442 39.9064 2.88938 39.8749 3.28778 39.8814C2.97898 39.8914 2.64458 39.8764 2.35786 39.9736C1.97641 39.9869 1.59476 39.9957 1.21289 40.0001C1.82057 39.2467 2.51978 38.5912 3.04906 37.7921Z" fill="white"/>
<path d="M14.6265 0C15.191 0.422594 15.67 0.985655 16.1542 1.46681C17.2697 2.55648 18.3537 3.66467 19.406 4.79138C21.6057 7.1071 23.9273 9.38499 25.9302 11.8064C26.4509 12.1368 28.9651 15.2729 29.3427 15.8761C28.6035 15.4894 28.0057 14.8681 27.375 14.3807C22.8086 10.8523 18.768 6.91249 14.6313 3.08257C13.9231 3.79274 13.2118 4.52576 12.4191 5.1806C12.3203 5.16351 12.2198 5.12354 12.1276 5.16781C11.7644 5.34207 10.222 6.90411 9.79833 7.29249C8.49304 8.48896 7.17144 9.68471 5.83671 10.8611C5.42327 11.2255 3.59255 12.5651 3.45847 12.8781C3.58007 12.7969 3.68631 12.7151 3.83191 12.6612C3.57238 13.0728 2.53398 13.2568 2.46486 13.6831L2.36598 13.6691L2.46582 13.6925L2.47414 13.7888L2.40182 13.8106C2.23222 13.8629 2.10262 13.896 1.98422 14.0101L2.0431 14.1533C1.62166 14.5855 1.0319 14.9708 0.541016 15.359C0.730456 15.1325 1.14038 14.7577 1.18646 14.4999L1.14838 14.4483C1.37366 14.0009 2.64662 12.5523 3.06934 12.1459C3.62103 11.3448 4.80631 10.2209 5.51287 9.44709C7.30584 7.48315 9.13369 5.56318 11.0207 3.65335C12.2214 2.43856 13.4915 1.25058 14.6265 0Z" fill="white"/>
<path d="M14.6294 0C15.1939 0.422594 15.6729 0.985655 16.1571 1.46681C17.2726 2.55648 18.3566 3.66467 19.409 4.79138C21.6086 7.1071 23.9303 9.38499 25.9331 11.8064L25.7984 11.8506C25.4192 11.6667 25.0458 11.0237 24.7658 10.7326L19.1357 4.83684C18.1459 3.79171 17.1642 2.74526 16.1302 1.72536C15.7686 1.36885 15.3773 0.913693 14.9312 0.620047C14.7677 0.512604 14.7238 0.504386 14.5155 0.533455C14.1366 0.85448 13.8182 1.28118 13.4672 1.63124C12.3909 2.69582 11.3304 3.7697 10.2857 4.85289C9.79485 5.36219 9.28285 5.98489 8.69309 6.41866L8.66812 6.41447C8.71004 6.30926 8.75612 6.2141 8.76316 6.10339C8.63804 6.21902 8.6118 6.25826 8.58332 6.4056C8.56764 6.48782 8.54141 6.55744 8.48573 6.6289C7.8838 7.40001 7.111 8.14559 6.439 8.88521C5.99195 9.37735 5.53404 9.86123 5.07739 10.3476C4.88571 10.5517 4.74235 10.7848 4.53627 10.9797C4.50171 10.7241 4.76443 10.6644 4.84091 10.4486C4.63291 10.6251 4.39131 10.8071 4.22331 11.0074C3.94939 11.3346 3.79867 12.0035 3.29755 12.1495L3.29786 12.1207L3.19611 12.1571C3.15483 12.1548 3.11003 12.1595 3.07227 12.1459C3.62395 11.3448 4.80923 10.2209 5.51579 9.44709C7.30876 7.48315 9.13661 5.56318 11.0237 3.65335C12.2243 2.43856 13.4944 1.25058 14.6294 0Z" fill="white"/>
<path d="M15.5334 20.1899C15.6921 20.2768 15.799 20.327 15.8473 20.483C15.8838 20.6 15.8947 20.7315 15.912 20.8508C15.8873 20.9748 15.8681 21.0807 15.8861 21.2062C15.8909 21.239 15.8966 21.2717 15.9017 21.3045L15.7616 21.2963L15.8592 21.3224C15.6867 20.1333 15.1356 20.6095 14.8848 20.2486C15.0643 20.1781 15.3302 20.1957 15.5334 20.1899Z" fill="white"/>
<path d="M20.8644 20.2973L21.059 20.2485C21.5192 20.5241 21.6366 21.2186 21.7099 21.6425C21.7835 22.067 21.7518 22.4912 21.6769 22.914C21.4833 24.0115 21.0254 24.4972 20.1905 25.3662C20.4273 25.88 20.6164 26.4042 20.8539 26.918C20.9569 27.1403 21.2145 27.464 21.2561 27.6864C21.2696 27.7593 21.2625 27.7666 21.2472 27.8292C20.6424 26.9971 20.2168 26.0359 19.7812 25.1427C19.8261 25.1166 19.8702 25.0898 19.9137 25.0621C19.9572 25.0345 20 25.0062 20.042 24.9772C20.0841 24.9486 20.1254 24.9191 20.1659 24.8889C20.2064 24.8587 20.2462 24.828 20.2853 24.7968C20.3241 24.7653 20.3623 24.7334 20.3998 24.7011C20.4371 24.6686 20.4736 24.6355 20.5093 24.6017C20.5449 24.5682 20.5796 24.5341 20.6136 24.4995C20.6477 24.4647 20.6808 24.4295 20.7128 24.3939C20.745 24.3581 20.7762 24.3219 20.8065 24.2853C20.837 24.2487 20.8665 24.2117 20.8948 24.1743C20.9232 24.1367 20.9507 24.0986 20.9774 24.0602C21.0039 24.0218 21.0294 23.9831 21.0539 23.9439C21.0784 23.905 21.102 23.8656 21.1246 23.8256C21.1472 23.7857 21.1688 23.7455 21.1893 23.705C21.2097 23.6646 21.2292 23.6238 21.2478 23.5825C21.2662 23.5416 21.2835 23.5002 21.3 23.4585C21.7313 22.3735 21.5397 21.2867 20.8644 20.2973Z" fill="white"/>
<path fill-rule="evenodd" clip-rule="evenodd" d="M17.206 9.94017C16.3994 9.15921 15.2992 8.09392 14.6478 7.74902L8.34667 13.3607L5.1729 16.188C4.9567 16.3793 4.73514 16.5692 4.51308 16.7596C4.02552 17.1777 3.53554 17.5978 3.09449 18.0387C3.07664 18.0566 3.05724 18.0753 3.03702 18.0949C2.89921 18.2282 2.72339 18.3982 2.74153 18.564C2.75545 18.6896 2.79598 18.7987 2.83498 18.9037C2.90534 19.0931 2.9707 19.2691 2.86569 19.5046C2.96999 19.7949 3.08018 20.0834 3.19036 20.3719C3.34691 20.7818 3.50343 21.1917 3.64298 21.6065C3.73513 21.8801 3.81867 22.1566 3.90222 22.4332C4.02031 22.8241 4.13845 23.2151 4.28106 23.5983L4.35306 23.4735C4.40019 23.5402 4.40256 23.5691 4.40755 23.63C4.40842 23.6406 4.40937 23.6522 4.41066 23.6651C4.42666 23.828 4.48362 23.9608 4.55114 24.1137C4.5561 24.1249 4.56109 24.1362 4.56607 24.1474C4.60665 24.2389 4.64656 24.329 4.66794 24.4251L4.65322 24.2623C4.69124 24.4136 4.68763 24.5618 4.68392 24.7143C4.68348 24.7325 4.68303 24.7508 4.68266 24.7692L4.7473 24.6912C4.90445 24.9129 4.94755 25.2963 4.98383 25.6189C4.99594 25.7266 5.00729 25.8276 5.02186 25.9135C5.26122 27.3205 5.4577 28.6629 5.41546 30.088C5.41096 30.244 5.38474 30.3975 5.35857 30.5506C5.33452 30.6914 5.31051 30.8319 5.30346 30.9738C5.28927 31.2598 5.2842 31.5107 5.27945 31.746C5.26665 32.3805 5.25613 32.9015 5.07498 33.6907C5.05657 33.7708 5.02214 33.8931 4.98118 34.0387C4.83351 34.5635 4.60088 35.3903 4.72714 35.6299C5.72459 35.7173 6.77112 35.7027 7.79435 35.6884C8.08782 35.6843 8.37938 35.6803 8.66731 35.6786L14.8158 35.6629L22.1198 35.6725C22.3309 35.6715 22.614 35.6769 22.9189 35.6828C23.5446 35.6949 24.2621 35.7088 24.6373 35.6721C24.7928 35.6571 24.9183 35.6145 25.0418 35.5431C24.9605 35.326 24.8843 35.1077 24.8133 34.8884C24.742 34.669 24.6759 34.4487 24.6149 34.2275C24.5539 34.0063 24.498 33.7845 24.4472 33.562C24.3964 33.3393 24.3508 33.1159 24.3102 32.8919C24.2699 32.6679 24.2346 32.4434 24.2043 32.2184C24.1742 31.9936 24.1494 31.7683 24.1298 31.5425C24.1099 31.317 24.0954 31.0912 24.0862 30.8652C24.0769 30.6391 24.0727 30.4131 24.0738 30.187C24.0773 29.7494 24.1094 29.3115 24.1416 28.8736C24.1623 28.5915 24.183 28.3094 24.196 28.0274C24.2879 27.5817 24.3534 27.1319 24.419 26.6817C24.4827 26.2444 24.5464 25.8068 24.6344 25.3724C24.8102 24.5299 25.021 23.6926 25.2667 22.8605C25.5127 22.0285 25.793 21.2036 26.1077 20.3856C26.1481 20.2768 26.188 20.1655 26.2283 20.0529C26.4311 19.4874 26.6458 18.8883 27.0021 18.3887C26.7662 18.0898 26.4539 17.8184 26.1479 17.5524C26.0592 17.4753 25.971 17.3986 25.8853 17.3219L25.8219 17.462C25.6482 17.4178 25.5499 17.3676 25.4184 17.2666C25.0569 16.9887 24.7264 16.6819 24.3975 16.3766C24.2594 16.2484 24.1216 16.1205 23.9819 15.9951L21.2718 13.5682C20.7598 13.1051 20.2336 12.6502 19.7074 12.1954C19.0737 11.6477 18.44 11.0999 17.8309 10.5375C17.6621 10.3817 17.4472 10.1737 17.206 9.94017ZM15.528 20.1899L15.5054 20.1873L15.5051 20.1872C15.2995 20.1631 14.8981 20.1159 14.7968 19.9607C14.7868 19.9453 14.7369 19.8406 14.7153 19.7951L14.7065 19.7767C15.1659 19.406 16.5629 19.389 17.2348 19.3809L17.2591 19.3805C18.5875 19.3643 19.7814 19.4711 20.7651 20.2219L20.8071 20.2547L20.8604 20.2976C21.5356 21.287 21.7273 22.3738 21.296 23.4588C21.2795 23.5005 21.2621 23.5419 21.2438 23.5828C21.2253 23.624 21.2058 23.6649 21.1853 23.7053C21.1648 23.7457 21.1433 23.7859 21.1206 23.8259L21.0963 23.868C21.0813 23.8936 21.0658 23.919 21.0499 23.9442C21.0254 23.9833 20.9999 24.0221 20.9734 24.0605L20.9622 24.0766L20.9368 24.1123C20.9218 24.1332 20.9064 24.1539 20.8909 24.1746C20.8625 24.2119 20.833 24.2489 20.8025 24.2855C20.7723 24.3221 20.741 24.3583 20.7088 24.3942C20.6768 24.4298 20.6436 24.465 20.6095 24.4998C20.5756 24.5344 20.5409 24.5684 20.5053 24.6019C20.4696 24.6357 20.4331 24.6689 20.3958 24.7014C20.3583 24.7336 20.32 24.7655 20.2813 24.797L20.2441 24.8263C20.217 24.8475 20.1896 24.8685 20.1619 24.8892C20.1214 24.9194 20.08 24.9488 20.038 24.9775C19.996 25.0064 19.9533 25.0347 19.9098 25.0624C19.8661 25.09 19.822 25.1169 19.7773 25.143C19.8425 25.2769 19.9076 25.4124 19.9731 25.5488L19.9739 25.5504C20.3451 26.3227 20.7295 27.1226 21.2431 27.8295C21.4729 28.3817 22.1168 29.357 22.6397 29.7706C22.7467 29.8551 22.9034 29.9287 23.0622 30.0032C23.29 30.1101 23.5219 30.2189 23.6163 30.3647C23.6349 30.3932 23.6393 30.4143 23.636 30.4341C23.6332 30.4508 23.6251 30.4666 23.6155 30.4852C23.6098 30.4963 23.6037 30.5083 23.5978 30.5221C23.3507 30.6638 23.0912 30.673 22.792 30.6584C20.9368 30.567 20.0304 28.7162 19.3828 27.3937L19.3828 27.3936C19.2825 27.1888 19.1884 26.9967 19.0979 26.8257C19.0703 26.7735 19.0425 26.7194 19.0143 26.6643C18.8419 26.3283 18.6484 25.9513 18.3318 25.7029C18.1211 25.5375 17.7193 25.5595 17.3983 25.5771L17.398 25.5771C17.3308 25.5807 17.2672 25.5842 17.2095 25.5858C17.1593 26.0508 17.1008 28.6954 17.2083 29.041C17.4641 29.8636 17.7352 29.8966 17.9802 29.9264L17.9803 29.9264L17.9804 29.9264C18.1082 29.9419 18.2289 29.9566 18.3366 30.0824C18.4288 30.1903 18.4333 30.2264 18.3986 30.3431C18.085 30.566 16.9135 30.5457 16.0824 30.5314L16.0816 30.5314L16.081 30.5313C15.8155 30.5267 15.5849 30.5227 15.4281 30.5275L15.3997 30.5283C15.1481 30.5362 14.9474 30.5425 14.7471 30.3992C14.6645 30.1546 14.898 30.0452 15.1739 29.9161L15.174 29.916L15.1744 29.9159L15.1744 29.9158C15.3912 29.8143 15.6341 29.7005 15.7701 29.4991C15.8655 29.3582 15.951 29.2069 15.9648 29.046C16.0173 28.4266 15.9801 21.0314 15.9065 20.8508C15.9026 20.8241 15.8991 20.7967 15.8955 20.7691L15.8955 20.7691L15.8955 20.7689C15.8831 20.6732 15.8702 20.5738 15.8419 20.4831C15.7963 20.3361 15.6988 20.283 15.5551 20.2047L15.528 20.1899ZM17.5718 20.0346C18.0189 20.0075 18.5933 20.1338 18.968 20.3223C19.6243 20.6522 19.9219 21.2311 20.0581 21.8042C20.2995 22.819 20.1203 23.7698 19.36 24.6261C19.2281 24.6903 19.0835 24.7494 18.9414 24.7981C18.511 24.9452 17.767 25.0635 17.3206 24.9295L17.3465 24.8158L17.2803 24.8638C17.1305 24.3915 17.1059 20.8964 17.2003 20.3626C17.2233 20.2322 17.3665 20.1513 17.5001 20.0758L17.5001 20.0758C17.5246 20.062 17.5488 20.0483 17.5718 20.0346ZM9.55735 25.1638C9.15798 24.8903 8.79123 24.6177 8.5001 24.269C7.8121 23.4457 7.63122 22.2721 7.8981 21.3236C8.07322 20.7021 8.47985 20.1478 9.19673 19.8138C10.4275 19.2402 11.9321 19.3706 13.2822 19.4876L13.3145 19.4904C13.4334 19.5008 13.5659 19.4993 13.7003 19.4979L13.7011 19.4979L13.7014 19.4979C13.9159 19.4955 14.1355 19.4932 14.3129 19.5382C14.4368 19.5696 14.4704 19.6186 14.52 19.6909L14.52 19.6909L14.52 19.691C14.5309 19.707 14.5427 19.7241 14.5564 19.7424C14.5422 19.7726 14.5305 19.8019 14.5192 19.8301C14.4729 19.9457 14.4339 20.0429 14.269 20.1039C14.2596 20.1073 14.2279 20.1156 14.192 20.1246C14.1545 20.134 14.1123 20.1442 14.0864 20.1505L14.0632 20.1561C13.8031 20.2209 13.639 20.2866 13.5094 20.4819C13.4415 20.5843 13.4072 20.6702 13.3992 20.7843C13.3359 21.7044 13.3039 28.9009 13.4675 29.3448C13.5067 29.6784 13.7925 29.7939 14.0777 29.9092C14.3151 30.0052 14.5521 30.1011 14.6464 30.3224C14.6353 30.3354 14.6265 30.3464 14.619 30.3559C14.584 30.3998 14.5751 30.4111 14.4802 30.4392C14.0511 30.567 11.4566 30.5694 11.0719 30.4284C11.0577 30.4136 11.0445 30.4012 11.0325 30.3901C10.9891 30.3499 10.9625 30.3251 10.9717 30.2545C11.0011 30.0304 11.2086 29.9759 11.4234 29.9195L11.4235 29.9194L11.4236 29.9194C11.569 29.8812 11.7178 29.8421 11.8166 29.7487C12.2606 29.3281 12.1714 27.91 12.13 27.2518L12.13 27.2516L12.1231 27.1406C12.1436 26.623 12.1459 26.1052 12.1299 25.5873L11.9953 25.5824C11.7446 25.573 11.4943 25.5636 11.2435 25.5727C10.6077 25.895 10.2442 26.6523 9.83687 27.5009L9.83685 27.5009C9.2696 28.6828 8.61723 30.042 7.0261 30.6504C6.81847 30.6187 6.60584 30.6204 6.39172 30.6221H6.39136C6.15848 30.6239 5.92372 30.6257 5.69147 30.5847C5.64947 30.4369 5.64984 30.4081 5.70609 30.2633L5.70858 30.2613C5.74992 30.2281 5.78632 30.1989 5.82897 30.1754C5.86222 30.1571 5.89922 30.1422 5.94522 30.1316C5.97345 30.1249 6.00228 30.1192 6.03112 30.1136L6.03384 30.113C6.08372 30.1033 6.13372 30.0935 6.18134 30.0786C7.16328 29.7714 8.80268 26.6158 9.43325 25.402L9.43326 25.402L9.43385 25.4009L9.43948 25.39C9.48416 25.304 9.52364 25.2279 9.55735 25.1638ZM9.53048 24.0966C9.32535 23.799 9.22998 23.4354 9.18648 23.1005C9.08048 22.2846 9.2146 21.2875 9.92886 20.6428C10.2782 20.3273 10.869 20.0475 11.4155 20.0255C11.6232 20.0171 11.8294 20.0671 11.9755 20.1858C12.1802 20.3522 12.1609 20.5537 12.1407 20.7611C12.1382 20.7875 12.1357 20.8139 12.1336 20.8404C12.1615 21.4311 12.1567 22.0244 12.152 22.6167L12.152 22.6173C12.1502 22.8366 12.1485 23.0557 12.1484 23.2745C12.1484 23.4051 12.1527 23.5388 12.1572 23.6738L12.1573 23.6745V23.6745C12.1695 24.0478 12.1821 24.4308 12.1026 24.7863C11.8661 24.9679 11.5116 24.9664 11.1912 24.9622C10.9192 24.9583 10.7004 24.9349 10.4581 24.8408C10.0197 24.6711 9.71923 24.5447 9.55348 24.1607C9.54734 24.1461 9.54233 24.1313 9.5373 24.1165L9.53048 24.0966Z" fill="white"/>
</svg>
