<svg width="13" height="8" viewBox="0 0 13 8" fill="none" xmlns="http://www.w3.org/2000/svg">
<path d="M2.00943 1.07987L2.00942 1.07987C1.8987 0.967108 1.74815 0.903418 1.59077 0.903418C1.43339 0.903418 1.28283 0.967108 1.17211 1.07987C1.06146 1.19257 0.999609 1.34504 0.999609 1.50364C0.999609 1.66224 1.06146 1.81471 1.17211 1.92741L6.08091 6.92681C6.08093 6.92683 6.08094 6.92684 6.08095 6.92685C6.13574 6.9827 6.20089 7.0271 6.27273 7.05744C6.3446 7.08778 6.4217 7.10342 6.49961 7.10342C6.57752 7.10342 6.65462 7.08778 6.72648 7.05744C6.79833 7.0271 6.86348 6.9827 6.91826 6.92685C6.91828 6.92684 6.91829 6.92683 6.9183 6.92681L11.8271 1.92741C11.8819 1.87159 11.9253 1.80543 11.9549 1.73274C11.9844 1.66006 11.9996 1.58221 11.9996 1.50364C11.9996 1.42507 11.9844 1.34723 11.9549 1.27454C11.9253 1.20185 11.8819 1.13569 11.8271 1.07987C11.7723 1.02405 11.7071 0.97967 11.6353 0.949358C11.5634 0.919044 11.4863 0.903418 11.4085 0.903418C11.3306 0.903418 11.2535 0.919044 11.1816 0.949358C11.1098 0.979669 11.0446 1.02405 10.9898 1.07987L10.9898 1.07987L6.49961 5.65354L2.00943 1.07987Z" fill="white" stroke="white" stroke-width="0.2"/>
</svg>
