<svg width="16" height="14" viewBox="0 0 16 14" fill="none" xmlns="http://www.w3.org/2000/svg">
<path d="M11.4055 0.256836C11.9887 0.256746 12.5502 0.478509 12.9759 0.877143C13.4017 1.27578 13.6599 1.82143 13.6982 2.40343L13.7028 2.55413V4.89738C14.1951 4.99808 14.641 5.25741 14.9719 5.63565C15.3028 6.01389 15.5007 6.49019 15.5351 6.99159L15.5406 7.14873V12.6622C15.5408 12.7771 15.498 12.8878 15.4207 12.9726C15.3433 13.0575 15.237 13.1103 15.1226 13.1207C15.0083 13.131 14.8942 13.0982 14.8029 13.0287C14.7115 12.9591 14.6495 12.8579 14.629 12.7449L14.6217 12.6622V10.3649H1.75681V12.6622C1.75702 12.7771 1.71424 12.8878 1.63688 12.9726C1.55953 13.0575 1.45321 13.1103 1.33887 13.1207C1.22452 13.131 1.11043 13.0982 1.01907 13.0287C0.927712 12.9591 0.865697 12.8579 0.845242 12.7449L0.837891 12.6622V7.14873C0.837783 6.61913 1.02066 6.10576 1.35556 5.6955C1.69047 5.28524 2.15683 5.0033 2.67573 4.89738V2.55413C2.67564 1.97088 2.8974 1.40943 3.29604 0.983659C3.69467 0.557893 4.24032 0.299692 4.82232 0.261431L4.97303 0.256836H11.4055ZM13.2433 5.77035H3.13519C2.79268 5.77034 2.46244 5.89786 2.20882 6.12804C1.95519 6.35822 1.79635 6.67458 1.76324 7.01548L1.75681 7.14873V9.44602H14.6217V7.14873C14.6217 6.80622 14.4942 6.47598 14.264 6.22236C14.0338 5.96873 13.7174 5.80989 13.3765 5.77678L13.2433 5.77035ZM11.4055 1.17575H4.97303C4.63038 1.17577 4.30002 1.30341 4.04637 1.53378C3.79272 1.76416 3.63397 2.08074 3.60108 2.42181L3.59465 2.55413V4.85143H4.51357V4.39197C4.51357 4.27011 4.56197 4.15325 4.64814 4.06708C4.7343 3.98092 4.85117 3.93251 4.97303 3.93251H7.27032C7.39218 3.93251 7.50905 3.98092 7.59521 4.06708C7.68138 4.15325 7.72978 4.27011 7.72978 4.39197V4.85143H8.6487V4.39197C8.6487 4.27011 8.69711 4.15325 8.78327 4.06708C8.86944 3.98092 8.98631 3.93251 9.10816 3.93251H11.4055C11.5273 3.93251 11.6442 3.98092 11.7303 4.06708C11.8165 4.15325 11.8649 4.27011 11.8649 4.39197V4.85143H12.7838V2.55413C12.7838 2.21163 12.6563 1.88139 12.4261 1.62776C12.196 1.37414 11.8796 1.2153 11.5387 1.18219L11.4055 1.17575Z" fill="black"/>
</svg>
