<svg xmlns="http://www.w3.org/2000/svg" width="330" height="189" fill="none"><g filter="url(#a)"><path fill="#E1E1E1" fill-opacity=".2" d="M61 24.286a5 5 0 0 1 5-5h259a5 5 0 0 1 5 5V184a5 5 0 0 1-5 5H66a5 5 0 0 1-5-5z"/><path stroke="#fff" stroke-linejoin="bevel" stroke-opacity=".2" stroke-width="2" d="M62 24.286a4 4 0 0 1 4-4h259a4 4 0 0 1 4 4V184a4 4 0 0 1-4 4H66a4 4 0 0 1-4-4z"/></g><path fill="#fff" fill-opacity=".3" d="M61 43.393h269v28.929H61z"/><rect width="269" height="169.714" fill="#000" rx="5"/><path fill="#fff" fill-opacity=".3" fill-rule="evenodd" d="M239.075 39.05c0-4.942-2.483-8.842-7.228-8.842-4.765 0-7.648 3.9-7.648 8.804 0 5.81 3.404 8.745 8.289 8.745 2.383 0 4.185-.521 5.546-1.255v-3.86c-1.361.655-2.923 1.06-4.905 1.06-1.942 0-3.664-.655-3.884-2.934h9.79c0-.25.04-1.255.04-1.718m-9.89-1.834c0-2.182 1.381-3.089 2.642-3.089 1.222 0 2.523.907 2.523 3.089zm-12.713-7.008c-1.962 0-3.223.888-3.924 1.506l-.26-1.197h-4.405v22.51l5.005-1.022.02-5.464c.721.502 1.782 1.216 3.544 1.216 3.584 0 6.847-2.78 6.847-8.9-.02-5.599-3.323-8.65-6.827-8.65m-1.201 13.302c-1.182 0-1.882-.406-2.363-.907l-.02-7.163c.521-.56 1.241-.946 2.383-.946 1.822 0 3.083 1.97 3.083 4.498 0 2.587-1.241 4.518-3.083 4.518m-14.275-14.44 5.025-1.043v-3.919l-5.025 1.023z" clip-rule="evenodd"/><path fill="#fff" fill-opacity=".3" d="M206.021 30.536h-5.025v16.893h5.025z"/><path fill="#fff" fill-opacity=".3" fill-rule="evenodd" d="m195.61 31.965-.321-1.429h-4.324V47.43h5.005V35.98c1.181-1.486 3.184-1.216 3.804-1.003v-4.44c-.64-.232-2.983-.657-4.164 1.428m-10.009-5.618-4.886 1.004-.02 15.464c0 2.857 2.223 4.962 5.186 4.962 1.642 0 2.843-.29 3.504-.637v-3.92c-.641.251-3.804 1.14-3.804-1.718v-6.854h3.804v-4.112h-3.804zm-13.536 9.093c0-.753.641-1.043 1.702-1.043 1.522 0 3.444.444 4.966 1.236v-4.537c-1.662-.637-3.304-.888-4.966-.888-4.064 0-6.767 2.046-6.767 5.464 0 5.328 7.608 4.479 7.608 6.776 0 .888-.801 1.178-1.922 1.178-1.662 0-3.784-.657-5.466-1.545v4.595c1.862.772 3.744 1.1 5.466 1.1 4.165 0 7.028-1.988 7.028-5.444-.02-5.753-7.649-4.73-7.649-6.892" clip-rule="evenodd"/><rect width="38" height="9.643" x="30" y="92.571" fill="#fff" fill-opacity=".3" rx="4"/><rect width="42" height="28.929" x="30" y="24.107" fill="#fff" fill-opacity=".3" rx="4"/><rect width="39" height="9.643" x="86" y="92.571" fill="#fff" fill-opacity=".3" rx="4"/><rect width="39" height="9.643" x="143" y="92.571" fill="#fff" fill-opacity=".3" rx="4"/><rect width="29" height="7.714" x="120" y="120.536" fill="#fff" fill-opacity=".3" rx="3.857"/><rect width="23" height="7.714" x="277" y="120.536" fill="#fff" fill-opacity=".3" rx="3.857"/><rect width="28" height="6.75" x="30" y="141.75" fill="#fff" fill-opacity=".3" rx="3.375"/><rect width="30" height="6.75" x="68" y="141.75" fill="#fff" fill-opacity=".3" rx="3.375"/><rect width="39" height="9.643" x="200" y="92.571" fill="#fff" fill-opacity=".3" rx="4"/><defs><filter id="a" width="349" height="249.714" x="21" y="-20.714" color-interpolation-filters="sRGB" filterUnits="userSpaceOnUse"><feFlood flood-opacity="0" result="BackgroundImageFix"/><feGaussianBlur in="BackgroundImageFix" stdDeviation="20"/><feComposite in2="SourceAlpha" operator="in" result="effect1_backgroundBlur_298_32717"/><feBlend in="SourceGraphic" in2="effect1_backgroundBlur_298_32717" result="shape"/></filter></defs></svg>