<svg width="20" height="21" viewBox="0 0 20 21" fill="none" xmlns="http://www.w3.org/2000/svg">
<path d="M10 0.5C15.523 0.5 20 4.977 20 10.5C20 16.023 15.523 20.5 10 20.5C4.477 20.5 0 16.023 0 10.5C0 4.977 4.477 0.5 10 0.5ZM13.535 6.881L8.585 11.831L6.465 9.71C6.37216 9.61709 6.26192 9.54338 6.14059 9.49307C6.01926 9.44276 5.8892 9.41684 5.75785 9.4168C5.49258 9.4167 5.23814 9.52199 5.0505 9.7095C4.86286 9.89701 4.75739 10.1514 4.7573 10.4166C4.7572 10.6819 4.86249 10.9364 5.05 11.124L7.808 13.882C7.91015 13.9842 8.03144 14.0653 8.16493 14.1206C8.29842 14.1759 8.4415 14.2044 8.586 14.2044C8.7305 14.2044 8.87358 14.1759 9.00707 14.1206C9.14056 14.0653 9.26185 13.9842 9.364 13.882L14.95 8.296C15.1376 8.10836 15.2431 7.85386 15.2431 7.5885C15.2431 7.32314 15.1376 7.06864 14.95 6.881C14.7624 6.69336 14.5079 6.58794 14.2425 6.58794C13.9771 6.58794 13.7226 6.69336 13.535 6.881Z" fill="#A0895F"/>
</svg>
