<svg width="12" height="18" viewBox="0 0 12 18" fill="none" xmlns="http://www.w3.org/2000/svg">
<path d="M10.1667 3.16667H6M6 3.16667H3.91667C3.14312 3.16667 2.40125 3.47396 1.85427 4.02094C1.30729 4.56792 1 5.30979 1 6.08333C1 6.85688 1.30729 7.59875 1.85427 8.14573C2.40125 8.69271 3.14312 9 3.91667 9H6M6 3.16667V1.5M6 3.16667V9M6 9H8.08333C8.46635 9 8.84563 9.07544 9.19949 9.22202C9.55336 9.36859 9.87489 9.58343 10.1457 9.85427C10.4166 10.1251 10.6314 10.4466 10.778 10.8005C10.9246 11.1544 11 11.5336 11 11.9167C11 12.2997 10.9246 12.679 10.778 13.0328C10.6314 13.3867 10.4166 13.7082 10.1457 13.9791C9.87489 14.2499 9.55336 14.4647 9.19949 14.6113C8.84563 14.7579 8.46635 14.8333 8.08333 14.8333H6M6 9V14.8333M6 14.8333H1M6 14.8333V16.5" stroke="black" stroke-width="1.2" stroke-linecap="round" stroke-linejoin="round"/>
</svg>
