<svg width="48" height="48" viewBox="0 0 48 48" fill="none" xmlns="http://www.w3.org/2000/svg">
<path fill-rule="evenodd" clip-rule="evenodd" d="M21.2501 4.79217e-08C17.8616 0.000288729 14.5223 0.810911 11.5108 2.36423C8.49927 3.91756 5.90288 6.16854 3.93824 8.92938C1.97359 11.6902 0.69767 14.8809 0.216916 18.2351C-0.263838 21.5894 0.0645189 25.0099 1.17459 28.2115C2.28466 31.413 4.14426 34.3026 6.59824 36.6393C9.05221 38.976 12.0294 40.6919 15.2814 41.644C18.5335 42.5961 21.966 42.7566 25.2927 42.1123C28.6194 41.4679 31.7438 40.0374 34.4051 37.94L43.5351 47.07C44.0066 47.5254 44.6382 47.7774 45.2936 47.7717C45.9491 47.766 46.5762 47.5031 47.0397 47.0395C47.5032 46.576 47.7661 45.949 47.7718 45.2935C47.7775 44.638 47.5255 44.0065 47.0701 43.535L37.9401 34.405C40.4101 31.2715 41.9481 27.506 42.3779 23.5393C42.8077 19.5726 42.1121 15.5651 40.3707 11.9752C38.6293 8.38542 35.9124 5.35839 32.5309 3.24058C29.1494 1.12277 25.2401 -0.000267858 21.2501 4.79217e-08ZM5.00015 21.25C5.00015 16.9402 6.71219 12.807 9.75966 9.75951C12.8071 6.71205 16.9404 5 21.2501 5C25.5599 5 29.6932 6.71205 32.7406 9.75951C35.7881 12.807 37.5001 16.9402 37.5001 21.25C37.5001 25.5598 35.7881 29.693 32.7406 32.7405C29.6932 35.788 25.5599 37.5 21.2501 37.5C16.9404 37.5 12.8071 35.788 9.75966 32.7405C6.71219 29.693 5.00015 25.5598 5.00015 21.25Z" fill="black"/>
</svg>
