<svg width="20" height="16" viewBox="0 0 20 16" fill="none" xmlns="http://www.w3.org/2000/svg">
<path fill-rule="evenodd" clip-rule="evenodd" d="M0.957031 0.5C0.758119 0.5 0.567353 0.579018 0.426701 0.71967C0.286049 0.860322 0.207031 1.05109 0.207031 1.25V14C0.207031 14.3978 0.365066 14.7794 0.646371 15.0607C0.927676 15.342 1.30921 15.5 1.70703 15.5H18.207C18.6049 15.5 18.9864 15.342 19.2677 15.0607C19.549 14.7794 19.707 14.3978 19.707 14V1.25C19.707 1.05109 19.628 0.860322 19.4874 0.71967C19.3467 0.579018 19.1559 0.5 18.957 0.5H0.957031ZM2.88547 2H17.0286L9.95703 8.48281L2.88547 2ZM1.70703 13.0447V2.95531L7.21109 8L1.70703 13.0447ZM9.44609 10.0531C9.58446 10.1801 9.76545 10.2506 9.95328 10.2506C10.1411 10.2506 10.3221 10.1801 10.4605 10.0531L11.5855 9.01719L17.023 14H2.88547L8.32109 9.01719L9.44609 10.0531ZM18.207 2.95438V13.0456L12.703 8L18.207 2.95438Z" fill="white"/>
</svg>
