<svg xmlns="http://www.w3.org/2000/svg" width="76" height="20" fill="none"><g fill="#fff" clip-path="url(#a)"><path d="M24.686 4a.315.315 0 0 0-.311.266l-1.797 11.397a.292.292 0 0 0 .288.337h2.131a.315.315 0 0 0 .312-.266l.528-3.347a.315.315 0 0 1 .311-.266h1.938a4.596 4.596 0 0 0 4.537-3.89c.354-2.258-1.41-4.227-3.91-4.231zm2.072 2.544h1.55c1.277 0 1.693.753 1.561 1.586-.131.835-.777 1.45-2.011 1.45h-1.579zm10.2.775c-.538.002-1.158.112-1.853.401-1.595.665-2.36 2.039-2.686 3.04 0 0-1.035 3.056 1.304 4.735 0 0 2.169 1.616 4.61-.1l-.042.268a.29.29 0 0 0 .288.337h2.023a.315.315 0 0 0 .312-.266l1.23-7.805a.29.29 0 0 0-.287-.338h-2.024a.315.315 0 0 0-.311.267l-.066.42s-.884-.965-2.498-.96m.066 2.465q.349 0 .635.093c.873.28 1.368 1.12 1.225 2.028-.177 1.12-1.095 1.944-2.272 1.944q-.349 0-.635-.094c-.873-.28-1.371-1.118-1.228-2.027a2.27 2.27 0 0 1 2.275-1.944"/><path fill-opacity=".5" d="M53.823 4a.315.315 0 0 0-.311.266l-1.797 11.397a.29.29 0 0 0 .288.337h2.131a.315.315 0 0 0 .311-.266l.528-3.347a.315.315 0 0 1 .312-.266h1.938a4.595 4.595 0 0 0 4.536-3.89C62.113 5.972 60.35 4.003 57.85 4zm2.072 2.544h1.55c1.277 0 1.692.753 1.56 1.586-.13.835-.776 1.45-2.01 1.45h-1.579zm10.2.775c-.539.002-1.158.112-1.853.401-1.595.665-2.361 2.039-2.686 3.04 0 0-1.035 3.056 1.304 4.735 0 0 2.168 1.616 4.61-.1l-.042.268a.29.29 0 0 0 .288.337h2.023a.315.315 0 0 0 .312-.266l1.23-7.805a.29.29 0 0 0-.287-.338H68.97a.315.315 0 0 0-.311.267l-.066.42s-.884-.965-2.499-.96m.065 2.465q.35 0 .636.093c.873.28 1.368 1.12 1.224 2.028-.176 1.12-1.094 1.944-2.271 1.944q-.35 0-.636-.094c-.873-.28-1.37-1.118-1.227-2.027a2.27 2.27 0 0 1 2.274-1.944"/><path d="M43.104 7.592a.237.237 0 0 0-.225.309l2.218 6.883-2.006 3.244a.236.236 0 0 0 .201.36h2.37a.4.4 0 0 0 .338-.19L52.195 7.95a.237.237 0 0 0-.203-.359h-2.37a.4.4 0 0 0-.34.194l-2.438 4.117-1.238-4.087a.32.32 0 0 0-.301-.224z"/><path fill-opacity=".5" d="M73.581 4a.315.315 0 0 0-.311.266l-1.798 11.397a.293.293 0 0 0 .289.337h2.13a.315.315 0 0 0 .312-.266L76 4.337A.292.292 0 0 0 75.714 4z"/><path d="M6.918 4a.58.58 0 0 0-.57.486l-.946 6a.576.576 0 0 1 .57-.486h2.772a5.66 5.66 0 0 0 5.59-4.794 5 5 0 0 0 .055-.622A5.26 5.26 0 0 0 11.934 4z"/><path fill-opacity=".5" d="M14.387 4.584a5 5 0 0 1-.055.622A5.66 5.66 0 0 1 8.743 10H5.97a.576.576 0 0 0-.569.487L4.531 16l-.545 3.46a.468.468 0 0 0 .462.54h3.01a.58.58 0 0 0 .569-.486l.792-5.027A.58.58 0 0 1 9.39 14h1.772a5.66 5.66 0 0 0 5.59-4.793c.307-1.958-.679-3.74-2.364-4.623"/><path d="M3.499 0a.576.576 0 0 0-.57.487L.57 15.459a.468.468 0 0 0 .46.541h3.501l.87-5.513.946-6A.58.58 0 0 1 6.918 4h5.015a5.26 5.26 0 0 1 2.455.585C14.437 2.073 12.364 0 9.516 0z"/></g><defs><clipPath id="a"><path fill="#fff" d="M.563 0H76v20H.563z"/></clipPath></defs></svg>