<svg xmlns="http://www.w3.org/2000/svg" width="19" height="19" fill="none"><path fill="#fff" fill-rule="evenodd" d="m13.43 10.877-.012-.006a1.5 1.5 0 0 0-1.492.184L9.644 13c-1.446-.702-2.938-2.183-3.64-3.61l1.948-2.317q.028-.034.053-.072A1.5 1.5 0 0 0 8.13 5.59v-.01L6.144 1.153A1.5 1.5 0 0 0 4.586.262 5.274 5.274 0 0 0 0 5.5C0 12.944 6.056 19 13.5 19a5.274 5.274 0 0 0 5.239-4.586 1.5 1.5 0 0 0-.892-1.558zm-8.41 3.105A12 12 0 0 1 1.5 5.5a3.77 3.77 0 0 1 3.27-3.75v.012l1.968 4.406L4.8 8.488l-.053.071a1.5 1.5 0 0 0-.094 1.472c.85 1.737 2.6 3.475 4.355 4.323a1.5 1.5 0 0 0 1.477-.107l.07-.052 2.278-1.945 4.407 1.974h.01A3.77 3.77 0 0 1 13.5 17.5a12 12 0 0 1-8.481-3.518" clip-rule="evenodd"/></svg>