<svg xmlns="http://www.w3.org/2000/svg" width="23" height="23" fill="none"><path fill="#fff" fill-rule="evenodd" d="m15.485 12.322-.012-.005a1.4 1.4 0 0 0-1.399.172l-2.14 1.824c-1.354-.659-2.754-2.047-3.412-3.385l1.826-2.172.05-.068a1.4 1.4 0 0 0 .117-1.323v-.01L8.654 3.206a1.41 1.41 0 0 0-1.46-.837 4.945 4.945 0 0 0-4.3 4.911c0 6.979 5.677 12.657 12.656 12.657a4.945 4.945 0 0 0 4.911-4.3 1.41 1.41 0 0 0-.836-1.46zm-7.887 2.91A11.26 11.26 0 0 1 4.3 7.283a3.53 3.53 0 0 1 3.065-3.516v.01l1.845 4.13-1.816 2.175a1.41 1.41 0 0 0-.138 1.448c.796 1.628 2.437 3.256 4.083 4.052a1.4 1.4 0 0 0 1.45-.15l2.136-1.822 4.13 1.85h.01a3.534 3.534 0 0 1-3.515 3.071 11.26 11.26 0 0 1-7.952-3.298" clip-rule="evenodd"/></svg>