<svg width="19" height="19" viewBox="0 0 19 19" fill="none" xmlns="http://www.w3.org/2000/svg">
<path fill-rule="evenodd" clip-rule="evenodd" d="M13.4306 10.8769L13.4184 10.8712C13.1892 10.7732 12.939 10.7338 12.6907 10.7567C12.4424 10.7796 12.2037 10.8641 11.9963 11.0025C11.9718 11.0186 11.9484 11.0361 11.9259 11.055L9.64407 13.0003C8.19845 12.2981 6.70595 10.8169 6.00376 9.38999L7.95188 7.07342C7.97063 7.04999 7.98845 7.02655 8.00532 7.00124C8.14072 6.79433 8.22287 6.55716 8.24446 6.31084C8.26605 6.06451 8.22641 5.81667 8.12907 5.58936V5.57811L6.14438 1.15405C6.0157 0.857109 5.79444 0.60975 5.51362 0.448897C5.2328 0.288044 4.9075 0.222324 4.58626 0.261549C3.31592 0.428711 2.14986 1.05258 1.30588 2.01664C0.461903 2.98069 -0.00228837 4.21901 8.4831e-06 5.5003C8.4831e-06 12.944 6.05626 19.0003 13.5 19.0003C14.7813 19.0026 16.0196 18.5384 16.9837 17.6944C17.9477 16.8504 18.5716 15.6844 18.7388 14.414C18.7781 14.0929 18.7125 13.7677 18.5518 13.4869C18.3911 13.2061 18.144 12.9848 17.8472 12.8559L13.4306 10.8769ZM5.01856 13.9817C2.76888 11.7321 1.50348 8.68183 1.50001 5.5003C1.49648 4.58482 1.82631 3.69936 2.42789 3.00927C3.02947 2.31919 3.86167 1.87167 4.76907 1.7503C4.7687 1.75404 4.7687 1.75781 4.76907 1.76155L6.73782 6.1678L4.80001 8.48717C4.78034 8.50981 4.76247 8.53394 4.74657 8.55936C4.60549 8.77585 4.52273 9.02511 4.5063 9.28298C4.48988 9.54086 4.54035 9.7986 4.65282 10.0312C5.5022 11.7684 7.25251 13.5056 9.00845 14.354C9.24279 14.4655 9.50203 14.5142 9.76083 14.4955C10.0196 14.4767 10.2692 14.3912 10.485 14.2472C10.5091 14.231 10.5322 14.2134 10.5544 14.1947L12.8334 12.2503L17.2397 14.2237C17.2397 14.2237 17.2472 14.2237 17.25 14.2237C17.1301 15.1324 16.6833 15.9663 15.9931 16.5694C15.3028 17.1724 14.4166 17.5034 13.5 17.5003C10.3185 17.4968 7.26825 16.2314 5.01856 13.9817Z" fill="white"/>
</svg>
