<svg xmlns="http://www.w3.org/2000/svg" width="18" height="22" fill="none"><path fill="#000" fill-rule="evenodd" d="M6.917 5.632a3.75 3.75 0 1 0 4.166 6.236 3.75 3.75 0 0 0-4.166-6.236m.833 4.989a2.25 2.25 0 1 1 2.5-3.741 2.25 2.25 0 0 1-2.5 3.74M3.17 2.919A8.26 8.26 0 0 0 .75 8.75c0 2.944 1.36 6.064 3.938 9.023a23.8 23.8 0 0 0 3.885 3.591.75.75 0 0 0 .861 0 23.8 23.8 0 0 0 3.879-3.59c2.573-2.96 3.937-6.08 3.937-9.024A8.26 8.26 0 0 0 9 .5a8.26 8.26 0 0 0-5.83 2.42m-.92 5.83a6.75 6.75 0 0 1 13.5 0c0 5.365-5.2 9.844-6.75 11.063-1.55-1.22-6.75-5.696-6.75-11.063" clip-rule="evenodd"/></svg>