<svg xmlns="http://www.w3.org/2000/svg" width="24" height="25" fill="none"><path fill="#fff" d="M12 14a3.75 3.75 0 1 1 0-7.5 3.75 3.75 0 0 1 0 7.5m0-6a2.25 2.25 0 1 0 0 4.5A2.25 2.25 0 0 0 12 8"/><path fill="#fff" d="m12 23-6.327-7.462-.261-.338a8.18 8.18 0 0 1-1.662-4.95 8.25 8.25 0 1 1 16.5 0 8.18 8.18 0 0 1-1.661 4.948l-.001.002s-.225.296-.259.335zm-5.39-8.704s.175.231.214.28L12 20.682l5.183-6.113c.032-.04.208-.273.209-.274a6.68 6.68 0 0 0 1.358-4.044 6.75 6.75 0 0 0-13.5 0 6.68 6.68 0 0 0 1.36 4.046"/></svg>